G04*
G04 #@! TF.GenerationSoftware,Altium Limited,Altium Designer,24.2.2 (26)*
G04*
G04 Layer_Color=16711935*
%FSLAX44Y44*%
%MOMM*%
G71*
G04*
G04 #@! TF.SameCoordinates,8F8C662E-78E3-4B19-825C-435B122D3AAE*
G04*
G04*
G04 #@! TF.FilePolarity,Negative*
G04*
G01*
G75*
%ADD68R,1.4032X1.4032*%
%ADD69R,1.4032X1.4032*%
%ADD85R,1.7032X2.2032*%
%ADD86O,1.7032X2.2032*%
%ADD87C,2.6032*%
%ADD88R,2.6032X2.6032*%
%ADD89O,2.0000X1.7000*%
%ADD90O,1.8542X1.9812*%
%ADD91R,1.8542X1.9812*%
%ADD92C,6.7032*%
%ADD93O,2.6032X1.8032*%
%ADD94R,2.6032X1.8032*%
G04:AMPARAMS|DCode=95|XSize=2.7032mm|YSize=2.4032mm|CornerRadius=0mm|HoleSize=0mm|Usage=FLASHONLY|Rotation=180.000|XOffset=0mm|YOffset=0mm|HoleType=Round|Shape=Octagon|*
%AMOCTAGOND95*
4,1,8,-1.3516,0.6008,-1.3516,-0.6008,-0.7508,-1.2016,0.7508,-1.2016,1.3516,-0.6008,1.3516,0.6008,0.7508,1.2016,-0.7508,1.2016,-1.3516,0.6008,0.0*
%
%ADD95OCTAGOND95*%

%ADD96O,2.7032X2.4032*%
%ADD97R,2.7032X2.4032*%
%ADD98R,1.8032X1.8032*%
%ADD99C,1.8032*%
G04:AMPARAMS|DCode=100|XSize=2.0032mm|YSize=3.2032mm|CornerRadius=0.5516mm|HoleSize=0mm|Usage=FLASHONLY|Rotation=270.000|XOffset=0mm|YOffset=0mm|HoleType=Round|Shape=RoundedRectangle|*
%AMROUNDEDRECTD100*
21,1,2.0032,2.1000,0,0,270.0*
21,1,0.9000,3.2032,0,0,270.0*
1,1,1.1032,-1.0500,-0.4500*
1,1,1.1032,-1.0500,0.4500*
1,1,1.1032,1.0500,0.4500*
1,1,1.1032,1.0500,-0.4500*
%
%ADD100ROUNDEDRECTD100*%
%ADD101C,2.2032*%
%ADD102C,1.2032*%
%ADD103C,1.4032*%
%ADD131R,0.9032X0.6032*%
G36*
X221123Y374450D02*
X221254Y374423D01*
X221380Y374381D01*
X221499Y374322D01*
X221610Y374248D01*
X221710Y374160D01*
X226710Y369160D01*
X226798Y369060D01*
X226872Y368949D01*
X226931Y368830D01*
X226973Y368703D01*
X226999Y368573D01*
X227008Y368440D01*
Y358440D01*
X226999Y358307D01*
X226973Y358176D01*
X226931Y358050D01*
X226872Y357931D01*
X226798Y357820D01*
X226710Y357720D01*
X221710Y352720D01*
X221610Y352632D01*
X221499Y352558D01*
X221380Y352499D01*
X221254Y352457D01*
X221123Y352430D01*
X220990Y352422D01*
X190490D01*
X190357Y352430D01*
X190226Y352457D01*
X190100Y352499D01*
X189981Y352558D01*
X189870Y352632D01*
X189770Y352720D01*
X184770Y357720D01*
X184682Y357820D01*
X184608Y357931D01*
X184549Y358050D01*
X184506Y358176D01*
X184480Y358307D01*
X184472Y358440D01*
Y368440D01*
X184480Y368573D01*
X184506Y368703D01*
X184549Y368830D01*
X184608Y368949D01*
X184682Y369060D01*
X184770Y369160D01*
X189770Y374160D01*
X189870Y374248D01*
X189981Y374322D01*
X190100Y374381D01*
X190226Y374423D01*
X190357Y374450D01*
X190490Y374458D01*
X220990D01*
X221123Y374450D01*
D02*
G37*
G36*
X257873Y355699D02*
X258004Y355673D01*
X258130Y355631D01*
X258249Y355572D01*
X258360Y355498D01*
X258460Y355410D01*
X263460Y350410D01*
X263548Y350310D01*
X263622Y350199D01*
X263681Y350080D01*
X263724Y349953D01*
X263750Y349823D01*
X263758Y349690D01*
Y319190D01*
X263750Y319057D01*
X263724Y318926D01*
X263681Y318800D01*
X263622Y318681D01*
X263548Y318570D01*
X263460Y318470D01*
X258460Y313470D01*
X258360Y313382D01*
X258249Y313308D01*
X258130Y313249D01*
X258004Y313207D01*
X257873Y313181D01*
X257740Y313172D01*
X247740D01*
X247607Y313181D01*
X247477Y313207D01*
X247350Y313249D01*
X247231Y313308D01*
X247120Y313382D01*
X247020Y313470D01*
X242020Y318470D01*
X241932Y318570D01*
X241858Y318681D01*
X241799Y318800D01*
X241756Y318926D01*
X241730Y319057D01*
X241722Y319190D01*
Y349690D01*
X241730Y349823D01*
X241756Y349953D01*
X241799Y350080D01*
X241858Y350199D01*
X241932Y350310D01*
X242020Y350410D01*
X247020Y355410D01*
X247120Y355498D01*
X247231Y355572D01*
X247350Y355631D01*
X247477Y355673D01*
X247607Y355699D01*
X247740Y355708D01*
X257740D01*
X257873Y355699D01*
D02*
G37*
G36*
X221123Y314450D02*
X221254Y314424D01*
X221380Y314381D01*
X221499Y314322D01*
X221610Y314248D01*
X221710Y314160D01*
X226710Y309160D01*
X226798Y309060D01*
X226872Y308949D01*
X226931Y308830D01*
X226973Y308703D01*
X226999Y308573D01*
X227008Y308440D01*
Y298440D01*
X226999Y298307D01*
X226973Y298176D01*
X226931Y298050D01*
X226872Y297931D01*
X226798Y297820D01*
X226710Y297720D01*
X221710Y292720D01*
X221610Y292632D01*
X221499Y292558D01*
X221380Y292499D01*
X221254Y292456D01*
X221123Y292430D01*
X220990Y292422D01*
X190490D01*
X190357Y292430D01*
X190226Y292456D01*
X190100Y292499D01*
X189981Y292558D01*
X189870Y292632D01*
X189770Y292720D01*
X184770Y297720D01*
X184682Y297820D01*
X184608Y297931D01*
X184549Y298050D01*
X184506Y298176D01*
X184480Y298307D01*
X184472Y298440D01*
Y308440D01*
X184480Y308573D01*
X184506Y308703D01*
X184549Y308830D01*
X184608Y308949D01*
X184682Y309060D01*
X184770Y309160D01*
X189770Y314160D01*
X189870Y314248D01*
X189981Y314322D01*
X190100Y314381D01*
X190226Y314424D01*
X190357Y314450D01*
X190490Y314458D01*
X220990D01*
X221123Y314450D01*
D02*
G37*
D68*
X786130Y1446530D02*
D03*
X807130D02*
D03*
X786180Y1465580D02*
D03*
X807180D02*
D03*
D69*
X937260Y1177240D02*
D03*
Y1156240D02*
D03*
Y1193850D02*
D03*
Y1214850D02*
D03*
D85*
X855980Y1496568D02*
D03*
D86*
X830580D02*
D03*
X805180D02*
D03*
X779780D02*
D03*
D87*
X581660Y329560D02*
D03*
X734060D02*
D03*
X897890D02*
D03*
X948690D02*
D03*
D88*
X530860D02*
D03*
X683260D02*
D03*
X847090D02*
D03*
D89*
X1003300Y889000D02*
D03*
X977900D02*
D03*
X1003300Y914400D02*
D03*
X977900D02*
D03*
X1003300Y939800D02*
D03*
X977900D02*
D03*
D90*
X576580Y1501140D02*
D03*
X601980D02*
D03*
D91*
X627380D02*
D03*
D92*
X311150Y313690D02*
D03*
X1008380Y1489710D02*
D03*
X110490Y1488440D02*
D03*
D93*
X977900Y1407590D02*
D03*
Y1215390D02*
D03*
Y1189990D02*
D03*
Y1164590D02*
D03*
D94*
Y1432990D02*
D03*
Y1240790D02*
D03*
D95*
X733400Y574660D02*
D03*
X850900D02*
D03*
X568630Y574260D02*
D03*
X686130D02*
D03*
X897890Y574660D02*
D03*
X1015390D02*
D03*
D96*
X733400Y454660D02*
D03*
X850900D02*
D03*
X568630Y454260D02*
D03*
X686130D02*
D03*
X897890Y454660D02*
D03*
X1015390D02*
D03*
D97*
X792150Y595160D02*
D03*
X627380Y594760D02*
D03*
X956640Y595160D02*
D03*
D98*
X386080Y1408430D02*
D03*
D99*
Y1383030D02*
D03*
Y1357630D02*
D03*
D100*
X493014Y612902D02*
D03*
X492760Y388620D02*
D03*
D101*
X627380Y1422400D02*
D03*
Y1397000D02*
D03*
X601980Y1422400D02*
D03*
X576580D02*
D03*
X551180D02*
D03*
X525780D02*
D03*
X500380D02*
D03*
X601980Y1397000D02*
D03*
X576580D02*
D03*
X551180D02*
D03*
X525780D02*
D03*
X500380D02*
D03*
D102*
X615950Y988060D02*
D03*
Y1004570D02*
D03*
D103*
X287020Y1269548D02*
D03*
X308610D02*
D03*
X215900Y689610D02*
D03*
Y704215D02*
D03*
Y718820D02*
D03*
X779780Y995680D02*
D03*
X161290Y1316990D02*
D03*
X453360Y1252456D02*
D03*
X551180Y1051560D02*
D03*
X598170Y878675D02*
D03*
Y898829D02*
D03*
Y858520D02*
D03*
X307340Y1071880D02*
D03*
X360472Y1152169D02*
D03*
X330200Y1269548D02*
D03*
X571500Y1243330D02*
D03*
X692784Y1020180D02*
D03*
X671676Y1021145D02*
D03*
X645160Y1062990D02*
D03*
X626110Y1074420D02*
D03*
X936589Y933450D02*
D03*
Y957007D02*
D03*
D131*
X264070Y1130450D02*
D03*
Y1117450D02*
D03*
X284570Y1117450D02*
D03*
Y1123950D02*
D03*
Y1130450D02*
D03*
M02*
