G04*
G04 #@! TF.GenerationSoftware,Altium Limited,Altium Designer,24.2.2 (26)*
G04*
G04 Layer_Color=0*
%FSLAX44Y44*%
%MOMM*%
G71*
G04*
G04 #@! TF.SameCoordinates,B60BE1A1-B81C-4E43-A62B-C970C25FC29D*
G04*
G04*
G04 #@! TF.FilePolarity,Positive*
G04*
G01*
G75*
%ADD136C,0.0254*%
G36*
X751876Y563880D02*
Y562383D01*
X752460Y559445D01*
X753606Y556678D01*
X755270Y554188D01*
X757388Y552070D01*
X759878Y550406D01*
X762645Y549260D01*
X765583Y548676D01*
X767080D01*
D01*
X819150D01*
X820647D01*
X823585Y549260D01*
X826352Y550406D01*
X828842Y552070D01*
X830960Y554188D01*
X832623Y556678D01*
X833770Y559445D01*
X834354Y562383D01*
Y563880D01*
D01*
Y617220D01*
Y617718D01*
X833973Y618638D01*
X833268Y619343D01*
X832348Y619724D01*
X831352D01*
X830432Y619343D01*
X829727Y618638D01*
X829346Y617718D01*
Y617220D01*
D01*
Y563880D01*
X829297Y562881D01*
X828907Y560920D01*
X828142Y559073D01*
X827032Y557412D01*
X825618Y555998D01*
X823956Y554888D01*
X822110Y554123D01*
X820149Y553733D01*
X819150Y553684D01*
D01*
X767080D01*
X766081Y553733D01*
X764120Y554123D01*
X762273Y554888D01*
X760612Y555998D01*
X759198Y557412D01*
X758088Y559073D01*
X757323Y560920D01*
X756933Y562881D01*
X756884Y563880D01*
D01*
Y617220D01*
Y617718D01*
X756503Y618638D01*
X755798Y619343D01*
X754878Y619724D01*
X753882D01*
X752962Y619343D01*
X752257Y618638D01*
X751876Y617718D01*
Y617220D01*
D01*
Y563880D01*
D02*
G37*
G36*
X585816Y563800D02*
Y562303D01*
X586400Y559365D01*
X587547Y556598D01*
X589210Y554108D01*
X591328Y551990D01*
X593818Y550326D01*
X596585Y549180D01*
X599523Y548596D01*
X601020D01*
D01*
X653090D01*
X654587D01*
X657525Y549180D01*
X660292Y550326D01*
X662782Y551990D01*
X664900Y554108D01*
X666563Y556598D01*
X667710Y559365D01*
X668294Y562303D01*
Y563800D01*
D01*
Y617140D01*
Y617638D01*
X667913Y618558D01*
X667208Y619263D01*
X666288Y619644D01*
X665292D01*
X664372Y619263D01*
X663667Y618558D01*
X663286Y617638D01*
Y617140D01*
D01*
Y563800D01*
X663237Y562801D01*
X662847Y560840D01*
X662082Y558993D01*
X660972Y557332D01*
X659558Y555918D01*
X657896Y554808D01*
X656050Y554043D01*
X654089Y553653D01*
X653090Y553604D01*
D01*
X601020D01*
X600021Y553653D01*
X598060Y554043D01*
X596213Y554808D01*
X594552Y555918D01*
X593138Y557332D01*
X592028Y558993D01*
X591263Y560840D01*
X590873Y562801D01*
X590824Y563800D01*
D01*
Y617140D01*
Y617638D01*
X590443Y618558D01*
X589738Y619263D01*
X588818Y619644D01*
X587822D01*
X586902Y619263D01*
X586197Y618558D01*
X585816Y617638D01*
Y617140D01*
D01*
Y563800D01*
D02*
G37*
G36*
X988065Y620490D02*
X990832Y619343D01*
X993322Y617680D01*
X995440Y615562D01*
X997103Y613072D01*
X998250Y610305D01*
X998834Y607367D01*
Y605870D01*
X998834D01*
X998834Y552530D01*
Y552032D01*
X998453Y551112D01*
X997748Y550407D01*
X996828Y550026D01*
X995832D01*
X994912Y550407D01*
X994207Y551112D01*
X993826Y552032D01*
Y552530D01*
X993826Y605870D01*
X993777Y606869D01*
X993387Y608830D01*
X992622Y610676D01*
X991512Y612338D01*
X990098Y613752D01*
X988436Y614862D01*
X986590Y615627D01*
X984629Y616017D01*
X983630Y616066D01*
X931560D01*
X930561Y616017D01*
X928600Y615627D01*
X926753Y614862D01*
X925092Y613752D01*
X923678Y612338D01*
X922568Y610676D01*
X921803Y608830D01*
X921413Y606869D01*
X921364Y605870D01*
Y552530D01*
Y552032D01*
X920983Y551112D01*
X920278Y550407D01*
X919358Y550026D01*
X918362D01*
X917442Y550407D01*
X916737Y551112D01*
X916356Y552032D01*
Y552530D01*
Y605870D01*
Y607367D01*
X916940Y610305D01*
X918086Y613072D01*
X919750Y615562D01*
X921868Y617680D01*
X924358Y619343D01*
X927125Y620490D01*
X930062Y621074D01*
X985127D01*
X988065Y620490D01*
D02*
G37*
D136*
X1044931Y259080D02*
Y1528145D01*
X1010213D01*
X112424Y1528145D01*
X112421Y1528145D01*
X77704D01*
Y259080D01*
X1044931D01*
M02*
