G04*
G04 #@! TF.GenerationSoftware,Altium Limited,Altium Designer,24.2.2 (26)*
G04*
G04 Layer_Color=2752767*
%FSLAX44Y44*%
%MOMM*%
G71*
G04*
G04 #@! TF.SameCoordinates,0F8B1A73-7D9A-4E60-A1EB-41BE9D7EE600*
G04*
G04*
G04 #@! TF.FilePolarity,Positive*
G04*
G01*
G75*
%ADD15C,0.1270*%
%ADD134C,0.1693*%
%ADD135C,0.1016*%
D15*
X576580Y324480D02*
Y334640D01*
X586740D01*
Y324480D01*
X576580D01*
X578612Y326512D02*
Y332608D01*
X584708D01*
Y326512D01*
X578612D01*
X525780Y324480D02*
Y334640D01*
X535940D01*
Y324480D01*
X525780D01*
X527812Y326512D02*
Y332608D01*
X533908D01*
Y326512D01*
X527812D01*
X1003300Y883920D02*
X998220Y894080D01*
X1008380D01*
X1003300Y883920D01*
X977900D02*
X972820Y894080D01*
X982980D01*
X977900Y883920D01*
X1003300Y909320D02*
X998220Y919480D01*
X1008380D01*
X1003300Y909320D01*
X977900D02*
X972820Y919480D01*
X982980D01*
X977900Y909320D01*
X1003300Y934720D02*
X998220Y944880D01*
X1008380D01*
X1003300Y934720D01*
X977900D02*
X972820Y944880D01*
X982980D01*
X977900Y934720D01*
X728980Y324480D02*
Y334640D01*
X739140D01*
Y324480D01*
X728980D01*
X731012Y326512D02*
Y332608D01*
X737108D01*
Y326512D01*
X731012D01*
X678180Y324480D02*
Y334640D01*
X688340D01*
Y324480D01*
X678180D01*
X680212Y326512D02*
Y332608D01*
X686308D01*
Y326512D01*
X680212D01*
X842010Y324480D02*
Y334640D01*
X852170D01*
Y324480D01*
X842010D01*
X844042Y326512D02*
Y332608D01*
X850138D01*
Y326512D01*
X844042D01*
X892810Y324480D02*
Y334640D01*
X902970D01*
Y324480D01*
X892810D01*
X894842Y326512D02*
Y332608D01*
X900938D01*
Y326512D01*
X894842D01*
X943610Y324480D02*
Y334640D01*
X953770D01*
Y324480D01*
X943610D01*
X945642Y326512D02*
Y332608D01*
X951738D01*
Y326512D01*
X945642D01*
X574040Y1498600D02*
Y1496060D01*
X579120D01*
Y1498600D01*
X581660D01*
Y1503680D01*
X579120D01*
Y1506220D01*
X574040D01*
Y1503680D01*
X571500D01*
Y1498600D01*
X574040D01*
X599440D02*
Y1496060D01*
X604520D01*
Y1498600D01*
X607060D01*
Y1503680D01*
X604520D01*
Y1506220D01*
X599440D01*
Y1503680D01*
X596900D01*
Y1498600D01*
X599440D01*
X624840D02*
Y1496060D01*
X629920D01*
Y1498600D01*
X632460D01*
Y1503680D01*
X629920D01*
Y1506220D01*
X624840D01*
Y1503680D01*
X622300D01*
Y1498600D01*
X624840D01*
X855980Y1491488D02*
X850900Y1501648D01*
X861060D01*
X855980Y1491488D01*
X830580D02*
X825500Y1501648D01*
X835660D01*
X830580Y1491488D01*
X805180D02*
X800100Y1501648D01*
X810260D01*
X805180Y1491488D01*
X779780D02*
X774700Y1501648D01*
X784860D01*
X779780Y1491488D01*
X977900Y1402510D02*
X972820Y1412670D01*
X982980D01*
X977900Y1402510D01*
Y1427910D02*
X972820Y1438070D01*
X982980D01*
X977900Y1427910D01*
Y1235710D02*
X972820Y1245870D01*
X982980D01*
X977900Y1235710D01*
Y1210310D02*
X972820Y1220470D01*
X982980D01*
X977900Y1210310D01*
Y1184910D02*
X972820Y1195070D01*
X982980D01*
X977900Y1184910D01*
Y1159510D02*
X972820Y1169670D01*
X982980D01*
X977900Y1159510D01*
X728320Y569580D02*
Y579740D01*
X738480D01*
Y569580D01*
X728320D01*
Y449580D02*
Y459740D01*
X738480D01*
Y449580D01*
X728320D01*
X845820Y569580D02*
Y579740D01*
X855980D01*
Y569580D01*
X845820D01*
Y449580D02*
Y459740D01*
X855980D01*
Y449580D01*
X845820D01*
X787070Y590080D02*
Y600240D01*
X797230D01*
Y590080D01*
X787070D01*
X563550Y569180D02*
Y579340D01*
X573710D01*
Y569180D01*
X563550D01*
Y449180D02*
Y459340D01*
X573710D01*
Y449180D01*
X563550D01*
X681050Y569180D02*
Y579340D01*
X691210D01*
Y569180D01*
X681050D01*
Y449180D02*
Y459340D01*
X691210D01*
Y449180D01*
X681050D01*
X622300Y589680D02*
Y599840D01*
X632460D01*
Y589680D01*
X622300D01*
X892810Y569580D02*
Y579740D01*
X902970D01*
Y569580D01*
X892810D01*
Y449580D02*
Y459740D01*
X902970D01*
Y449580D01*
X892810D01*
X1010310Y569580D02*
Y579740D01*
X1020470D01*
Y569580D01*
X1010310D01*
Y449580D02*
Y459740D01*
X1020470D01*
Y449580D01*
X1010310D01*
X951560Y590080D02*
Y600240D01*
X961720D01*
Y590080D01*
X951560D01*
X247660Y329360D02*
X250200Y334440D01*
X247660Y339520D01*
X252740Y336980D01*
X257820Y339520D01*
X255280Y334440D01*
X257820Y329360D01*
X252740Y331900D01*
X247660Y329360D01*
X200660Y298360D02*
X203200Y303440D01*
X200660Y308520D01*
X205740Y305980D01*
X210820Y308520D01*
X208280Y303440D01*
X210820Y298360D01*
X205740Y300900D01*
X200660Y298360D01*
Y358360D02*
X203200Y363440D01*
X200660Y368520D01*
X205740Y365980D01*
X210820Y368520D01*
X208280Y363440D01*
X210820Y358360D01*
X205740Y360900D01*
X200660Y358360D01*
X493014Y607822D02*
X495554Y610362D01*
X498094D01*
X495554Y612902D01*
X498094Y615442D01*
X495554D01*
X493014Y617982D01*
X490474Y615442D01*
X487934D01*
X490474Y612902D01*
X487934Y610362D01*
X490474D01*
X493014Y607822D01*
Y609854D02*
X494538Y611378D01*
X496062D01*
X494538Y612902D01*
X496062Y614426D01*
X494538D01*
X493014Y615950D01*
X491490Y614426D01*
X489966D01*
X491490Y612902D01*
X489966Y611378D01*
X491490D01*
X493014Y609854D01*
X492760Y383540D02*
X495300Y386080D01*
X497840D01*
X495300Y388620D01*
X497840Y391160D01*
X495300D01*
X492760Y393700D01*
X490220Y391160D01*
X487680D01*
X490220Y388620D01*
X487680Y386080D01*
X490220D01*
X492760Y383540D01*
Y385572D02*
X494284Y387096D01*
X495808D01*
X494284Y388620D01*
X495808Y390144D01*
X494284D01*
X492760Y391668D01*
X491236Y390144D01*
X489712D01*
X491236Y388620D01*
X489712Y387096D01*
X491236D01*
X492760Y385572D01*
X627380Y1417320D02*
X622300Y1427480D01*
X632460D01*
X627380Y1417320D01*
Y1391920D02*
X622300Y1402080D01*
X632460D01*
X627380Y1391920D01*
X601980Y1417320D02*
X596900Y1427480D01*
X607060D01*
X601980Y1417320D01*
X576580D02*
X571500Y1427480D01*
X581660D01*
X576580Y1417320D01*
X551180D02*
X546100Y1427480D01*
X556260D01*
X551180Y1417320D01*
X525780D02*
X520700Y1427480D01*
X530860D01*
X525780Y1417320D01*
X500380D02*
X495300Y1427480D01*
X505460D01*
X500380Y1417320D01*
X601980Y1391920D02*
X596900Y1402080D01*
X607060D01*
X601980Y1391920D01*
X576580D02*
X571500Y1402080D01*
X581660D01*
X576580Y1391920D01*
X551180D02*
X546100Y1402080D01*
X556260D01*
X551180Y1391920D01*
X525780D02*
X520700Y1402080D01*
X530860D01*
X525780Y1391920D01*
X500380D02*
X495300Y1402080D01*
X505460D01*
X500380Y1391920D01*
X610870Y982980D02*
X613410D01*
X615950Y985520D01*
X618490Y982980D01*
X621030D01*
Y985520D01*
X618490Y988060D01*
X621030Y990600D01*
Y993140D01*
X618490D01*
X615950Y990600D01*
X613410Y993140D01*
X610870D01*
Y990600D01*
X613410Y988060D01*
X610870Y985520D01*
Y982980D01*
Y999490D02*
X613410D01*
X615950Y1002030D01*
X618490Y999490D01*
X621030D01*
Y1002030D01*
X618490Y1004570D01*
X621030Y1007110D01*
Y1009650D01*
X618490D01*
X615950Y1007110D01*
X613410Y1009650D01*
X610870D01*
Y1007110D01*
X613410Y1004570D01*
X610870Y1002030D01*
Y999490D01*
X302260Y847090D02*
Y844550D01*
X307340D01*
Y847090D01*
X309880D01*
Y852170D01*
X307340D01*
Y854710D01*
X302260D01*
Y852170D01*
X299720D01*
Y847090D01*
X302260D01*
X281940Y1264469D02*
X284480D01*
X287020Y1267009D01*
X289560Y1264469D01*
X292100D01*
Y1267009D01*
X289560Y1269548D01*
X292100Y1272088D01*
Y1274629D01*
X289560D01*
X287020Y1272088D01*
X284480Y1274629D01*
X281940D01*
Y1272088D01*
X284480Y1269548D01*
X281940Y1267009D01*
Y1264469D01*
X303530D02*
X306070D01*
X308610Y1267009D01*
X311150Y1264469D01*
X313690D01*
Y1267009D01*
X311150Y1269548D01*
X313690Y1272088D01*
Y1274629D01*
X311150D01*
X308610Y1272088D01*
X306070Y1274629D01*
X303530D01*
Y1272088D01*
X306070Y1269548D01*
X303530Y1267009D01*
Y1264469D01*
X197460Y1147460D02*
Y1144920D01*
X202540D01*
Y1147460D01*
X205080D01*
Y1152540D01*
X202540D01*
Y1155080D01*
X197460D01*
Y1152540D01*
X194920D01*
Y1147460D01*
X197460D01*
X547460Y847460D02*
Y844920D01*
X552540D01*
Y847460D01*
X555080D01*
Y852540D01*
X552540D01*
Y855080D01*
X547460D01*
Y852540D01*
X544920D01*
Y847460D01*
X547460D01*
X151130Y1497330D02*
Y1494790D01*
X156210D01*
Y1497330D01*
X158750D01*
Y1502410D01*
X156210D01*
Y1504950D01*
X151130D01*
Y1502410D01*
X148590D01*
Y1497330D01*
X151130D01*
X97790Y1442720D02*
Y1440180D01*
X102870D01*
Y1442720D01*
X105410D01*
Y1447800D01*
X102870D01*
Y1450340D01*
X97790D01*
Y1447800D01*
X95250D01*
Y1442720D01*
X97790D01*
X151130Y1447800D02*
Y1445260D01*
X156210D01*
Y1447800D01*
X158750D01*
Y1452880D01*
X156210D01*
Y1455420D01*
X151130D01*
Y1452880D01*
X148590D01*
Y1447800D01*
X151130D01*
X351790Y297180D02*
Y294640D01*
X356870D01*
Y297180D01*
X359410D01*
Y302260D01*
X356870D01*
Y304800D01*
X351790D01*
Y302260D01*
X349250D01*
Y297180D01*
X351790D01*
X297180Y354330D02*
Y351790D01*
X302260D01*
Y354330D01*
X304800D01*
Y359410D01*
X302260D01*
Y361950D01*
X297180D01*
Y359410D01*
X294640D01*
Y354330D01*
X297180D01*
X351790Y347980D02*
Y345440D01*
X356870D01*
Y347980D01*
X359410D01*
Y353060D01*
X356870D01*
Y355600D01*
X351790D01*
Y353060D01*
X349250D01*
Y347980D01*
X351790D01*
X997460Y1197460D02*
Y1194920D01*
X1002540D01*
Y1197460D01*
X1005080D01*
Y1202540D01*
X1002540D01*
Y1205080D01*
X997460D01*
Y1202540D01*
X994920D01*
Y1197460D01*
X997460D01*
Y1147460D02*
Y1144920D01*
X1002540D01*
Y1147460D01*
X1005080D01*
Y1152540D01*
X1002540D01*
Y1155080D01*
X997460D01*
Y1152540D01*
X994920D01*
Y1147460D01*
X997460D01*
Y1097460D02*
Y1094920D01*
X1002540D01*
Y1097460D01*
X1005080D01*
Y1102540D01*
X1002540D01*
Y1105080D01*
X997460D01*
Y1102540D01*
X994920D01*
Y1097460D01*
X997460D01*
Y847460D02*
Y844920D01*
X1002540D01*
Y847460D01*
X1005080D01*
Y852540D01*
X1002540D01*
Y855080D01*
X997460D01*
Y852540D01*
X994920D01*
Y847460D01*
X997460D01*
X947460Y1497460D02*
Y1494920D01*
X952540D01*
Y1497460D01*
X955080D01*
Y1502540D01*
X952540D01*
Y1505080D01*
X947460D01*
Y1502540D01*
X944920D01*
Y1497460D01*
X947460D01*
Y1447460D02*
Y1444920D01*
X952540D01*
Y1447460D01*
X955080D01*
Y1452540D01*
X952540D01*
Y1455080D01*
X947460D01*
Y1452540D01*
X944920D01*
Y1447460D01*
X947460D01*
Y1397460D02*
Y1394920D01*
X952540D01*
Y1397460D01*
X955080D01*
Y1402540D01*
X952540D01*
Y1405080D01*
X947460D01*
Y1402540D01*
X944920D01*
Y1397460D01*
X947460D01*
Y1347460D02*
Y1344920D01*
X952540D01*
Y1347460D01*
X955080D01*
Y1352540D01*
X952540D01*
Y1355080D01*
X947460D01*
Y1352540D01*
X944920D01*
Y1347460D01*
X947460D01*
Y1297460D02*
Y1294920D01*
X952540D01*
Y1297460D01*
X955080D01*
Y1302540D01*
X952540D01*
Y1305080D01*
X947460D01*
Y1302540D01*
X944920D01*
Y1297460D01*
X947460D01*
Y1247460D02*
Y1244920D01*
X952540D01*
Y1247460D01*
X955080D01*
Y1252540D01*
X952540D01*
Y1255080D01*
X947460D01*
Y1252540D01*
X944920D01*
Y1247460D01*
X947460D01*
Y1097460D02*
Y1094920D01*
X952540D01*
Y1097460D01*
X955080D01*
Y1102540D01*
X952540D01*
Y1105080D01*
X947460D01*
Y1102540D01*
X944920D01*
Y1097460D01*
X947460D01*
Y897460D02*
Y894920D01*
X952540D01*
Y897460D01*
X955080D01*
Y902540D01*
X952540D01*
Y905080D01*
X947460D01*
Y902540D01*
X944920D01*
Y897460D01*
X947460D01*
Y847460D02*
Y844920D01*
X952540D01*
Y847460D01*
X955080D01*
Y852540D01*
X952540D01*
Y855080D01*
X947460D01*
Y852540D01*
X944920D01*
Y847460D01*
X947460D01*
X897460Y1497460D02*
Y1494920D01*
X902540D01*
Y1497460D01*
X905080D01*
Y1502540D01*
X902540D01*
Y1505080D01*
X897460D01*
Y1502540D01*
X894920D01*
Y1497460D01*
X897460D01*
Y1447460D02*
Y1444920D01*
X902540D01*
Y1447460D01*
X905080D01*
Y1452540D01*
X902540D01*
Y1455080D01*
X897460D01*
Y1452540D01*
X894920D01*
Y1447460D01*
X897460D01*
Y1397460D02*
Y1394920D01*
X902540D01*
Y1397460D01*
X905080D01*
Y1402540D01*
X902540D01*
Y1405080D01*
X897460D01*
Y1402540D01*
X894920D01*
Y1397460D01*
X897460D01*
Y1347460D02*
Y1344920D01*
X902540D01*
Y1347460D01*
X905080D01*
Y1352540D01*
X902540D01*
Y1355080D01*
X897460D01*
Y1352540D01*
X894920D01*
Y1347460D01*
X897460D01*
Y1297460D02*
Y1294920D01*
X902540D01*
Y1297460D01*
X905080D01*
Y1302540D01*
X902540D01*
Y1305080D01*
X897460D01*
Y1302540D01*
X894920D01*
Y1297460D01*
X897460D01*
Y1247460D02*
Y1244920D01*
X902540D01*
Y1247460D01*
X905080D01*
Y1252540D01*
X902540D01*
Y1255080D01*
X897460D01*
Y1252540D01*
X894920D01*
Y1247460D01*
X897460D01*
Y1197460D02*
Y1194920D01*
X902540D01*
Y1197460D01*
X905080D01*
Y1202540D01*
X902540D01*
Y1205080D01*
X897460D01*
Y1202540D01*
X894920D01*
Y1197460D01*
X897460D01*
Y1147460D02*
Y1144920D01*
X902540D01*
Y1147460D01*
X905080D01*
Y1152540D01*
X902540D01*
Y1155080D01*
X897460D01*
Y1152540D01*
X894920D01*
Y1147460D01*
X897460D01*
Y1097460D02*
Y1094920D01*
X902540D01*
Y1097460D01*
X905080D01*
Y1102540D01*
X902540D01*
Y1105080D01*
X897460D01*
Y1102540D01*
X894920D01*
Y1097460D01*
X897460D01*
Y1047460D02*
Y1044920D01*
X902540D01*
Y1047460D01*
X905080D01*
Y1052540D01*
X902540D01*
Y1055080D01*
X897460D01*
Y1052540D01*
X894920D01*
Y1047460D01*
X897460D01*
Y997460D02*
Y994920D01*
X902540D01*
Y997460D01*
X905080D01*
Y1002540D01*
X902540D01*
Y1005080D01*
X897460D01*
Y1002540D01*
X894920D01*
Y997460D01*
X897460D01*
Y897460D02*
Y894920D01*
X902540D01*
Y897460D01*
X905080D01*
Y902540D01*
X902540D01*
Y905080D01*
X897460D01*
Y902540D01*
X894920D01*
Y897460D01*
X897460D01*
X847460Y1197460D02*
Y1194920D01*
X852540D01*
Y1197460D01*
X855080D01*
Y1202540D01*
X852540D01*
Y1205080D01*
X847460D01*
Y1202540D01*
X844920D01*
Y1197460D01*
X847460D01*
Y1147460D02*
Y1144920D01*
X852540D01*
Y1147460D01*
X855080D01*
Y1152540D01*
X852540D01*
Y1155080D01*
X847460D01*
Y1152540D01*
X844920D01*
Y1147460D01*
X847460D01*
Y1097460D02*
Y1094920D01*
X852540D01*
Y1097460D01*
X855080D01*
Y1102540D01*
X852540D01*
Y1105080D01*
X847460D01*
Y1102540D01*
X844920D01*
Y1097460D01*
X847460D01*
Y1047460D02*
Y1044920D01*
X852540D01*
Y1047460D01*
X855080D01*
Y1052540D01*
X852540D01*
Y1055080D01*
X847460D01*
Y1052540D01*
X844920D01*
Y1047460D01*
X847460D01*
Y997460D02*
Y994920D01*
X852540D01*
Y997460D01*
X855080D01*
Y1002540D01*
X852540D01*
Y1005080D01*
X847460D01*
Y1002540D01*
X844920D01*
Y997460D01*
X847460D01*
Y897460D02*
Y894920D01*
X852540D01*
Y897460D01*
X855080D01*
Y902540D01*
X852540D01*
Y905080D01*
X847460D01*
Y902540D01*
X844920D01*
Y897460D01*
X847460D01*
X797460Y1397460D02*
Y1394920D01*
X802540D01*
Y1397460D01*
X805080D01*
Y1402540D01*
X802540D01*
Y1405080D01*
X797460D01*
Y1402540D01*
X794920D01*
Y1397460D01*
X797460D01*
Y1347460D02*
Y1344920D01*
X802540D01*
Y1347460D01*
X805080D01*
Y1352540D01*
X802540D01*
Y1355080D01*
X797460D01*
Y1352540D01*
X794920D01*
Y1347460D01*
X797460D01*
Y1297460D02*
Y1294920D01*
X802540D01*
Y1297460D01*
X805080D01*
Y1302540D01*
X802540D01*
Y1305080D01*
X797460D01*
Y1302540D01*
X794920D01*
Y1297460D01*
X797460D01*
Y1197460D02*
Y1194920D01*
X802540D01*
Y1197460D01*
X805080D01*
Y1202540D01*
X802540D01*
Y1205080D01*
X797460D01*
Y1202540D01*
X794920D01*
Y1197460D01*
X797460D01*
Y1147460D02*
Y1144920D01*
X802540D01*
Y1147460D01*
X805080D01*
Y1152540D01*
X802540D01*
Y1155080D01*
X797460D01*
Y1152540D01*
X794920D01*
Y1147460D01*
X797460D01*
Y1097460D02*
Y1094920D01*
X802540D01*
Y1097460D01*
X805080D01*
Y1102540D01*
X802540D01*
Y1105080D01*
X797460D01*
Y1102540D01*
X794920D01*
Y1097460D01*
X797460D01*
Y1047460D02*
Y1044920D01*
X802540D01*
Y1047460D01*
X805080D01*
Y1052540D01*
X802540D01*
Y1055080D01*
X797460D01*
Y1052540D01*
X794920D01*
Y1047460D01*
X797460D01*
Y997460D02*
Y994920D01*
X802540D01*
Y997460D01*
X805080D01*
Y1002540D01*
X802540D01*
Y1005080D01*
X797460D01*
Y1002540D01*
X794920D01*
Y997460D01*
X797460D01*
Y897460D02*
Y894920D01*
X802540D01*
Y897460D01*
X805080D01*
Y902540D01*
X802540D01*
Y905080D01*
X797460D01*
Y902540D01*
X794920D01*
Y897460D01*
X797460D01*
X747460Y1497460D02*
Y1494920D01*
X752540D01*
Y1497460D01*
X755080D01*
Y1502540D01*
X752540D01*
Y1505080D01*
X747460D01*
Y1502540D01*
X744920D01*
Y1497460D01*
X747460D01*
Y1447460D02*
Y1444920D01*
X752540D01*
Y1447460D01*
X755080D01*
Y1452540D01*
X752540D01*
Y1455080D01*
X747460D01*
Y1452540D01*
X744920D01*
Y1447460D01*
X747460D01*
Y1397460D02*
Y1394920D01*
X752540D01*
Y1397460D01*
X755080D01*
Y1402540D01*
X752540D01*
Y1405080D01*
X747460D01*
Y1402540D01*
X744920D01*
Y1397460D01*
X747460D01*
Y1347460D02*
Y1344920D01*
X752540D01*
Y1347460D01*
X755080D01*
Y1352540D01*
X752540D01*
Y1355080D01*
X747460D01*
Y1352540D01*
X744920D01*
Y1347460D01*
X747460D01*
Y1297460D02*
Y1294920D01*
X752540D01*
Y1297460D01*
X755080D01*
Y1302540D01*
X752540D01*
Y1305080D01*
X747460D01*
Y1302540D01*
X744920D01*
Y1297460D01*
X747460D01*
Y1197460D02*
Y1194920D01*
X752540D01*
Y1197460D01*
X755080D01*
Y1202540D01*
X752540D01*
Y1205080D01*
X747460D01*
Y1202540D01*
X744920D01*
Y1197460D01*
X747460D01*
Y1147460D02*
Y1144920D01*
X752540D01*
Y1147460D01*
X755080D01*
Y1152540D01*
X752540D01*
Y1155080D01*
X747460D01*
Y1152540D01*
X744920D01*
Y1147460D01*
X747460D01*
Y1097460D02*
Y1094920D01*
X752540D01*
Y1097460D01*
X755080D01*
Y1102540D01*
X752540D01*
Y1105080D01*
X747460D01*
Y1102540D01*
X744920D01*
Y1097460D01*
X747460D01*
Y1047460D02*
Y1044920D01*
X752540D01*
Y1047460D01*
X755080D01*
Y1052540D01*
X752540D01*
Y1055080D01*
X747460D01*
Y1052540D01*
X744920D01*
Y1047460D01*
X747460D01*
Y897460D02*
Y894920D01*
X752540D01*
Y897460D01*
X755080D01*
Y902540D01*
X752540D01*
Y905080D01*
X747460D01*
Y902540D01*
X744920D01*
Y897460D01*
X747460D01*
X697460Y1497460D02*
Y1494920D01*
X702540D01*
Y1497460D01*
X705080D01*
Y1502540D01*
X702540D01*
Y1505080D01*
X697460D01*
Y1502540D01*
X694920D01*
Y1497460D01*
X697460D01*
Y1447460D02*
Y1444920D01*
X702540D01*
Y1447460D01*
X705080D01*
Y1452540D01*
X702540D01*
Y1455080D01*
X697460D01*
Y1452540D01*
X694920D01*
Y1447460D01*
X697460D01*
Y1397460D02*
Y1394920D01*
X702540D01*
Y1397460D01*
X705080D01*
Y1402540D01*
X702540D01*
Y1405080D01*
X697460D01*
Y1402540D01*
X694920D01*
Y1397460D01*
X697460D01*
Y1347460D02*
Y1344920D01*
X702540D01*
Y1347460D01*
X705080D01*
Y1352540D01*
X702540D01*
Y1355080D01*
X697460D01*
Y1352540D01*
X694920D01*
Y1347460D01*
X697460D01*
Y1297460D02*
Y1294920D01*
X702540D01*
Y1297460D01*
X705080D01*
Y1302540D01*
X702540D01*
Y1305080D01*
X697460D01*
Y1302540D01*
X694920D01*
Y1297460D01*
X697460D01*
Y897460D02*
Y894920D01*
X702540D01*
Y897460D01*
X705080D01*
Y902540D01*
X702540D01*
Y905080D01*
X697460D01*
Y902540D01*
X694920D01*
Y897460D01*
X697460D01*
X647460Y1497460D02*
Y1494920D01*
X652540D01*
Y1497460D01*
X655080D01*
Y1502540D01*
X652540D01*
Y1505080D01*
X647460D01*
Y1502540D01*
X644920D01*
Y1497460D01*
X647460D01*
Y1347460D02*
Y1344920D01*
X652540D01*
Y1347460D01*
X655080D01*
Y1352540D01*
X652540D01*
Y1355080D01*
X647460D01*
Y1352540D01*
X644920D01*
Y1347460D01*
X647460D01*
Y947460D02*
Y944920D01*
X652540D01*
Y947460D01*
X655080D01*
Y952540D01*
X652540D01*
Y955080D01*
X647460D01*
Y952540D01*
X644920D01*
Y947460D01*
X647460D01*
X597460Y1247460D02*
Y1244920D01*
X602540D01*
Y1247460D01*
X605080D01*
Y1252540D01*
X602540D01*
Y1255080D01*
X597460D01*
Y1252540D01*
X594920D01*
Y1247460D01*
X597460D01*
X547460Y1497460D02*
Y1494920D01*
X552540D01*
Y1497460D01*
X555080D01*
Y1502540D01*
X552540D01*
Y1505080D01*
X547460D01*
Y1502540D01*
X544920D01*
Y1497460D01*
X547460D01*
Y1197460D02*
Y1194920D01*
X552540D01*
Y1197460D01*
X555080D01*
Y1202540D01*
X552540D01*
Y1205080D01*
X547460D01*
Y1202540D01*
X544920D01*
Y1197460D01*
X547460D01*
Y1147460D02*
Y1144920D01*
X552540D01*
Y1147460D01*
X555080D01*
Y1152540D01*
X552540D01*
Y1155080D01*
X547460D01*
Y1152540D01*
X544920D01*
Y1147460D01*
X547460D01*
Y1097460D02*
Y1094920D01*
X552540D01*
Y1097460D01*
X555080D01*
Y1102540D01*
X552540D01*
Y1105080D01*
X547460D01*
Y1102540D01*
X544920D01*
Y1097460D01*
X547460D01*
X497460Y1497460D02*
Y1494920D01*
X502540D01*
Y1497460D01*
X505080D01*
Y1502540D01*
X502540D01*
Y1505080D01*
X497460D01*
Y1502540D01*
X494920D01*
Y1497460D01*
X497460D01*
Y1247460D02*
Y1244920D01*
X502540D01*
Y1247460D01*
X505080D01*
Y1252540D01*
X502540D01*
Y1255080D01*
X497460D01*
Y1252540D01*
X494920D01*
Y1247460D01*
X497460D01*
Y1197460D02*
Y1194920D01*
X502540D01*
Y1197460D01*
X505080D01*
Y1202540D01*
X502540D01*
Y1205080D01*
X497460D01*
Y1202540D01*
X494920D01*
Y1197460D01*
X497460D01*
Y1147460D02*
Y1144920D01*
X502540D01*
Y1147460D01*
X505080D01*
Y1152540D01*
X502540D01*
Y1155080D01*
X497460D01*
Y1152540D01*
X494920D01*
Y1147460D01*
X497460D01*
Y897460D02*
Y894920D01*
X502540D01*
Y897460D01*
X505080D01*
Y902540D01*
X502540D01*
Y905080D01*
X497460D01*
Y902540D01*
X494920D01*
Y897460D01*
X497460D01*
Y847460D02*
Y844920D01*
X502540D01*
Y847460D01*
X505080D01*
Y852540D01*
X502540D01*
Y855080D01*
X497460D01*
Y852540D01*
X494920D01*
Y847460D01*
X497460D01*
X447460Y1497460D02*
Y1494920D01*
X452540D01*
Y1497460D01*
X455080D01*
Y1502540D01*
X452540D01*
Y1505080D01*
X447460D01*
Y1502540D01*
X444920D01*
Y1497460D01*
X447460D01*
Y1197460D02*
Y1194920D01*
X452540D01*
Y1197460D01*
X455080D01*
Y1202540D01*
X452540D01*
Y1205080D01*
X447460D01*
Y1202540D01*
X444920D01*
Y1197460D01*
X447460D01*
Y1147460D02*
Y1144920D01*
X452540D01*
Y1147460D01*
X455080D01*
Y1152540D01*
X452540D01*
Y1155080D01*
X447460D01*
Y1152540D01*
X444920D01*
Y1147460D01*
X447460D01*
Y897460D02*
Y894920D01*
X452540D01*
Y897460D01*
X455080D01*
Y902540D01*
X452540D01*
Y905080D01*
X447460D01*
Y902540D01*
X444920D01*
Y897460D01*
X447460D01*
Y847460D02*
Y844920D01*
X452540D01*
Y847460D01*
X455080D01*
Y852540D01*
X452540D01*
Y855080D01*
X447460D01*
Y852540D01*
X444920D01*
Y847460D01*
X447460D01*
X397460Y1497460D02*
Y1494920D01*
X402540D01*
Y1497460D01*
X405080D01*
Y1502540D01*
X402540D01*
Y1505080D01*
X397460D01*
Y1502540D01*
X394920D01*
Y1497460D01*
X397460D01*
Y1447460D02*
Y1444920D01*
X402540D01*
Y1447460D01*
X405080D01*
Y1452540D01*
X402540D01*
Y1455080D01*
X397460D01*
Y1452540D01*
X394920D01*
Y1447460D01*
X397460D01*
Y1197460D02*
Y1194920D01*
X402540D01*
Y1197460D01*
X405080D01*
Y1202540D01*
X402540D01*
Y1205080D01*
X397460D01*
Y1202540D01*
X394920D01*
Y1197460D01*
X397460D01*
Y1147460D02*
Y1144920D01*
X402540D01*
Y1147460D01*
X405080D01*
Y1152540D01*
X402540D01*
Y1155080D01*
X397460D01*
Y1152540D01*
X394920D01*
Y1147460D01*
X397460D01*
Y1097460D02*
Y1094920D01*
X402540D01*
Y1097460D01*
X405080D01*
Y1102540D01*
X402540D01*
Y1105080D01*
X397460D01*
Y1102540D01*
X394920D01*
Y1097460D01*
X397460D01*
Y947460D02*
Y944920D01*
X402540D01*
Y947460D01*
X405080D01*
Y952540D01*
X402540D01*
Y955080D01*
X397460D01*
Y952540D01*
X394920D01*
Y947460D01*
X397460D01*
Y897460D02*
Y894920D01*
X402540D01*
Y897460D01*
X405080D01*
Y902540D01*
X402540D01*
Y905080D01*
X397460D01*
Y902540D01*
X394920D01*
Y897460D01*
X397460D01*
Y847460D02*
Y844920D01*
X402540D01*
Y847460D01*
X405080D01*
Y852540D01*
X402540D01*
Y855080D01*
X397460D01*
Y852540D01*
X394920D01*
Y847460D01*
X397460D01*
X347460Y1497460D02*
Y1494920D01*
X352540D01*
Y1497460D01*
X355080D01*
Y1502540D01*
X352540D01*
Y1505080D01*
X347460D01*
Y1502540D01*
X344920D01*
Y1497460D01*
X347460D01*
Y1447460D02*
Y1444920D01*
X352540D01*
Y1447460D01*
X355080D01*
Y1452540D01*
X352540D01*
Y1455080D01*
X347460D01*
Y1452540D01*
X344920D01*
Y1447460D01*
X347460D01*
Y1047460D02*
Y1044920D01*
X352540D01*
Y1047460D01*
X355080D01*
Y1052540D01*
X352540D01*
Y1055080D01*
X347460D01*
Y1052540D01*
X344920D01*
Y1047460D01*
X347460D01*
Y947460D02*
Y944920D01*
X352540D01*
Y947460D01*
X355080D01*
Y952540D01*
X352540D01*
Y955080D01*
X347460D01*
Y952540D01*
X344920D01*
Y947460D01*
X347460D01*
Y897460D02*
Y894920D01*
X352540D01*
Y897460D01*
X355080D01*
Y902540D01*
X352540D01*
Y905080D01*
X347460D01*
Y902540D01*
X344920D01*
Y897460D01*
X347460D01*
Y847460D02*
Y844920D01*
X352540D01*
Y847460D01*
X355080D01*
Y852540D01*
X352540D01*
Y855080D01*
X347460D01*
Y852540D01*
X344920D01*
Y847460D01*
X347460D01*
Y797460D02*
Y794920D01*
X352540D01*
Y797460D01*
X355080D01*
Y802540D01*
X352540D01*
Y805080D01*
X347460D01*
Y802540D01*
X344920D01*
Y797460D01*
X347460D01*
X297460Y1497460D02*
Y1494920D01*
X302540D01*
Y1497460D01*
X305080D01*
Y1502540D01*
X302540D01*
Y1505080D01*
X297460D01*
Y1502540D01*
X294920D01*
Y1497460D01*
X297460D01*
Y1397460D02*
Y1394920D01*
X302540D01*
Y1397460D01*
X305080D01*
Y1402540D01*
X302540D01*
Y1405080D01*
X297460D01*
Y1402540D01*
X294920D01*
Y1397460D01*
X297460D01*
Y1347460D02*
Y1344920D01*
X302540D01*
Y1347460D01*
X305080D01*
Y1352540D01*
X302540D01*
Y1355080D01*
X297460D01*
Y1352540D01*
X294920D01*
Y1347460D01*
X297460D01*
Y1047460D02*
Y1044920D01*
X302540D01*
Y1047460D01*
X305080D01*
Y1052540D01*
X302540D01*
Y1055080D01*
X297460D01*
Y1052540D01*
X294920D01*
Y1047460D01*
X297460D01*
Y797460D02*
Y794920D01*
X302540D01*
Y797460D01*
X305080D01*
Y802540D01*
X302540D01*
Y805080D01*
X297460D01*
Y802540D01*
X294920D01*
Y797460D01*
X297460D01*
Y597460D02*
Y594920D01*
X302540D01*
Y597460D01*
X305080D01*
Y602540D01*
X302540D01*
Y605080D01*
X297460D01*
Y602540D01*
X294920D01*
Y597460D01*
X297460D01*
Y497460D02*
Y494920D01*
X302540D01*
Y497460D01*
X305080D01*
Y502540D01*
X302540D01*
Y505080D01*
X297460D01*
Y502540D01*
X294920D01*
Y497460D01*
X297460D01*
Y447460D02*
Y444920D01*
X302540D01*
Y447460D01*
X305080D01*
Y452540D01*
X302540D01*
Y455080D01*
X297460D01*
Y452540D01*
X294920D01*
Y447460D01*
X297460D01*
X247460Y1497460D02*
Y1494920D01*
X252540D01*
Y1497460D01*
X255080D01*
Y1502540D01*
X252540D01*
Y1505080D01*
X247460D01*
Y1502540D01*
X244920D01*
Y1497460D01*
X247460D01*
Y1397460D02*
Y1394920D01*
X252540D01*
Y1397460D01*
X255080D01*
Y1402540D01*
X252540D01*
Y1405080D01*
X247460D01*
Y1402540D01*
X244920D01*
Y1397460D01*
X247460D01*
Y1347460D02*
Y1344920D01*
X252540D01*
Y1347460D01*
X255080D01*
Y1352540D01*
X252540D01*
Y1355080D01*
X247460D01*
Y1352540D01*
X244920D01*
Y1347460D01*
X247460D01*
Y1047460D02*
Y1044920D01*
X252540D01*
Y1047460D01*
X255080D01*
Y1052540D01*
X252540D01*
Y1055080D01*
X247460D01*
Y1052540D01*
X244920D01*
Y1047460D01*
X247460D01*
Y997460D02*
Y994920D01*
X252540D01*
Y997460D01*
X255080D01*
Y1002540D01*
X252540D01*
Y1005080D01*
X247460D01*
Y1002540D01*
X244920D01*
Y997460D01*
X247460D01*
Y297460D02*
Y294920D01*
X252540D01*
Y297460D01*
X255080D01*
Y302540D01*
X252540D01*
Y305080D01*
X247460D01*
Y302540D01*
X244920D01*
Y297460D01*
X247460D01*
X197460Y1397460D02*
Y1394920D01*
X202540D01*
Y1397460D01*
X205080D01*
Y1402540D01*
X202540D01*
Y1405080D01*
X197460D01*
Y1402540D01*
X194920D01*
Y1397460D01*
X197460D01*
Y1347460D02*
Y1344920D01*
X202540D01*
Y1347460D01*
X205080D01*
Y1352540D01*
X202540D01*
Y1355080D01*
X197460D01*
Y1352540D01*
X194920D01*
Y1347460D01*
X197460D01*
Y1247460D02*
Y1244920D01*
X202540D01*
Y1247460D01*
X205080D01*
Y1252540D01*
X202540D01*
Y1255080D01*
X197460D01*
Y1252540D01*
X194920D01*
Y1247460D01*
X197460D01*
Y1197460D02*
Y1194920D01*
X202540D01*
Y1197460D01*
X205080D01*
Y1202540D01*
X202540D01*
Y1205080D01*
X197460D01*
Y1202540D01*
X194920D01*
Y1197460D01*
X197460D01*
Y1047460D02*
Y1044920D01*
X202540D01*
Y1047460D01*
X205080D01*
Y1052540D01*
X202540D01*
Y1055080D01*
X197460D01*
Y1052540D01*
X194920D01*
Y1047460D01*
X197460D01*
Y547460D02*
Y544920D01*
X202540D01*
Y547460D01*
X205080D01*
Y552540D01*
X202540D01*
Y555080D01*
X197460D01*
Y552540D01*
X194920D01*
Y547460D01*
X197460D01*
Y497460D02*
Y494920D01*
X202540D01*
Y497460D01*
X205080D01*
Y502540D01*
X202540D01*
Y505080D01*
X197460D01*
Y502540D01*
X194920D01*
Y497460D01*
X197460D01*
X97460Y1397460D02*
Y1394920D01*
X102540D01*
Y1397460D01*
X105080D01*
Y1402540D01*
X102540D01*
Y1405080D01*
X97460D01*
Y1402540D01*
X94920D01*
Y1397460D01*
X97460D01*
Y1347460D02*
Y1344920D01*
X102540D01*
Y1347460D01*
X105080D01*
Y1352540D01*
X102540D01*
Y1355080D01*
X97460D01*
Y1352540D01*
X94920D01*
Y1347460D01*
X97460D01*
Y1247460D02*
Y1244920D01*
X102540D01*
Y1247460D01*
X105080D01*
Y1252540D01*
X102540D01*
Y1255080D01*
X97460D01*
Y1252540D01*
X94920D01*
Y1247460D01*
X97460D01*
Y1197460D02*
Y1194920D01*
X102540D01*
Y1197460D01*
X105080D01*
Y1202540D01*
X102540D01*
Y1205080D01*
X97460D01*
Y1202540D01*
X94920D01*
Y1197460D01*
X97460D01*
Y1147460D02*
Y1144920D01*
X102540D01*
Y1147460D01*
X105080D01*
Y1152540D01*
X102540D01*
Y1155080D01*
X97460D01*
Y1152540D01*
X94920D01*
Y1147460D01*
X97460D01*
Y1097460D02*
Y1094920D01*
X102540D01*
Y1097460D01*
X105080D01*
Y1102540D01*
X102540D01*
Y1105080D01*
X97460D01*
Y1102540D01*
X94920D01*
Y1097460D01*
X97460D01*
Y1047460D02*
Y1044920D01*
X102540D01*
Y1047460D01*
X105080D01*
Y1052540D01*
X102540D01*
Y1055080D01*
X97460D01*
Y1052540D01*
X94920D01*
Y1047460D01*
X97460D01*
Y997460D02*
Y994920D01*
X102540D01*
Y997460D01*
X105080D01*
Y1002540D01*
X102540D01*
Y1005080D01*
X97460D01*
Y1002540D01*
X94920D01*
Y997460D01*
X97460D01*
Y947460D02*
Y944920D01*
X102540D01*
Y947460D01*
X105080D01*
Y952540D01*
X102540D01*
Y955080D01*
X97460D01*
Y952540D01*
X94920D01*
Y947460D01*
X97460D01*
Y897460D02*
Y894920D01*
X102540D01*
Y897460D01*
X105080D01*
Y902540D01*
X102540D01*
Y905080D01*
X97460D01*
Y902540D01*
X94920D01*
Y897460D01*
X97460D01*
Y847460D02*
Y844920D01*
X102540D01*
Y847460D01*
X105080D01*
Y852540D01*
X102540D01*
Y855080D01*
X97460D01*
Y852540D01*
X94920D01*
Y847460D01*
X97460D01*
Y797460D02*
Y794920D01*
X102540D01*
Y797460D01*
X105080D01*
Y802540D01*
X102540D01*
Y805080D01*
X97460D01*
Y802540D01*
X94920D01*
Y797460D01*
X97460D01*
Y547460D02*
Y544920D01*
X102540D01*
Y547460D01*
X105080D01*
Y552540D01*
X102540D01*
Y555080D01*
X97460D01*
Y552540D01*
X94920D01*
Y547460D01*
X97460D01*
Y397460D02*
Y394920D01*
X102540D01*
Y397460D01*
X105080D01*
Y402540D01*
X102540D01*
Y405080D01*
X97460D01*
Y402540D01*
X94920D01*
Y397460D01*
X97460D01*
Y347460D02*
Y344920D01*
X102540D01*
Y347460D01*
X105080D01*
Y352540D01*
X102540D01*
Y355080D01*
X97460D01*
Y352540D01*
X94920D01*
Y347460D01*
X97460D01*
Y297460D02*
Y294920D01*
X102540D01*
Y297460D01*
X105080D01*
Y302540D01*
X102540D01*
Y305080D01*
X97460D01*
Y302540D01*
X94920D01*
Y297460D01*
X97460D01*
X210820Y684530D02*
X213360D01*
X215900Y687070D01*
X218440Y684530D01*
X220980D01*
Y687070D01*
X218440Y689610D01*
X220980Y692150D01*
Y694690D01*
X218440D01*
X215900Y692150D01*
X213360Y694690D01*
X210820D01*
Y692150D01*
X213360Y689610D01*
X210820Y687070D01*
Y684530D01*
Y699135D02*
X213360D01*
X215900Y701675D01*
X218440Y699135D01*
X220980D01*
Y701675D01*
X218440Y704215D01*
X220980Y706755D01*
Y709295D01*
X218440D01*
X215900Y706755D01*
X213360Y709295D01*
X210820D01*
Y706755D01*
X213360Y704215D01*
X210820Y701675D01*
Y699135D01*
Y713740D02*
X213360D01*
X215900Y716280D01*
X218440Y713740D01*
X220980D01*
Y716280D01*
X218440Y718820D01*
X220980Y721360D01*
Y723900D01*
X218440D01*
X215900Y721360D01*
X213360Y723900D01*
X210820D01*
Y721360D01*
X213360Y718820D01*
X210820Y716280D01*
Y713740D01*
X774700Y990600D02*
X777240D01*
X779780Y993140D01*
X782320Y990600D01*
X784860D01*
Y993140D01*
X782320Y995680D01*
X784860Y998220D01*
Y1000760D01*
X782320D01*
X779780Y998220D01*
X777240Y1000760D01*
X774700D01*
Y998220D01*
X777240Y995680D01*
X774700Y993140D01*
Y990600D01*
X156210Y1311910D02*
X158750D01*
X161290Y1314450D01*
X163830Y1311910D01*
X166370D01*
Y1314450D01*
X163830Y1316990D01*
X166370Y1319530D01*
Y1322070D01*
X163830D01*
X161290Y1319530D01*
X158750Y1322070D01*
X156210D01*
Y1319530D01*
X158750Y1316990D01*
X156210Y1314450D01*
Y1311910D01*
X448280Y1247375D02*
X450820D01*
X453360Y1249915D01*
X455900Y1247375D01*
X458440D01*
Y1249915D01*
X455900Y1252456D01*
X458440Y1254995D01*
Y1257535D01*
X455900D01*
X453360Y1254995D01*
X450820Y1257535D01*
X448280D01*
Y1254995D01*
X450820Y1252456D01*
X448280Y1249915D01*
Y1247375D01*
X546100Y1046480D02*
X548640D01*
X551180Y1049020D01*
X553720Y1046480D01*
X556260D01*
Y1049020D01*
X553720Y1051560D01*
X556260Y1054100D01*
Y1056640D01*
X553720D01*
X551180Y1054100D01*
X548640Y1056640D01*
X546100D01*
Y1054100D01*
X548640Y1051560D01*
X546100Y1049020D01*
Y1046480D01*
X593090Y873595D02*
X595630D01*
X598170Y876135D01*
X600710Y873595D01*
X603250D01*
Y876135D01*
X600710Y878675D01*
X603250Y881215D01*
Y883755D01*
X600710D01*
X598170Y881215D01*
X595630Y883755D01*
X593090D01*
Y881215D01*
X595630Y878675D01*
X593090Y876135D01*
Y873595D01*
Y893749D02*
X595630D01*
X598170Y896289D01*
X600710Y893749D01*
X603250D01*
Y896289D01*
X600710Y898829D01*
X603250Y901369D01*
Y903909D01*
X600710D01*
X598170Y901369D01*
X595630Y903909D01*
X593090D01*
Y901369D01*
X595630Y898829D01*
X593090Y896289D01*
Y893749D01*
Y853440D02*
X595630D01*
X598170Y855980D01*
X600710Y853440D01*
X603250D01*
Y855980D01*
X600710Y858520D01*
X603250Y861060D01*
Y863600D01*
X600710D01*
X598170Y861060D01*
X595630Y863600D01*
X593090D01*
Y861060D01*
X595630Y858520D01*
X593090Y855980D01*
Y853440D01*
X302260Y1066800D02*
X304800D01*
X307340Y1069340D01*
X309880Y1066800D01*
X312420D01*
Y1069340D01*
X309880Y1071880D01*
X312420Y1074420D01*
Y1076960D01*
X309880D01*
X307340Y1074420D01*
X304800Y1076960D01*
X302260D01*
Y1074420D01*
X304800Y1071880D01*
X302260Y1069340D01*
Y1066800D01*
X355392Y1147089D02*
X357932D01*
X360472Y1149629D01*
X363012Y1147089D01*
X365552D01*
Y1149629D01*
X363012Y1152169D01*
X365552Y1154709D01*
Y1157249D01*
X363012D01*
X360472Y1154709D01*
X357932Y1157249D01*
X355392D01*
Y1154709D01*
X357932Y1152169D01*
X355392Y1149629D01*
Y1147089D01*
X325120Y1264469D02*
X327660D01*
X330200Y1267009D01*
X332740Y1264469D01*
X335280D01*
Y1267009D01*
X332740Y1269548D01*
X335280Y1272088D01*
Y1274629D01*
X332740D01*
X330200Y1272088D01*
X327660Y1274629D01*
X325120D01*
Y1272088D01*
X327660Y1269548D01*
X325120Y1267009D01*
Y1264469D01*
X566420Y1238250D02*
X568960D01*
X571500Y1240790D01*
X574040Y1238250D01*
X576580D01*
Y1240790D01*
X574040Y1243330D01*
X576580Y1245870D01*
Y1248410D01*
X574040D01*
X571500Y1245870D01*
X568960Y1248410D01*
X566420D01*
Y1245870D01*
X568960Y1243330D01*
X566420Y1240790D01*
Y1238250D01*
X687704Y1015100D02*
X690244D01*
X692784Y1017640D01*
X695324Y1015100D01*
X697864D01*
Y1017640D01*
X695324Y1020180D01*
X697864Y1022720D01*
Y1025260D01*
X695324D01*
X692784Y1022720D01*
X690244Y1025260D01*
X687704D01*
Y1022720D01*
X690244Y1020180D01*
X687704Y1017640D01*
Y1015100D01*
X666596Y1016065D02*
X669136D01*
X671676Y1018605D01*
X674216Y1016065D01*
X676756D01*
Y1018605D01*
X674216Y1021145D01*
X676756Y1023685D01*
Y1026225D01*
X674216D01*
X671676Y1023685D01*
X669136Y1026225D01*
X666596D01*
Y1023685D01*
X669136Y1021145D01*
X666596Y1018605D01*
Y1016065D01*
X640080Y1057910D02*
X642620D01*
X645160Y1060450D01*
X647700Y1057910D01*
X650240D01*
Y1060450D01*
X647700Y1062990D01*
X650240Y1065530D01*
Y1068070D01*
X647700D01*
X645160Y1065530D01*
X642620Y1068070D01*
X640080D01*
Y1065530D01*
X642620Y1062990D01*
X640080Y1060450D01*
Y1057910D01*
X621030Y1069340D02*
X623570D01*
X626110Y1071880D01*
X628650Y1069340D01*
X631190D01*
Y1071880D01*
X628650Y1074420D01*
X631190Y1076960D01*
Y1079500D01*
X628650D01*
X626110Y1076960D01*
X623570Y1079500D01*
X621030D01*
Y1076960D01*
X623570Y1074420D01*
X621030Y1071880D01*
Y1069340D01*
X931509Y928370D02*
X934049D01*
X936589Y930910D01*
X939129Y928370D01*
X941669D01*
Y930910D01*
X939129Y933450D01*
X941669Y935990D01*
Y938530D01*
X939129D01*
X936589Y935990D01*
X934049Y938530D01*
X931509D01*
Y935990D01*
X934049Y933450D01*
X931509Y930910D01*
Y928370D01*
Y951927D02*
X934049D01*
X936589Y954467D01*
X939129Y951927D01*
X941669D01*
Y954467D01*
X939129Y957007D01*
X941669Y959547D01*
Y962087D01*
X939129D01*
X936589Y959547D01*
X934049Y962087D01*
X931509D01*
Y959547D01*
X934049Y957007D01*
X931509Y954467D01*
Y951927D01*
D134*
X316230Y313690D02*
G03*
X316230Y313690I-5080J0D01*
G01*
X1013460Y1489710D02*
G03*
X1013460Y1489710I-5080J0D01*
G01*
X115570Y1488440D02*
G03*
X115570Y1488440I-5080J0D01*
G01*
X391160Y1408430D02*
G03*
X391160Y1408430I-5080J0D01*
G01*
Y1383030D02*
G03*
X391160Y1383030I-5080J0D01*
G01*
Y1357630D02*
G03*
X391160Y1357630I-5080J0D01*
G01*
D135*
X314198Y313690D02*
G03*
X314198Y313690I-3048J0D01*
G01*
X1011428Y1489710D02*
G03*
X1011428Y1489710I-3048J0D01*
G01*
X113538Y1488440D02*
G03*
X113538Y1488440I-3048J0D01*
G01*
M02*
