G04*
G04 #@! TF.GenerationSoftware,Altium Limited,Altium Designer,24.2.2 (26)*
G04*
G04 Layer_Color=32896*
%FSLAX44Y44*%
%MOMM*%
G71*
G04*
G04 #@! TF.SameCoordinates,8F8C662E-78E3-4B19-825C-435B122D3AAE*
G04*
G04*
G04 #@! TF.FilePolarity,Positive*
G04*
G01*
G75*
%ADD10C,0.2500*%
%ADD14C,0.2000*%
%ADD19C,0.5000*%
%ADD20C,0.2540*%
G36*
X511898Y766648D02*
X512157D01*
Y766131D01*
X512416D01*
Y765872D01*
X512675D01*
Y765354D01*
X512934D01*
Y765095D01*
Y764836D01*
X513193D01*
Y764318D01*
X513451D01*
Y764059D01*
X513710D01*
Y763283D01*
X513451D01*
Y762765D01*
X513193D01*
Y762506D01*
X512934D01*
Y761988D01*
X512675D01*
Y761471D01*
X512416D01*
Y760953D01*
X512157D01*
Y760694D01*
X511898D01*
Y760176D01*
X508015D01*
Y760435D01*
X507756D01*
Y760953D01*
X507497D01*
Y761212D01*
X507238D01*
Y761730D01*
X506980D01*
Y762247D01*
X506721D01*
Y762765D01*
X506462D01*
Y763024D01*
X506203D01*
Y763542D01*
X505944D01*
Y763801D01*
X506203D01*
Y764059D01*
X506462D01*
Y764577D01*
X506721D01*
Y765095D01*
X506980D01*
Y765354D01*
X507238D01*
Y765872D01*
X507497D01*
Y766389D01*
X507756D01*
Y766907D01*
X511898D01*
Y766648D01*
D02*
G37*
G36*
X425174D02*
X425433D01*
Y766131D01*
X425692D01*
Y765613D01*
X425951D01*
Y765354D01*
X426210D01*
Y764836D01*
X426469D01*
Y764318D01*
X426727D01*
Y764059D01*
X426986D01*
Y763283D01*
X426727D01*
Y762765D01*
X426469D01*
Y762506D01*
X426210D01*
Y761988D01*
X425951D01*
Y761471D01*
X425692D01*
Y760953D01*
X425433D01*
Y760694D01*
X425174D01*
Y760176D01*
X421291D01*
Y760435D01*
X421032D01*
Y760953D01*
X420773D01*
Y761212D01*
X420514D01*
Y761730D01*
X420255D01*
Y762247D01*
X419997D01*
Y762765D01*
X419738D01*
Y763024D01*
X419479D01*
Y763542D01*
X419220D01*
Y763801D01*
X419479D01*
Y764059D01*
X419738D01*
Y764577D01*
X419997D01*
Y765095D01*
X420255D01*
Y765354D01*
X420514D01*
Y765872D01*
X420773D01*
Y766389D01*
X421032D01*
Y766907D01*
X425174D01*
Y766648D01*
D02*
G37*
G36*
X476950Y754999D02*
X474879D01*
Y767684D01*
X474620D01*
Y766907D01*
X474361D01*
Y766131D01*
X474102D01*
Y765354D01*
X473843D01*
Y764577D01*
X473584D01*
Y764318D01*
Y764059D01*
X473325D01*
Y763283D01*
X473066D01*
Y762506D01*
X472808D01*
Y761730D01*
X472549D01*
Y760953D01*
X472290D01*
Y760435D01*
X472031D01*
Y759659D01*
X471772D01*
Y758882D01*
X471513D01*
Y758105D01*
X471254D01*
Y757329D01*
X470995D01*
Y756552D01*
X470737D01*
Y756034D01*
X470478D01*
Y755258D01*
X470219D01*
Y754999D01*
X467630D01*
Y772344D01*
X469701D01*
Y759659D01*
X469960D01*
Y759917D01*
X470219D01*
Y760694D01*
X470478D01*
Y761471D01*
X470737D01*
Y762247D01*
X470995D01*
Y762765D01*
X471254D01*
Y763542D01*
X471513D01*
Y764318D01*
X471772D01*
Y765095D01*
X472031D01*
Y765872D01*
X472290D01*
Y766389D01*
X472549D01*
Y767166D01*
X472808D01*
Y767943D01*
X473066D01*
Y768719D01*
X473325D01*
Y769496D01*
X473584D01*
Y770014D01*
X473843D01*
Y770790D01*
X474102D01*
Y771567D01*
X474361D01*
Y772344D01*
X476950D01*
Y754999D01*
D02*
G37*
G36*
X461417Y772085D02*
X462194D01*
Y771826D01*
X462711D01*
Y771567D01*
X462970D01*
Y771308D01*
X463229D01*
Y771049D01*
X463488D01*
Y770790D01*
X463747D01*
Y770531D01*
X464006D01*
Y770273D01*
X464265D01*
Y769755D01*
X464524D01*
Y769237D01*
X464782D01*
Y768719D01*
X465041D01*
Y767684D01*
X465300D01*
Y766648D01*
X465559D01*
Y763801D01*
X465818D01*
Y763024D01*
X465559D01*
Y759917D01*
X465300D01*
Y758882D01*
X465041D01*
Y758105D01*
X464782D01*
Y757588D01*
X464524D01*
Y757070D01*
X464265D01*
Y756552D01*
X464006D01*
Y756293D01*
X463747D01*
Y756034D01*
X463488D01*
Y755775D01*
X463229D01*
Y755517D01*
X462970D01*
Y755258D01*
X462194D01*
Y754999D01*
X459864D01*
Y755258D01*
X459346D01*
Y755517D01*
X458828D01*
Y755775D01*
X458569D01*
Y756034D01*
X458311D01*
Y756293D01*
X458052D01*
Y755517D01*
X457793D01*
Y754999D01*
X456240D01*
Y755517D01*
Y755775D01*
Y764318D01*
X460899D01*
Y762765D01*
X458052D01*
Y759659D01*
X458311D01*
Y758623D01*
X458569D01*
Y758105D01*
X458828D01*
Y757588D01*
X459087D01*
Y757329D01*
X459346D01*
Y757070D01*
X459864D01*
Y756811D01*
X461676D01*
Y757070D01*
X461935D01*
Y757329D01*
X462194D01*
Y757588D01*
X462453D01*
Y757846D01*
X462711D01*
Y758364D01*
X462970D01*
Y759141D01*
X463229D01*
Y760176D01*
X463488D01*
Y763542D01*
X463747D01*
Y763801D01*
X463488D01*
Y766389D01*
X463229D01*
Y767425D01*
X462970D01*
Y768202D01*
X462711D01*
Y768719D01*
X462453D01*
Y769237D01*
X462194D01*
Y769755D01*
X461935D01*
Y770014D01*
X461676D01*
Y770273D01*
X461417D01*
Y770531D01*
X460640D01*
Y770790D01*
X460382D01*
Y770531D01*
X459605D01*
Y770273D01*
X459087D01*
Y770014D01*
X458828D01*
Y769496D01*
X458569D01*
Y768719D01*
X458311D01*
Y766907D01*
X456240D01*
Y768202D01*
X456498D01*
Y769496D01*
X456757D01*
Y770014D01*
X457016D01*
Y770531D01*
X457275D01*
Y771049D01*
X457534D01*
Y771308D01*
X457793D01*
Y771567D01*
X458311D01*
Y771826D01*
X458569D01*
Y772085D01*
X459346D01*
Y772344D01*
X461417D01*
Y772085D01*
D02*
G37*
G36*
X499731Y766131D02*
Y765872D01*
Y754999D01*
X495071D01*
Y755258D01*
X494295D01*
Y755517D01*
X493518D01*
Y755775D01*
X493259D01*
Y756034D01*
X492741D01*
Y756293D01*
X492482D01*
Y756552D01*
X492224D01*
Y756811D01*
X491965D01*
Y757070D01*
X491706D01*
Y757588D01*
X491447D01*
Y757846D01*
X491188D01*
Y758623D01*
X490929D01*
Y759400D01*
X490670D01*
Y760694D01*
X490411D01*
Y766648D01*
X490670D01*
Y767943D01*
X490929D01*
Y768460D01*
X491188D01*
Y769237D01*
X491447D01*
Y769755D01*
X491706D01*
Y770014D01*
X491965D01*
Y770531D01*
X492224D01*
Y770790D01*
X492482D01*
Y771049D01*
X492741D01*
Y771308D01*
X493259D01*
Y771567D01*
X493777D01*
Y771826D01*
X494295D01*
Y772085D01*
X495330D01*
Y772344D01*
X499731D01*
Y766131D01*
D02*
G37*
G36*
X484716Y771567D02*
X484975D01*
Y770531D01*
X485234D01*
Y769496D01*
X485493D01*
Y768460D01*
X485752D01*
Y767425D01*
X486011D01*
Y766389D01*
X486269D01*
Y765613D01*
X486528D01*
Y764318D01*
X486787D01*
Y763542D01*
X487046D01*
Y762506D01*
X487305D01*
Y761471D01*
X487564D01*
Y760435D01*
X487823D01*
Y759400D01*
X488082D01*
Y758364D01*
X488340D01*
Y757329D01*
X488599D01*
Y756293D01*
X488858D01*
Y755517D01*
X489117D01*
Y754999D01*
X486787D01*
Y756034D01*
X486528D01*
Y757070D01*
X486269D01*
Y758105D01*
X486011D01*
Y759141D01*
X485752D01*
Y759917D01*
X481609D01*
Y758882D01*
X481351D01*
Y757846D01*
X481092D01*
Y756811D01*
X480833D01*
Y755775D01*
X480574D01*
Y754999D01*
X478503D01*
Y756034D01*
X478762D01*
Y757070D01*
X479021D01*
Y758105D01*
X479280D01*
Y759141D01*
X479538D01*
Y759917D01*
X479797D01*
Y761212D01*
X480056D01*
Y761988D01*
X480315D01*
Y763024D01*
X480574D01*
Y763283D01*
Y763542D01*
Y764059D01*
X480833D01*
Y765095D01*
X481092D01*
Y766131D01*
X481351D01*
Y767166D01*
X481609D01*
Y768202D01*
X481868D01*
Y769237D01*
X482127D01*
Y770014D01*
X482386D01*
Y771049D01*
X482645D01*
Y772344D01*
X484716D01*
Y771567D01*
D02*
G37*
G36*
X453910Y754999D02*
X444590D01*
Y756552D01*
X451580D01*
Y756811D01*
X451839D01*
Y763283D01*
X445625D01*
Y765095D01*
X451839D01*
Y770531D01*
X451580D01*
Y770790D01*
X445108D01*
Y772344D01*
X453910D01*
Y754999D01*
D02*
G37*
G36*
X442519Y772085D02*
Y754999D01*
X440448D01*
Y763024D01*
X438118D01*
Y762765D01*
X437859D01*
Y761988D01*
X437600D01*
Y761471D01*
X437341D01*
Y760694D01*
X437082D01*
Y759917D01*
X436824D01*
Y759400D01*
X436565D01*
Y758623D01*
X436306D01*
Y757846D01*
X436047D01*
Y757329D01*
X435788D01*
Y756552D01*
X435529D01*
Y755775D01*
X435270D01*
Y755258D01*
X435011D01*
Y754999D01*
X432940D01*
Y755517D01*
X433199D01*
Y756034D01*
X433458D01*
Y756811D01*
X433717D01*
Y757588D01*
X433976D01*
Y758105D01*
X434235D01*
Y758882D01*
X434494D01*
Y759400D01*
X434753D01*
Y760176D01*
X435011D01*
Y760953D01*
X435270D01*
Y761471D01*
X435529D01*
Y762247D01*
X435788D01*
Y762765D01*
X436047D01*
Y763283D01*
X435788D01*
Y763542D01*
X435270D01*
Y763801D01*
X435011D01*
Y764059D01*
X434753D01*
Y764318D01*
X434494D01*
Y764577D01*
X434235D01*
Y764836D01*
X433976D01*
Y765354D01*
X433717D01*
Y765872D01*
X433458D01*
Y767166D01*
X433199D01*
Y768202D01*
X433458D01*
Y769496D01*
X433717D01*
Y770014D01*
X433976D01*
Y770531D01*
X434235D01*
Y770790D01*
X434494D01*
Y771049D01*
X434753D01*
Y771308D01*
X435011D01*
Y771567D01*
X435529D01*
Y771826D01*
X436047D01*
Y772085D01*
X436824D01*
Y772344D01*
X442519D01*
Y772085D01*
D02*
G37*
G36*
X438636Y748527D02*
X439671D01*
Y748268D01*
X440448D01*
Y748009D01*
X440966D01*
Y747750D01*
X441225D01*
Y747491D01*
X441742D01*
Y747232D01*
X442001D01*
Y746973D01*
X442260D01*
Y746715D01*
X442519D01*
Y746456D01*
X442778D01*
Y746197D01*
X443037D01*
Y745938D01*
X443296D01*
Y745420D01*
X443554D01*
Y745161D01*
X443813D01*
Y744644D01*
X444072D01*
Y744385D01*
X444331D01*
Y743867D01*
X444590D01*
Y743349D01*
X444849D01*
Y743090D01*
X445108D01*
Y742573D01*
X445367D01*
Y741796D01*
X445625D01*
Y741278D01*
X445884D01*
Y741019D01*
X446143D01*
Y740760D01*
X446402D01*
Y740243D01*
X446661D01*
Y739984D01*
X446920D01*
Y739725D01*
X447179D01*
Y739207D01*
X447438D01*
Y738948D01*
X447696D01*
Y738430D01*
X447955D01*
Y738172D01*
X448473D01*
Y737913D01*
X448732D01*
Y737654D01*
X448991D01*
Y736877D01*
X448732D01*
Y736359D01*
X448473D01*
Y735583D01*
X448214D01*
Y734806D01*
X447955D01*
Y733771D01*
X447696D01*
Y731959D01*
X446661D01*
Y732217D01*
X446143D01*
Y732476D01*
X445367D01*
Y732735D01*
X444590D01*
Y732994D01*
X443554D01*
Y733253D01*
X443037D01*
Y732994D01*
X442778D01*
Y732735D01*
X442519D01*
Y732476D01*
X442260D01*
Y732217D01*
X442001D01*
Y731959D01*
X441742D01*
Y731700D01*
X441483D01*
Y731441D01*
X440966D01*
Y731182D01*
X440707D01*
Y730923D01*
X440448D01*
Y730664D01*
X440189D01*
Y730405D01*
X439671D01*
Y730146D01*
X439412D01*
Y729887D01*
X439154D01*
Y729629D01*
X438636D01*
Y729370D01*
X438118D01*
Y729111D01*
X437859D01*
Y728852D01*
X437082D01*
Y728593D01*
X436306D01*
Y728334D01*
X434235D01*
Y728593D01*
X433717D01*
Y728852D01*
X433199D01*
Y729111D01*
X432940D01*
Y729629D01*
X432682D01*
Y729887D01*
X432423D01*
Y730664D01*
X432164D01*
Y731441D01*
X431905D01*
Y733771D01*
X432164D01*
Y734547D01*
X432423D01*
Y735065D01*
X432682D01*
Y735324D01*
X432940D01*
Y735842D01*
X433199D01*
Y736101D01*
X433458D01*
Y736359D01*
X433717D01*
Y736618D01*
X433976D01*
Y736877D01*
X434235D01*
Y737136D01*
X434753D01*
Y737395D01*
X435011D01*
Y737654D01*
X435270D01*
Y737913D01*
X435788D01*
Y738172D01*
X436047D01*
Y738689D01*
X435788D01*
Y738948D01*
X435529D01*
Y739207D01*
X435270D01*
Y739725D01*
X435011D01*
Y739984D01*
X434753D01*
Y740502D01*
X434494D01*
Y740760D01*
X434235D01*
Y741278D01*
X433976D01*
Y741796D01*
X433717D01*
Y742314D01*
X433458D01*
Y742831D01*
X433199D01*
Y743867D01*
X432940D01*
Y745679D01*
X433199D01*
Y746456D01*
X433458D01*
Y746715D01*
X433717D01*
Y746973D01*
X433976D01*
Y747232D01*
X434235D01*
Y747491D01*
X434494D01*
Y747750D01*
X435011D01*
Y748009D01*
X435529D01*
Y748268D01*
X436306D01*
Y748527D01*
X437341D01*
Y748786D01*
X438636D01*
Y748527D01*
D02*
G37*
G36*
X494036Y749045D02*
X495330D01*
Y748786D01*
X496107D01*
Y748527D01*
X496624D01*
Y748268D01*
X496883D01*
Y748009D01*
X497401D01*
Y747750D01*
X497660D01*
Y747491D01*
X497919D01*
Y747232D01*
X498178D01*
Y746715D01*
X498437D01*
Y745938D01*
X498695D01*
Y744644D01*
X498437D01*
Y743608D01*
X498178D01*
Y742831D01*
X497919D01*
Y742314D01*
X497660D01*
Y741796D01*
X497401D01*
Y741278D01*
X497142D01*
Y741019D01*
X496883D01*
Y740502D01*
X496624D01*
Y740243D01*
X496366D01*
Y739984D01*
X496107D01*
Y739466D01*
X495848D01*
Y739207D01*
X495589D01*
Y738948D01*
X495330D01*
Y738689D01*
X495589D01*
Y738430D01*
X496107D01*
Y738172D01*
X496624D01*
Y737913D01*
X496883D01*
Y737654D01*
X497142D01*
Y737395D01*
X497401D01*
Y737136D01*
X497660D01*
Y736877D01*
X498178D01*
Y736618D01*
X498437D01*
Y736101D01*
X498695D01*
Y735842D01*
X498954D01*
Y735324D01*
X499213D01*
Y734806D01*
X499472D01*
Y734030D01*
X499731D01*
Y732217D01*
X499472D01*
Y731182D01*
X499213D01*
Y730664D01*
X498954D01*
Y730146D01*
X498695D01*
Y729887D01*
X498437D01*
Y729629D01*
X498178D01*
Y729370D01*
X497919D01*
Y729111D01*
X497401D01*
Y728852D01*
X495071D01*
Y729111D01*
X494295D01*
Y729370D01*
X493777D01*
Y729629D01*
X493259D01*
Y729887D01*
X492741D01*
Y730146D01*
X492482D01*
Y730405D01*
X492224D01*
Y730664D01*
X491706D01*
Y730923D01*
X491447D01*
Y731182D01*
X491188D01*
Y731441D01*
X490670D01*
Y731700D01*
X490411D01*
Y731959D01*
X490153D01*
Y732217D01*
X489894D01*
Y732476D01*
X489635D01*
Y732735D01*
X489376D01*
Y732994D01*
X488858D01*
Y732735D01*
X487823D01*
Y732476D01*
X487046D01*
Y732217D01*
X486528D01*
Y731959D01*
X485752D01*
Y731700D01*
X485234D01*
Y732217D01*
X484975D01*
Y733771D01*
X484716D01*
Y734806D01*
X484457D01*
Y735583D01*
X484198D01*
Y736359D01*
X483939D01*
Y737136D01*
X483681D01*
Y737395D01*
X483422D01*
Y737654D01*
X483681D01*
Y737913D01*
X484198D01*
Y738172D01*
X484457D01*
Y738430D01*
X484716D01*
Y738948D01*
X484975D01*
Y739725D01*
X485234D01*
Y740760D01*
X485493D01*
Y741278D01*
X485752D01*
Y742055D01*
X486011D01*
Y742573D01*
X486269D01*
Y743090D01*
X486528D01*
Y743608D01*
X486787D01*
Y744126D01*
X487046D01*
Y744644D01*
X487305D01*
Y744902D01*
X487564D01*
Y745420D01*
X487823D01*
Y745679D01*
X488082D01*
Y746197D01*
X488340D01*
Y746456D01*
X488599D01*
Y746715D01*
X488858D01*
Y746973D01*
X489117D01*
Y747232D01*
X489376D01*
Y747491D01*
X489635D01*
Y747750D01*
X489894D01*
Y748009D01*
X490411D01*
Y748268D01*
X490670D01*
Y748527D01*
X491188D01*
Y748786D01*
X491965D01*
Y749045D01*
X493259D01*
Y749303D01*
X494036D01*
Y749045D01*
D02*
G37*
G36*
X401357Y756034D02*
X401875D01*
Y755775D01*
X402393D01*
Y755517D01*
X402652D01*
Y755258D01*
X403170D01*
Y754999D01*
X403687D01*
Y754740D01*
X403946D01*
Y754481D01*
X404464D01*
Y754222D01*
X404982D01*
Y753963D01*
X405499D01*
Y753704D01*
X405758D01*
Y753445D01*
X406276D01*
Y753187D01*
X406794D01*
Y752928D01*
X407053D01*
Y752669D01*
X407570D01*
Y752410D01*
X408088D01*
Y752151D01*
X408606D01*
Y751892D01*
X408865D01*
Y751633D01*
X409383D01*
Y751374D01*
X409900D01*
Y751115D01*
X410418D01*
Y750857D01*
X410677D01*
Y750598D01*
X411195D01*
Y750339D01*
X411712D01*
Y750080D01*
X411971D01*
Y749821D01*
X412489D01*
Y749562D01*
X413007D01*
Y749303D01*
X413525D01*
Y749045D01*
X413783D01*
Y748786D01*
X414301D01*
Y748527D01*
X414819D01*
Y748268D01*
X415078D01*
Y748009D01*
X415596D01*
Y747750D01*
X416113D01*
Y747491D01*
X416372D01*
Y747232D01*
X416890D01*
Y746973D01*
X417408D01*
Y746715D01*
X417925D01*
Y746197D01*
X418184D01*
Y745679D01*
X418443D01*
Y745161D01*
X418702D01*
Y744644D01*
X418961D01*
Y744126D01*
X419220D01*
Y743608D01*
X419479D01*
Y743090D01*
X419738D01*
Y742573D01*
X419997D01*
Y742055D01*
X420255D01*
Y741278D01*
X420514D01*
Y741019D01*
X420773D01*
Y740243D01*
X421032D01*
Y739725D01*
X421291D01*
Y739207D01*
X421550D01*
Y738689D01*
X421809D01*
Y738172D01*
X422068D01*
Y737654D01*
X422327D01*
Y737136D01*
X422585D01*
Y736618D01*
X422844D01*
Y736101D01*
X423103D01*
Y735583D01*
X423362D01*
Y735065D01*
X423621D01*
Y734547D01*
X423880D01*
Y734030D01*
X424139D01*
Y733512D01*
X424398D01*
Y732994D01*
X424656D01*
Y732476D01*
X424915D01*
Y731959D01*
X425174D01*
Y731441D01*
X425433D01*
Y730923D01*
X425692D01*
Y730405D01*
X425951D01*
Y729887D01*
X426210D01*
Y729370D01*
X426469D01*
Y728852D01*
X426727D01*
Y728334D01*
X426986D01*
Y727816D01*
X427245D01*
Y727299D01*
X427504D01*
Y726522D01*
X427763D01*
Y726004D01*
X428022D01*
Y725745D01*
X428281D01*
Y724969D01*
X428540D01*
Y724451D01*
X428798D01*
Y723933D01*
X429057D01*
Y723416D01*
X429316D01*
Y722898D01*
X429575D01*
Y722380D01*
X429834D01*
Y721862D01*
X430093D01*
Y721345D01*
X430352D01*
Y720827D01*
X430611D01*
Y720309D01*
X430869D01*
Y719791D01*
X431128D01*
Y719274D01*
X431387D01*
Y718756D01*
X431646D01*
Y718238D01*
X431905D01*
Y717720D01*
X432164D01*
Y717203D01*
X432423D01*
Y716685D01*
X432682D01*
Y716167D01*
X432940D01*
Y715649D01*
X433199D01*
Y715132D01*
X433458D01*
Y714614D01*
X433717D01*
Y714096D01*
X433976D01*
Y713578D01*
X434235D01*
Y712802D01*
X434494D01*
Y712543D01*
X434753D01*
Y712025D01*
X435011D01*
Y711507D01*
X434753D01*
Y711766D01*
X434494D01*
Y712025D01*
X434235D01*
Y712284D01*
X433717D01*
Y712543D01*
X433458D01*
Y712802D01*
X432940D01*
Y713060D01*
X432682D01*
Y713319D01*
X432423D01*
Y713578D01*
X431905D01*
Y713837D01*
X431646D01*
Y714096D01*
X431128D01*
Y714355D01*
X430869D01*
Y714614D01*
X430611D01*
Y714873D01*
X430093D01*
Y715132D01*
X429834D01*
Y715390D01*
X429316D01*
Y715649D01*
X429057D01*
Y715908D01*
X428798D01*
Y716167D01*
X428281D01*
Y716426D01*
X428022D01*
Y716685D01*
X427763D01*
Y716944D01*
X427245D01*
Y717203D01*
X426986D01*
Y717461D01*
X426469D01*
Y717720D01*
X426210D01*
Y717979D01*
X425951D01*
Y718238D01*
X425433D01*
Y718497D01*
X425174D01*
Y718756D01*
X424656D01*
Y719015D01*
X424398D01*
Y719274D01*
X424139D01*
Y719532D01*
X423621D01*
Y719791D01*
X423362D01*
Y720050D01*
X422844D01*
Y720309D01*
X422585D01*
Y720568D01*
X422327D01*
Y720827D01*
X421809D01*
Y721086D01*
X421550D01*
Y721345D01*
X421032D01*
Y721603D01*
X420773D01*
Y721862D01*
X420255D01*
Y721603D01*
X420514D01*
Y720827D01*
X420773D01*
Y720050D01*
X421032D01*
Y719274D01*
X421291D01*
Y718756D01*
X421550D01*
Y717720D01*
X421809D01*
Y717203D01*
X422068D01*
Y716426D01*
X422327D01*
Y715649D01*
X422585D01*
Y714873D01*
X422844D01*
Y714096D01*
X423103D01*
Y713319D01*
X423362D01*
Y712543D01*
X423621D01*
Y711766D01*
X423880D01*
Y711248D01*
X424139D01*
Y710472D01*
X424398D01*
Y709695D01*
X424656D01*
Y708918D01*
X424915D01*
Y708142D01*
X425174D01*
Y707365D01*
X425433D01*
Y706589D01*
X425692D01*
Y705812D01*
X425951D01*
Y705294D01*
X426210D01*
Y704259D01*
X426469D01*
Y703741D01*
X426727D01*
Y702964D01*
X426986D01*
Y702188D01*
X427245D01*
Y701411D01*
X427504D01*
Y700634D01*
X427763D01*
Y699858D01*
X428022D01*
Y699599D01*
X428281D01*
Y699858D01*
X429057D01*
Y700117D01*
X429834D01*
Y700376D01*
X430611D01*
Y698046D01*
X430352D01*
Y693127D01*
X430093D01*
Y693386D01*
X429575D01*
Y693645D01*
X429316D01*
Y693904D01*
X428798D01*
Y694162D01*
X428540D01*
Y694421D01*
X428022D01*
Y694680D01*
X427504D01*
Y694939D01*
X427245D01*
Y695198D01*
X426727D01*
Y695457D01*
X426469D01*
Y695716D01*
X425951D01*
Y695975D01*
X425692D01*
Y696233D01*
X425174D01*
Y696492D01*
X424915D01*
Y696751D01*
X424398D01*
Y697010D01*
X424139D01*
Y697269D01*
X423621D01*
Y697528D01*
X423103D01*
Y698046D01*
X423621D01*
Y698304D01*
X424656D01*
Y698563D01*
X425433D01*
Y698822D01*
X425951D01*
Y699081D01*
X426727D01*
Y699340D01*
X426469D01*
Y699858D01*
X426210D01*
Y700376D01*
X425951D01*
Y700634D01*
X425692D01*
Y701152D01*
X425433D01*
Y701670D01*
X425174D01*
Y702188D01*
X424915D01*
Y702447D01*
X424656D01*
Y702964D01*
X424398D01*
Y703482D01*
X424139D01*
Y703741D01*
X423880D01*
Y704259D01*
X423621D01*
Y704776D01*
X423362D01*
Y705035D01*
X423103D01*
Y705553D01*
X422844D01*
Y706071D01*
X422585D01*
Y706589D01*
X422327D01*
Y706847D01*
X422068D01*
Y707365D01*
X421809D01*
Y707883D01*
X421550D01*
Y708142D01*
X421291D01*
Y708660D01*
X421032D01*
Y709177D01*
X420773D01*
Y709436D01*
X420514D01*
Y709954D01*
X420255D01*
Y710472D01*
X419997D01*
Y710731D01*
X419738D01*
Y711248D01*
X419479D01*
Y711766D01*
X419220D01*
Y712284D01*
X418961D01*
Y712543D01*
X418702D01*
Y713060D01*
X418443D01*
Y713578D01*
X418184D01*
Y713837D01*
X417925D01*
Y714355D01*
X417667D01*
Y714873D01*
X417408D01*
Y715132D01*
X417149D01*
Y715649D01*
X416890D01*
Y716167D01*
X416631D01*
Y716426D01*
X416372D01*
Y716944D01*
X416113D01*
Y717461D01*
X415854D01*
Y717979D01*
X415596D01*
Y718238D01*
X415337D01*
Y718756D01*
X415078D01*
Y719274D01*
X414819D01*
Y719532D01*
X414560D01*
Y720050D01*
X414301D01*
Y720568D01*
X414042D01*
Y720827D01*
X413783D01*
Y721345D01*
X413525D01*
Y721862D01*
X413266D01*
Y722121D01*
X413007D01*
Y722639D01*
X412748D01*
Y723157D01*
X412489D01*
Y723674D01*
X412230D01*
Y723933D01*
X411971D01*
Y724451D01*
X411712D01*
Y724969D01*
X411454D01*
Y725228D01*
X411195D01*
Y725745D01*
X410936D01*
Y726263D01*
X410677D01*
Y726522D01*
X410418D01*
Y727040D01*
X410159D01*
Y727558D01*
X409900D01*
Y728075D01*
X409641D01*
Y728334D01*
X409383D01*
Y728852D01*
X409124D01*
Y729370D01*
X408865D01*
Y729629D01*
X408606D01*
Y730146D01*
X408347D01*
Y730664D01*
X408088D01*
Y730923D01*
X407829D01*
Y731441D01*
X407570D01*
Y731959D01*
X407312D01*
Y732217D01*
X407053D01*
Y732735D01*
X406794D01*
Y733253D01*
X406535D01*
Y733771D01*
X406276D01*
Y734030D01*
X406017D01*
Y734547D01*
X406276D01*
Y734288D01*
X406794D01*
Y734030D01*
X407053D01*
Y733771D01*
X407570D01*
Y733512D01*
X408088D01*
Y733253D01*
X408606D01*
Y732994D01*
X408865D01*
Y732735D01*
X409383D01*
Y732476D01*
X409900D01*
Y732217D01*
X410159D01*
Y731959D01*
X410677D01*
Y731700D01*
X411195D01*
Y731441D01*
X411454D01*
Y731182D01*
X412230D01*
Y730923D01*
X412489D01*
Y730664D01*
X413007D01*
Y730405D01*
X413525D01*
Y730146D01*
X413783D01*
Y729887D01*
X414301D01*
Y729629D01*
X414819D01*
Y729370D01*
X415078D01*
Y729111D01*
X415596D01*
Y728852D01*
X416113D01*
Y728593D01*
X416631D01*
Y728334D01*
X416890D01*
Y728075D01*
X417408D01*
Y727816D01*
X417925D01*
Y727558D01*
X418184D01*
Y727299D01*
X418702D01*
Y727816D01*
X418443D01*
Y728334D01*
X418184D01*
Y728593D01*
X417925D01*
Y729111D01*
X417667D01*
Y729629D01*
X417408D01*
Y729887D01*
X417149D01*
Y730405D01*
X416890D01*
Y730664D01*
X416631D01*
Y731182D01*
X416372D01*
Y731700D01*
X416113D01*
Y731959D01*
X415854D01*
Y732476D01*
X415596D01*
Y732735D01*
X415337D01*
Y733253D01*
X415078D01*
Y733771D01*
X414819D01*
Y734030D01*
X414560D01*
Y734547D01*
X414301D01*
Y735065D01*
X414042D01*
Y735324D01*
X413783D01*
Y735842D01*
X413525D01*
Y736101D01*
X413266D01*
Y736618D01*
X413007D01*
Y737136D01*
X412748D01*
Y737395D01*
X412489D01*
Y737913D01*
X412230D01*
Y738172D01*
X411971D01*
Y738689D01*
X411712D01*
Y739207D01*
X411454D01*
Y739466D01*
X411195D01*
Y739984D01*
X410936D01*
Y740502D01*
X410677D01*
Y740760D01*
X410418D01*
Y741278D01*
X410159D01*
Y741537D01*
X409900D01*
Y742055D01*
X409641D01*
Y742573D01*
X409383D01*
Y742831D01*
X409124D01*
Y743349D01*
X408865D01*
Y743608D01*
X408606D01*
Y744126D01*
X408347D01*
Y744644D01*
X408088D01*
Y744902D01*
X407829D01*
Y745420D01*
X407570D01*
Y745938D01*
X407312D01*
Y746197D01*
X407053D01*
Y746715D01*
X406794D01*
Y746973D01*
X406535D01*
Y747491D01*
X406276D01*
Y748009D01*
X406017D01*
Y748268D01*
X405758D01*
Y748786D01*
X405499D01*
Y749303D01*
X405241D01*
Y749562D01*
X404982D01*
Y750080D01*
X404723D01*
Y750339D01*
X404464D01*
Y750857D01*
X404205D01*
Y751374D01*
X403946D01*
Y751633D01*
X403687D01*
Y752151D01*
X403428D01*
Y752410D01*
X403170D01*
Y752928D01*
X402911D01*
Y753445D01*
X402652D01*
Y753704D01*
X402393D01*
Y754222D01*
X402134D01*
Y754740D01*
X401875D01*
Y754999D01*
X401616D01*
Y755517D01*
X401357D01*
Y755775D01*
X401099D01*
Y756293D01*
X401357D01*
Y756034D01*
D02*
G37*
G36*
X468407Y743349D02*
X470478D01*
Y743090D01*
X471513D01*
Y742831D01*
X472549D01*
Y742573D01*
X473325D01*
Y742314D01*
X473843D01*
Y742055D01*
X474620D01*
Y741796D01*
X475138D01*
Y741537D01*
X475655D01*
Y741278D01*
X476173D01*
Y741019D01*
X476432D01*
Y740760D01*
X476950D01*
Y740502D01*
X477209D01*
Y740243D01*
X477467D01*
Y739984D01*
X477726D01*
Y739725D01*
X478244D01*
Y739466D01*
X478503D01*
Y739207D01*
X478762D01*
Y738948D01*
X479021D01*
Y738689D01*
X479280D01*
Y738172D01*
X479538D01*
Y737913D01*
X479797D01*
Y737654D01*
X480056D01*
Y737395D01*
X480315D01*
Y736877D01*
X480574D01*
Y736359D01*
X480833D01*
Y736101D01*
X481092D01*
Y735583D01*
X481351D01*
Y734806D01*
X481609D01*
Y734288D01*
X481868D01*
Y733253D01*
X482127D01*
Y731959D01*
X482386D01*
Y726781D01*
X482127D01*
Y725228D01*
X481868D01*
Y723933D01*
X481609D01*
Y723157D01*
X481351D01*
Y722639D01*
X481092D01*
Y722121D01*
X480833D01*
Y721603D01*
X480574D01*
Y721086D01*
X480315D01*
Y720827D01*
X480056D01*
Y720309D01*
X479797D01*
Y719791D01*
X479538D01*
Y719274D01*
X479280D01*
Y718497D01*
X479021D01*
Y716426D01*
X478762D01*
Y713319D01*
X478503D01*
Y710472D01*
X477985D01*
Y710213D01*
X477467D01*
Y709954D01*
X476950D01*
Y709695D01*
X476432D01*
Y709436D01*
X475914D01*
Y709177D01*
X475138D01*
Y708918D01*
X474620D01*
Y708660D01*
X474102D01*
Y708401D01*
X473584D01*
Y708142D01*
X473066D01*
Y707883D01*
X472549D01*
Y707624D01*
X472031D01*
Y707365D01*
X471772D01*
Y706589D01*
X471513D01*
Y706071D01*
X471254D01*
Y705294D01*
X470995D01*
Y705035D01*
X469960D01*
Y704776D01*
X469442D01*
Y706330D01*
X469701D01*
Y707365D01*
X468924D01*
Y706071D01*
X468666D01*
Y704776D01*
X468407D01*
Y704518D01*
X466336D01*
Y705553D01*
X466595D01*
Y707365D01*
X465818D01*
Y705294D01*
X465559D01*
Y704518D01*
X464006D01*
Y704776D01*
X463488D01*
Y706071D01*
X463747D01*
Y707365D01*
X462970D01*
Y706071D01*
X462711D01*
Y705035D01*
X461676D01*
Y705294D01*
X461417D01*
Y705812D01*
X461158D01*
Y706589D01*
X460899D01*
Y707365D01*
X460640D01*
Y707624D01*
X460123D01*
Y707883D01*
X459605D01*
Y708142D01*
X459087D01*
Y708401D01*
X458569D01*
Y708660D01*
X458052D01*
Y708918D01*
X457534D01*
Y709177D01*
X456757D01*
Y709436D01*
X456498D01*
Y709695D01*
X455722D01*
Y709954D01*
X455204D01*
Y710213D01*
X454686D01*
Y710472D01*
X454427D01*
Y710731D01*
X454169D01*
Y713578D01*
X453910D01*
Y716944D01*
X453651D01*
Y718756D01*
X453392D01*
Y719274D01*
X453133D01*
Y719791D01*
X452874D01*
Y720309D01*
X452615D01*
Y720827D01*
X452356D01*
Y721345D01*
X452097D01*
Y721862D01*
X451839D01*
Y722639D01*
X451580D01*
Y723416D01*
X451321D01*
Y723933D01*
X451062D01*
Y724969D01*
X450803D01*
Y726004D01*
X450544D01*
Y727816D01*
X450285D01*
Y731700D01*
X450544D01*
Y733253D01*
X450803D01*
Y734030D01*
X451062D01*
Y734806D01*
X451321D01*
Y735324D01*
X451580D01*
Y735842D01*
X451839D01*
Y736359D01*
X452097D01*
Y736877D01*
X452356D01*
Y737395D01*
X452615D01*
Y737654D01*
X452874D01*
Y737913D01*
X453133D01*
Y738430D01*
X453392D01*
Y738689D01*
X453651D01*
Y738948D01*
X453910D01*
Y739207D01*
X454169D01*
Y739466D01*
X454427D01*
Y739725D01*
X454945D01*
Y739984D01*
X455204D01*
Y740243D01*
X455463D01*
Y740502D01*
X455981D01*
Y740760D01*
X456240D01*
Y741019D01*
X456757D01*
Y741278D01*
X457016D01*
Y741537D01*
X457534D01*
Y741796D01*
X458052D01*
Y742055D01*
X458828D01*
Y742314D01*
X459346D01*
Y742573D01*
X460123D01*
Y742831D01*
X461158D01*
Y743090D01*
X462194D01*
Y743349D01*
X464524D01*
Y743608D01*
X468407D01*
Y743349D01*
D02*
G37*
G36*
X474361Y706071D02*
X475138D01*
Y705294D01*
X474879D01*
Y704259D01*
X474620D01*
Y703223D01*
X474361D01*
Y702188D01*
X474102D01*
Y701411D01*
X473843D01*
Y701152D01*
X473584D01*
Y700893D01*
X473325D01*
Y700634D01*
X473066D01*
Y700376D01*
X472549D01*
Y700117D01*
X472290D01*
Y699858D01*
X472031D01*
Y699599D01*
X471772D01*
Y699340D01*
X471513D01*
Y699081D01*
X471254D01*
Y698822D01*
X470995D01*
Y698304D01*
X470737D01*
Y698046D01*
X470478D01*
Y697787D01*
X470219D01*
Y697528D01*
X469960D01*
Y697269D01*
X469701D01*
Y697010D01*
X469183D01*
Y696751D01*
X468924D01*
Y696492D01*
X467889D01*
Y696233D01*
X464782D01*
Y696492D01*
X464006D01*
Y696751D01*
X463488D01*
Y697010D01*
X463229D01*
Y697269D01*
X462711D01*
Y697528D01*
X462453D01*
Y698046D01*
X462194D01*
Y698304D01*
X461935D01*
Y698563D01*
X461676D01*
Y699081D01*
X461417D01*
Y699340D01*
X461158D01*
Y699599D01*
X460899D01*
Y699858D01*
X460382D01*
Y700117D01*
X460123D01*
Y700376D01*
X459864D01*
Y700634D01*
X459605D01*
Y700893D01*
X459346D01*
Y701152D01*
X459087D01*
Y701411D01*
X458828D01*
Y701929D01*
X458569D01*
Y702964D01*
X458311D01*
Y704000D01*
X458052D01*
Y705035D01*
X457793D01*
Y706071D01*
X458569D01*
Y706330D01*
X459346D01*
Y706071D01*
X459605D01*
Y705553D01*
X459864D01*
Y704776D01*
X460123D01*
Y704259D01*
X460382D01*
Y703741D01*
X460640D01*
Y703482D01*
X460899D01*
Y702964D01*
X461158D01*
Y702705D01*
X461417D01*
Y702447D01*
X461676D01*
Y702188D01*
X462194D01*
Y701929D01*
X462711D01*
Y701670D01*
X464006D01*
Y701411D01*
X468924D01*
Y701670D01*
X469960D01*
Y701929D01*
X470737D01*
Y702188D01*
X470995D01*
Y702447D01*
X471254D01*
Y702705D01*
X471513D01*
Y702964D01*
X471772D01*
Y703223D01*
X472031D01*
Y703482D01*
X472290D01*
Y704000D01*
X472549D01*
Y704518D01*
X472808D01*
Y705035D01*
X473066D01*
Y705553D01*
X473325D01*
Y706330D01*
X474361D01*
Y706071D01*
D02*
G37*
G36*
X529243Y755775D02*
X528984D01*
Y755517D01*
X528725D01*
Y754999D01*
X528466D01*
Y754740D01*
X528208D01*
Y754222D01*
X527949D01*
Y753704D01*
X527690D01*
Y753445D01*
X527431D01*
Y752928D01*
X527172D01*
Y752410D01*
X526913D01*
Y752151D01*
X526654D01*
Y751633D01*
X526395D01*
Y751374D01*
X526137D01*
Y750857D01*
X525878D01*
Y750339D01*
X525619D01*
Y750080D01*
X525360D01*
Y749562D01*
X525101D01*
Y749303D01*
X524842D01*
Y748786D01*
X524583D01*
Y748268D01*
X524324D01*
Y748009D01*
X524066D01*
Y747491D01*
X523807D01*
Y746973D01*
X523548D01*
Y746715D01*
X523289D01*
Y746197D01*
X523030D01*
Y745938D01*
X522771D01*
Y745420D01*
X522512D01*
Y744902D01*
X522253D01*
Y744644D01*
X521995D01*
Y744126D01*
X521736D01*
Y743608D01*
X521477D01*
Y743349D01*
X521218D01*
Y742831D01*
X520959D01*
Y742573D01*
X520700D01*
Y742055D01*
X520441D01*
Y741537D01*
X520182D01*
Y741278D01*
X519924D01*
Y740760D01*
X519665D01*
Y740502D01*
X519406D01*
Y739984D01*
X519147D01*
Y739466D01*
X518888D01*
Y739207D01*
X518629D01*
Y738689D01*
X518370D01*
Y738430D01*
X518111D01*
Y737913D01*
X517853D01*
Y737395D01*
X517594D01*
Y737136D01*
X517335D01*
Y736618D01*
X517076D01*
Y736101D01*
X516817D01*
Y735842D01*
X516558D01*
Y735324D01*
X516299D01*
Y735065D01*
X516040D01*
Y734547D01*
X515781D01*
Y734030D01*
X515523D01*
Y733771D01*
X515264D01*
Y733253D01*
X515005D01*
Y732735D01*
X514746D01*
Y732476D01*
X514487D01*
Y731959D01*
X514228D01*
Y731700D01*
X513969D01*
Y731182D01*
X513710D01*
Y730664D01*
X513451D01*
Y730405D01*
X513193D01*
Y729887D01*
X512934D01*
Y729629D01*
X512675D01*
Y729111D01*
X512416D01*
Y728593D01*
X512157D01*
Y728334D01*
X511898D01*
Y727816D01*
X511639D01*
Y727299D01*
X512157D01*
Y727558D01*
X512416D01*
Y727816D01*
X512934D01*
Y728075D01*
X513451D01*
Y728334D01*
X513710D01*
Y728593D01*
X514228D01*
Y728852D01*
X514746D01*
Y729111D01*
X515264D01*
Y729370D01*
X515523D01*
Y729629D01*
X516040D01*
Y729887D01*
X516558D01*
Y730146D01*
X516817D01*
Y730405D01*
X517335D01*
Y730664D01*
X517853D01*
Y730923D01*
X518111D01*
Y731182D01*
X518888D01*
Y731441D01*
X519147D01*
Y731700D01*
X519665D01*
Y731959D01*
X520182D01*
Y732217D01*
X520441D01*
Y732476D01*
X520959D01*
Y732735D01*
X521477D01*
Y732994D01*
X521736D01*
Y733253D01*
X522253D01*
Y733512D01*
X522771D01*
Y733771D01*
X523289D01*
Y734030D01*
X523548D01*
Y734288D01*
X524066D01*
Y734547D01*
X524324D01*
Y734030D01*
X524066D01*
Y733771D01*
X523807D01*
Y733253D01*
X523548D01*
Y732735D01*
X523289D01*
Y732217D01*
X523030D01*
Y731959D01*
X522771D01*
Y731441D01*
X522512D01*
Y730923D01*
X522253D01*
Y730664D01*
X521995D01*
Y730146D01*
X521736D01*
Y729629D01*
X521477D01*
Y729370D01*
X521218D01*
Y728852D01*
X520959D01*
Y728334D01*
X520700D01*
Y728075D01*
X520441D01*
Y727558D01*
X520182D01*
Y727040D01*
X519924D01*
Y726522D01*
X519665D01*
Y726263D01*
X519406D01*
Y725745D01*
X519147D01*
Y725228D01*
X518888D01*
Y724969D01*
X518629D01*
Y724451D01*
X518370D01*
Y723933D01*
X518111D01*
Y723674D01*
X517853D01*
Y723157D01*
X517594D01*
Y722639D01*
X517335D01*
Y722380D01*
X517076D01*
Y721862D01*
X516817D01*
Y721345D01*
X516558D01*
Y720827D01*
X516299D01*
Y720568D01*
X516040D01*
Y720050D01*
X515781D01*
Y719532D01*
X515523D01*
Y719274D01*
X515264D01*
Y718756D01*
X515005D01*
Y718238D01*
X514746D01*
Y717979D01*
X514487D01*
Y717461D01*
X514228D01*
Y716944D01*
X513969D01*
Y716685D01*
X513710D01*
Y716167D01*
X513451D01*
Y715649D01*
X513193D01*
Y715132D01*
X512934D01*
Y714873D01*
X512675D01*
Y714355D01*
X512416D01*
Y713837D01*
X512157D01*
Y713578D01*
X511898D01*
Y713060D01*
X511639D01*
Y712543D01*
X511381D01*
Y712284D01*
X511122D01*
Y711766D01*
X510863D01*
Y711248D01*
X510604D01*
Y710731D01*
X510345D01*
Y710472D01*
X510086D01*
Y709954D01*
X509827D01*
Y709436D01*
X509568D01*
Y709177D01*
X509310D01*
Y708660D01*
X509051D01*
Y708142D01*
X508792D01*
Y707883D01*
X508533D01*
Y707365D01*
X508274D01*
Y706847D01*
X508015D01*
Y706589D01*
X507756D01*
Y706071D01*
X507497D01*
Y705553D01*
X507238D01*
Y705294D01*
X506980D01*
Y704776D01*
X506721D01*
Y704259D01*
X506462D01*
Y703741D01*
X506203D01*
Y703482D01*
X505944D01*
Y702964D01*
X505685D01*
Y702447D01*
X505426D01*
Y702188D01*
X505167D01*
Y701670D01*
X504908D01*
Y701152D01*
X504650D01*
Y700893D01*
X504391D01*
Y700376D01*
X504132D01*
Y699858D01*
X503873D01*
Y699340D01*
X503614D01*
Y699081D01*
X504391D01*
Y698822D01*
X504908D01*
Y698563D01*
X505685D01*
Y698304D01*
X506721D01*
Y698046D01*
X507238D01*
Y697787D01*
X506980D01*
Y697528D01*
X506721D01*
Y697269D01*
X506203D01*
Y697010D01*
X505944D01*
Y696751D01*
X505426D01*
Y696492D01*
X505167D01*
Y696233D01*
X504650D01*
Y695975D01*
X504391D01*
Y695716D01*
X503873D01*
Y695457D01*
X503614D01*
Y695198D01*
X503096D01*
Y694939D01*
X502837D01*
Y694680D01*
X502320D01*
Y694421D01*
X501802D01*
Y694162D01*
X501543D01*
Y693904D01*
X501025D01*
Y693645D01*
X500766D01*
Y693386D01*
X500249D01*
Y693127D01*
X499990D01*
Y697787D01*
X499731D01*
Y700376D01*
X500508D01*
Y700117D01*
X501284D01*
Y699858D01*
X502061D01*
Y699599D01*
X502320D01*
Y699858D01*
X502579D01*
Y700634D01*
X502837D01*
Y701411D01*
X503096D01*
Y702188D01*
X503355D01*
Y702964D01*
X503614D01*
Y703741D01*
X503873D01*
Y704518D01*
X504132D01*
Y705294D01*
X504391D01*
Y705812D01*
X504650D01*
Y706847D01*
X504908D01*
Y707365D01*
X505167D01*
Y708142D01*
X505426D01*
Y708918D01*
X505685D01*
Y709695D01*
X505944D01*
Y710472D01*
X506203D01*
Y711248D01*
X506462D01*
Y711766D01*
X506721D01*
Y712802D01*
X506980D01*
Y713319D01*
X507238D01*
Y714096D01*
X507497D01*
Y714873D01*
X507756D01*
Y715649D01*
X508015D01*
Y716426D01*
X508274D01*
Y717203D01*
X508533D01*
Y717979D01*
X508792D01*
Y718756D01*
X509051D01*
Y719274D01*
X509310D01*
Y720050D01*
X509568D01*
Y720827D01*
X509827D01*
Y721603D01*
X510086D01*
Y721862D01*
X509568D01*
Y721603D01*
X509310D01*
Y721345D01*
X508792D01*
Y721086D01*
X508533D01*
Y720827D01*
X508015D01*
Y720568D01*
X507756D01*
Y720309D01*
X507497D01*
Y720050D01*
X506980D01*
Y719791D01*
X506721D01*
Y719532D01*
X506203D01*
Y719274D01*
X505944D01*
Y719015D01*
X505685D01*
Y718756D01*
X505167D01*
Y718497D01*
X504908D01*
Y718238D01*
X504391D01*
Y717979D01*
X504132D01*
Y717720D01*
X503873D01*
Y717461D01*
X503355D01*
Y717203D01*
X503096D01*
Y716944D01*
X502579D01*
Y716685D01*
X502320D01*
Y716426D01*
X502061D01*
Y716167D01*
X501543D01*
Y715908D01*
X501284D01*
Y715649D01*
X501025D01*
Y715390D01*
X500508D01*
Y715132D01*
X500249D01*
Y714873D01*
X499731D01*
Y714614D01*
X499472D01*
Y714355D01*
X499213D01*
Y714096D01*
X498695D01*
Y713837D01*
X498437D01*
Y713578D01*
X497919D01*
Y713319D01*
X497660D01*
Y713060D01*
X497401D01*
Y712802D01*
X496883D01*
Y712543D01*
X496624D01*
Y712284D01*
X496107D01*
Y712025D01*
X495848D01*
Y711766D01*
X495589D01*
Y711507D01*
X495330D01*
Y712025D01*
X495589D01*
Y712543D01*
X495848D01*
Y713060D01*
X496107D01*
Y713578D01*
X496366D01*
Y714096D01*
X496624D01*
Y714614D01*
X496883D01*
Y715132D01*
X497142D01*
Y715649D01*
X497401D01*
Y716167D01*
X497660D01*
Y716685D01*
X497919D01*
Y717203D01*
X498178D01*
Y717720D01*
X498437D01*
Y718238D01*
X498695D01*
Y718756D01*
X498954D01*
Y719274D01*
X499213D01*
Y719791D01*
X499472D01*
Y720309D01*
X499731D01*
Y720827D01*
X499990D01*
Y721345D01*
X500249D01*
Y721862D01*
X500508D01*
Y722380D01*
X500766D01*
Y722898D01*
X501025D01*
Y723416D01*
X501284D01*
Y723933D01*
X501543D01*
Y724451D01*
X501802D01*
Y724969D01*
X502061D01*
Y725745D01*
X502320D01*
Y726004D01*
X502579D01*
Y726781D01*
X502837D01*
Y727299D01*
X503096D01*
Y727816D01*
X503355D01*
Y728334D01*
X503614D01*
Y728852D01*
X503873D01*
Y729370D01*
X504132D01*
Y729887D01*
X504391D01*
Y730405D01*
X504650D01*
Y730923D01*
X504908D01*
Y731441D01*
X505167D01*
Y731959D01*
X505426D01*
Y732476D01*
X505685D01*
Y732994D01*
X505944D01*
Y733512D01*
X506203D01*
Y734030D01*
X506462D01*
Y734547D01*
X506721D01*
Y735065D01*
X506980D01*
Y735583D01*
X507238D01*
Y736101D01*
X507497D01*
Y736618D01*
X507756D01*
Y737136D01*
X508015D01*
Y737654D01*
X508274D01*
Y738172D01*
X508533D01*
Y738689D01*
X508792D01*
Y739466D01*
X509051D01*
Y739725D01*
X509310D01*
Y740502D01*
X509568D01*
Y741019D01*
X509827D01*
Y741278D01*
X510086D01*
Y742055D01*
X510345D01*
Y742573D01*
X510604D01*
Y743090D01*
X510863D01*
Y743608D01*
X511122D01*
Y744126D01*
X511381D01*
Y744644D01*
X511639D01*
Y745161D01*
X511898D01*
Y745679D01*
X512157D01*
Y746197D01*
X512416D01*
Y746715D01*
X512934D01*
Y746973D01*
X513451D01*
Y747232D01*
X513710D01*
Y747491D01*
X514228D01*
Y747750D01*
X514746D01*
Y748009D01*
X515264D01*
Y748268D01*
X515523D01*
Y748527D01*
X516040D01*
Y748786D01*
X516558D01*
Y749045D01*
X516817D01*
Y749303D01*
X517335D01*
Y749562D01*
X517853D01*
Y749821D01*
X518370D01*
Y750080D01*
X518629D01*
Y750339D01*
X519147D01*
Y750598D01*
X519665D01*
Y750857D01*
X519924D01*
Y751115D01*
X520441D01*
Y751374D01*
X520959D01*
Y751633D01*
X521477D01*
Y751892D01*
X521736D01*
Y752151D01*
X522253D01*
Y752410D01*
X522771D01*
Y752669D01*
X523289D01*
Y752928D01*
X523548D01*
Y753187D01*
X524066D01*
Y753445D01*
X524583D01*
Y753704D01*
X524842D01*
Y753963D01*
X525360D01*
Y754222D01*
X525878D01*
Y754481D01*
X526395D01*
Y754740D01*
X526654D01*
Y754999D01*
X527172D01*
Y755258D01*
X527690D01*
Y755517D01*
X527949D01*
Y755775D01*
X528466D01*
Y756034D01*
X528984D01*
Y756293D01*
X529243D01*
Y755775D01*
D02*
G37*
G36*
X481609Y713837D02*
X481868D01*
Y713578D01*
X482127D01*
Y713319D01*
X482386D01*
Y713060D01*
X482645D01*
Y712802D01*
X482904D01*
Y712543D01*
X483163D01*
Y712284D01*
X483422D01*
Y712025D01*
X483681D01*
Y711766D01*
X483939D01*
Y711507D01*
X484198D01*
Y711248D01*
X484457D01*
Y710990D01*
X484716D01*
Y710731D01*
X484975D01*
Y710472D01*
X485234D01*
Y710213D01*
X485493D01*
Y709954D01*
X486787D01*
Y709695D01*
X488082D01*
Y709436D01*
X489117D01*
Y709177D01*
X490153D01*
Y708918D01*
X490929D01*
Y708660D01*
X491965D01*
Y708401D01*
X492741D01*
Y708142D01*
X493518D01*
Y707883D01*
X494295D01*
Y707624D01*
X494812D01*
Y707365D01*
X495330D01*
Y707106D01*
X495848D01*
Y706847D01*
X496107D01*
Y706589D01*
X496366D01*
Y706330D01*
X496624D01*
Y706071D01*
X496883D01*
Y705812D01*
X497142D01*
Y705294D01*
X497401D01*
Y704518D01*
X497660D01*
Y703482D01*
X497919D01*
Y701411D01*
X497660D01*
Y700634D01*
X497401D01*
Y700117D01*
X497142D01*
Y699858D01*
X496883D01*
Y699599D01*
X496624D01*
Y699340D01*
X496366D01*
Y699081D01*
X495848D01*
Y698822D01*
X495071D01*
Y698563D01*
X493777D01*
Y698304D01*
X492482D01*
Y697528D01*
X492224D01*
Y696751D01*
X491965D01*
Y695975D01*
X491706D01*
Y695457D01*
X491447D01*
Y695198D01*
X491188D01*
Y694680D01*
X490929D01*
Y694421D01*
X490411D01*
Y694162D01*
X490153D01*
Y693904D01*
X489894D01*
Y693645D01*
X489376D01*
Y693386D01*
X488858D01*
Y693127D01*
X488082D01*
Y692868D01*
X487823D01*
Y692609D01*
X486787D01*
Y692868D01*
X485234D01*
Y693127D01*
X484716D01*
Y693386D01*
X484457D01*
Y693645D01*
X484198D01*
Y693904D01*
X483939D01*
Y694162D01*
X483681D01*
Y694680D01*
X483422D01*
Y695198D01*
X483163D01*
Y695716D01*
X482904D01*
Y696751D01*
X482645D01*
Y698822D01*
X482386D01*
Y701929D01*
X482645D01*
Y703741D01*
X482386D01*
Y704259D01*
X482127D01*
Y704518D01*
X481868D01*
Y704776D01*
X481609D01*
Y705035D01*
X481351D01*
Y705294D01*
X481092D01*
Y705812D01*
X480833D01*
Y706071D01*
X480574D01*
Y706330D01*
X480315D01*
Y706589D01*
X480056D01*
Y706847D01*
X479797D01*
Y707106D01*
X479538D01*
Y707365D01*
X479280D01*
Y707883D01*
X479797D01*
Y708142D01*
X480315D01*
Y708401D01*
X480833D01*
Y710213D01*
X481092D01*
Y713319D01*
X481351D01*
Y714096D01*
X481609D01*
Y713837D01*
D02*
G37*
G36*
X451580Y710472D02*
X451839D01*
Y708401D01*
X452356D01*
Y708142D01*
X452874D01*
Y707883D01*
X453392D01*
Y707365D01*
X453133D01*
Y707106D01*
X452874D01*
Y706847D01*
X452615D01*
Y706330D01*
X452356D01*
Y706071D01*
X452097D01*
Y705812D01*
X451839D01*
Y705553D01*
X451580D01*
Y705294D01*
X451321D01*
Y705035D01*
X451062D01*
Y704776D01*
X450803D01*
Y704518D01*
X450544D01*
Y704259D01*
X450285D01*
Y703741D01*
X450026D01*
Y703482D01*
X449767D01*
Y703223D01*
X449509D01*
Y702705D01*
X449250D01*
Y701929D01*
X448991D01*
Y699858D01*
X448732D01*
Y698563D01*
X448473D01*
Y697528D01*
X448214D01*
Y696751D01*
X447955D01*
Y695975D01*
X447696D01*
Y695457D01*
X447438D01*
Y694939D01*
X447179D01*
Y694421D01*
X446920D01*
Y694162D01*
X446661D01*
Y693645D01*
X446402D01*
Y693386D01*
X446143D01*
Y693127D01*
X445884D01*
Y692868D01*
X445625D01*
Y692609D01*
X445108D01*
Y692350D01*
X444849D01*
Y692091D01*
X444331D01*
Y691833D01*
X443554D01*
Y691574D01*
X440189D01*
Y691833D01*
X439412D01*
Y692091D01*
X438895D01*
Y692350D01*
X438636D01*
Y692609D01*
X438377D01*
Y692868D01*
X438118D01*
Y693386D01*
X437859D01*
Y693904D01*
X437600D01*
Y697528D01*
X437859D01*
Y698563D01*
X437341D01*
Y698822D01*
X436824D01*
Y699081D01*
X436565D01*
Y699340D01*
X436047D01*
Y699599D01*
X435788D01*
Y699858D01*
X435529D01*
Y700376D01*
X435270D01*
Y700893D01*
X435011D01*
Y703741D01*
X435270D01*
Y704518D01*
X435529D01*
Y704776D01*
X435788D01*
Y705294D01*
X436047D01*
Y705553D01*
X436306D01*
Y705812D01*
X436565D01*
Y706071D01*
X436824D01*
Y706330D01*
X437082D01*
Y706589D01*
X437600D01*
Y706847D01*
X437859D01*
Y707106D01*
X438377D01*
Y707365D01*
X438895D01*
Y707624D01*
X439412D01*
Y707883D01*
X440189D01*
Y708142D01*
X440707D01*
Y708401D01*
X441483D01*
Y708660D01*
X442519D01*
Y708918D01*
X443554D01*
Y709177D01*
X444849D01*
Y709436D01*
X446143D01*
Y709695D01*
X446402D01*
Y709954D01*
X446661D01*
Y710213D01*
X447179D01*
Y710472D01*
X447438D01*
Y710731D01*
X447696D01*
Y710990D01*
X447955D01*
Y711248D01*
X448214D01*
Y711507D01*
X448732D01*
Y711766D01*
X448991D01*
Y712025D01*
X449250D01*
Y712284D01*
X449509D01*
Y712543D01*
X449767D01*
Y712802D01*
X450026D01*
Y713060D01*
X450285D01*
Y713319D01*
X450803D01*
Y713578D01*
X451062D01*
Y713837D01*
X451580D01*
Y710472D01*
D02*
G37*
G36*
X519924Y686137D02*
X520959D01*
Y685878D01*
X521477D01*
Y685619D01*
X521736D01*
Y685361D01*
X521995D01*
Y685102D01*
X522253D01*
Y684584D01*
X522512D01*
Y683807D01*
X522771D01*
Y662061D01*
X522512D01*
Y661285D01*
X522253D01*
Y660767D01*
X521995D01*
Y660508D01*
X521736D01*
Y660249D01*
X521477D01*
Y659990D01*
X520959D01*
Y659732D01*
X410677D01*
Y659990D01*
X410159D01*
Y660249D01*
X409900D01*
Y660508D01*
X409641D01*
Y660767D01*
X409383D01*
Y661026D01*
X409124D01*
Y661803D01*
X408865D01*
Y684066D01*
X409124D01*
Y684843D01*
X409383D01*
Y685102D01*
X409641D01*
Y685361D01*
X409900D01*
Y685619D01*
X410159D01*
Y685878D01*
X410677D01*
Y686137D01*
X411712D01*
Y686396D01*
X519924D01*
Y686137D01*
D02*
G37*
G36*
X358140Y417830D02*
Y393700D01*
X120571D01*
Y418687D01*
X199014D01*
Y442563D01*
X358140D01*
Y417830D01*
D02*
G37*
G36*
X681990Y283210D02*
X623288D01*
Y303500D01*
X681990D01*
Y283210D01*
D02*
G37*
G36*
X549910D02*
X485100D01*
Y303477D01*
X549910D01*
Y283210D01*
D02*
G37*
G36*
X762000D02*
X696056D01*
Y303500D01*
X762000D01*
Y283210D01*
D02*
G37*
G36*
X621030D02*
X562328D01*
Y303500D01*
X621030D01*
Y283210D01*
D02*
G37*
G36*
X920750D02*
X867671D01*
Y303778D01*
X920750D01*
Y283210D01*
D02*
G37*
G36*
X986790D02*
X930472D01*
Y303778D01*
X986790D01*
Y283210D01*
D02*
G37*
G36*
X861060D02*
X802358D01*
Y303500D01*
X861060D01*
Y283210D01*
D02*
G37*
%LPC*%
G36*
X497660Y770790D02*
X496624D01*
Y770531D01*
X495330D01*
Y770273D01*
X494812D01*
Y770014D01*
X494553D01*
Y769755D01*
X494295D01*
Y769496D01*
X493777D01*
Y768978D01*
X493518D01*
Y768460D01*
X493259D01*
Y767943D01*
X493000D01*
Y766907D01*
X492741D01*
Y764836D01*
X492482D01*
Y762247D01*
X492741D01*
Y760176D01*
X493000D01*
Y759400D01*
X493259D01*
Y758623D01*
X493518D01*
Y758105D01*
X493777D01*
Y757846D01*
X494036D01*
Y757588D01*
X494295D01*
Y757329D01*
X494812D01*
Y757070D01*
X495330D01*
Y756811D01*
X496107D01*
Y756552D01*
X497660D01*
Y770790D01*
D02*
G37*
G36*
X483939Y767425D02*
X483681D01*
Y767166D01*
X483422D01*
Y766131D01*
X483163D01*
Y765095D01*
X482904D01*
Y764059D01*
X482645D01*
Y763024D01*
X482386D01*
Y761730D01*
X485234D01*
Y762247D01*
X484975D01*
Y763283D01*
X484716D01*
Y764059D01*
Y764318D01*
X484457D01*
Y765354D01*
X484198D01*
Y766389D01*
X483939D01*
Y767425D01*
D02*
G37*
G36*
X440448Y770790D02*
X438377D01*
Y770531D01*
X437341D01*
Y770273D01*
X436565D01*
Y770014D01*
X436306D01*
Y769755D01*
X436047D01*
Y769496D01*
X435788D01*
Y768978D01*
X435529D01*
Y767943D01*
X435270D01*
Y767425D01*
X435529D01*
Y766131D01*
X435788D01*
Y765613D01*
X436047D01*
Y765354D01*
X436306D01*
Y765095D01*
X436824D01*
Y764836D01*
X437600D01*
Y764577D01*
X440448D01*
Y766648D01*
Y766907D01*
Y770790D01*
D02*
G37*
G36*
X474361Y726522D02*
X471513D01*
Y726263D01*
X470737D01*
Y726004D01*
X470478D01*
Y725745D01*
X469960D01*
Y725228D01*
X469701D01*
Y724969D01*
X469442D01*
Y724192D01*
X469183D01*
Y720827D01*
X469442D01*
Y720050D01*
X469701D01*
Y719532D01*
X469960D01*
Y719015D01*
X470219D01*
Y718756D01*
X470478D01*
Y718497D01*
X470995D01*
Y718238D01*
X471513D01*
Y717979D01*
X474361D01*
Y718238D01*
X474879D01*
Y718497D01*
X475396D01*
Y718756D01*
X475655D01*
Y719015D01*
X475914D01*
Y719274D01*
X476173D01*
Y719532D01*
X476432D01*
Y720309D01*
X476691D01*
Y721862D01*
X476950D01*
Y722898D01*
X476691D01*
Y724192D01*
X476432D01*
Y724969D01*
X476173D01*
Y725228D01*
X475914D01*
Y725487D01*
X475655D01*
Y725745D01*
X475396D01*
Y726004D01*
X474879D01*
Y726263D01*
X474361D01*
Y726522D01*
D02*
G37*
G36*
X460899D02*
X457793D01*
Y726263D01*
X457275D01*
Y726004D01*
X456757D01*
Y725745D01*
X456498D01*
Y725487D01*
X456240D01*
Y724969D01*
X455981D01*
Y724451D01*
X455722D01*
Y722898D01*
X455463D01*
Y722380D01*
X455722D01*
Y720309D01*
X455981D01*
Y719791D01*
X456240D01*
Y719532D01*
Y719274D01*
X456498D01*
Y719015D01*
X456757D01*
Y718756D01*
X457016D01*
Y718497D01*
X457534D01*
Y718238D01*
X458052D01*
Y717979D01*
X460899D01*
Y718238D01*
X461417D01*
Y718497D01*
X461935D01*
Y718756D01*
X462194D01*
Y719015D01*
X462453D01*
Y719532D01*
X462711D01*
Y719791D01*
X462970D01*
Y720568D01*
X463229D01*
Y723933D01*
X462970D01*
Y724710D01*
X462711D01*
Y725228D01*
X462453D01*
Y725487D01*
X462194D01*
Y725745D01*
X461935D01*
Y726004D01*
X461417D01*
Y726263D01*
X460899D01*
Y726522D01*
D02*
G37*
G36*
X466595Y718497D02*
X466077D01*
Y717979D01*
X465818D01*
Y717720D01*
X465559D01*
Y717203D01*
X465300D01*
Y716944D01*
X465041D01*
Y716685D01*
X464782D01*
Y716167D01*
X464524D01*
Y715908D01*
X464265D01*
Y715649D01*
X464006D01*
Y715390D01*
X463747D01*
Y714873D01*
X463488D01*
Y713578D01*
X463747D01*
Y713319D01*
X464006D01*
Y713060D01*
X464265D01*
Y712802D01*
X465818D01*
Y713060D01*
X466853D01*
Y712802D01*
X468148D01*
Y713060D01*
X468666D01*
Y713319D01*
X468924D01*
Y713837D01*
X469183D01*
Y714096D01*
Y714614D01*
X468924D01*
Y715132D01*
X468666D01*
Y715649D01*
X468407D01*
Y715908D01*
X468148D01*
Y716167D01*
X467889D01*
Y716426D01*
X467630D01*
Y716944D01*
X467371D01*
Y717203D01*
X467112D01*
Y717461D01*
X466853D01*
Y717979D01*
X466595D01*
Y718497D01*
D02*
G37*
G36*
X519665Y684066D02*
X411712D01*
Y683807D01*
X411454D01*
Y683548D01*
X411195D01*
Y662320D01*
X411454D01*
Y662061D01*
X411712D01*
Y661803D01*
X519924D01*
Y662061D01*
X520182D01*
Y662320D01*
X520441D01*
Y683548D01*
X520182D01*
Y683807D01*
X519665D01*
Y684066D01*
D02*
G37*
%LPD*%
G36*
X515523Y665686D02*
X513710D01*
Y672934D01*
X509568D01*
Y665686D01*
X507756D01*
Y680183D01*
X508015D01*
Y680442D01*
X509568D01*
Y675523D01*
Y675264D01*
Y674488D01*
X513710D01*
Y680183D01*
X513969D01*
Y680442D01*
X515523D01*
Y665686D01*
D02*
G37*
G36*
X489635D02*
X487823D01*
Y672934D01*
X483681D01*
Y665686D01*
X481868D01*
Y670087D01*
Y670346D01*
Y680183D01*
X482127D01*
Y680442D01*
X483681D01*
Y674488D01*
X487823D01*
Y680183D01*
X488082D01*
Y680442D01*
X489635D01*
Y665686D01*
D02*
G37*
G36*
X477985Y679665D02*
X477726D01*
Y678630D01*
X477467D01*
Y677335D01*
X477209D01*
Y676300D01*
X476950D01*
Y675264D01*
X476691D01*
Y674229D01*
X476432D01*
Y673193D01*
X476173D01*
Y672158D01*
X475914D01*
Y670863D01*
X475655D01*
Y670087D01*
X475396D01*
Y668792D01*
X475138D01*
Y667757D01*
X474879D01*
Y666721D01*
X474620D01*
Y665686D01*
X472808D01*
Y666204D01*
X472549D01*
Y667239D01*
X472290D01*
Y668533D01*
X472031D01*
Y669310D01*
X471772D01*
Y670604D01*
X471513D01*
Y671640D01*
X471254D01*
Y672675D01*
X470995D01*
Y673711D01*
X470737D01*
Y674746D01*
X470478D01*
Y676041D01*
X470219D01*
Y677076D01*
X469960D01*
Y678112D01*
X469701D01*
Y679147D01*
X469442D01*
Y680442D01*
X470995D01*
Y680183D01*
X471254D01*
Y679665D01*
Y679406D01*
Y679147D01*
X471513D01*
Y678112D01*
X471772D01*
Y676818D01*
X472031D01*
Y675523D01*
X472290D01*
Y674746D01*
X472549D01*
Y673452D01*
X472808D01*
Y672417D01*
X473066D01*
Y671381D01*
X473325D01*
Y670087D01*
X473584D01*
Y669569D01*
X473843D01*
Y670604D01*
X474102D01*
Y671640D01*
X474361D01*
Y672675D01*
X474620D01*
Y673970D01*
X474879D01*
Y675005D01*
X475138D01*
Y676300D01*
X475396D01*
Y677335D01*
X475655D01*
Y678371D01*
X475914D01*
Y679665D01*
X476173D01*
Y680183D01*
X476432D01*
Y680442D01*
X477985D01*
Y679665D01*
D02*
G37*
G36*
X495848Y680183D02*
X496624D01*
Y679924D01*
X497142D01*
Y679665D01*
X497660D01*
Y679406D01*
X497919D01*
Y679147D01*
X498178D01*
Y678630D01*
X498437D01*
Y678371D01*
X498695D01*
Y677853D01*
X498954D01*
Y677335D01*
X499213D01*
Y676559D01*
X499472D01*
Y675264D01*
X499731D01*
Y670087D01*
X499472D01*
Y669051D01*
X499213D01*
Y668275D01*
X498954D01*
Y667757D01*
X498695D01*
Y667239D01*
X498437D01*
Y666980D01*
X498178D01*
Y666721D01*
X497919D01*
Y666462D01*
X497660D01*
Y666204D01*
X497401D01*
Y665945D01*
X496624D01*
Y665686D01*
X495071D01*
Y665945D01*
X494553D01*
Y666204D01*
X494036D01*
Y666462D01*
X493777D01*
Y666721D01*
X493518D01*
Y666462D01*
X493259D01*
Y665686D01*
X491965D01*
Y673711D01*
X495848D01*
Y672158D01*
X493518D01*
Y669310D01*
X493777D01*
Y668533D01*
X494036D01*
Y668016D01*
X494295D01*
Y667757D01*
X494812D01*
Y667498D01*
X495330D01*
Y667239D01*
X496107D01*
Y667498D01*
X496366D01*
Y667757D01*
X496883D01*
Y668016D01*
X497142D01*
Y668533D01*
X497401D01*
Y669051D01*
X497660D01*
Y670087D01*
X497919D01*
Y675264D01*
X497660D01*
Y676300D01*
X497401D01*
Y677076D01*
X497142D01*
Y677594D01*
X496883D01*
Y678112D01*
X496624D01*
Y678371D01*
X496366D01*
Y678630D01*
X495848D01*
Y678889D01*
X495071D01*
Y678630D01*
X494553D01*
Y678371D01*
X494295D01*
Y678112D01*
X494036D01*
Y677594D01*
X493777D01*
Y676818D01*
X493518D01*
Y675782D01*
X491965D01*
Y677594D01*
X492224D01*
Y678371D01*
X492482D01*
Y678889D01*
X492741D01*
Y679147D01*
X493000D01*
Y679406D01*
X493259D01*
Y679665D01*
X493518D01*
Y679924D01*
X494036D01*
Y680183D01*
X495071D01*
Y680442D01*
X495848D01*
Y680183D01*
D02*
G37*
G36*
X428798D02*
X429575D01*
Y679924D01*
X430093D01*
Y679665D01*
X430352D01*
Y679406D01*
X430611D01*
Y679147D01*
X430869D01*
Y678889D01*
X431128D01*
Y678630D01*
X431387D01*
Y678112D01*
X431646D01*
Y677594D01*
X431905D01*
Y677076D01*
X432164D01*
Y676300D01*
X432423D01*
Y674488D01*
X432682D01*
Y670863D01*
X432423D01*
Y669310D01*
X432164D01*
Y668533D01*
X431905D01*
Y667757D01*
X431646D01*
Y667498D01*
X431387D01*
Y666980D01*
X431128D01*
Y666721D01*
X430869D01*
Y666462D01*
X430611D01*
Y666204D01*
X430093D01*
Y665945D01*
X429575D01*
Y665686D01*
X428022D01*
Y665945D01*
X427504D01*
Y666204D01*
X426986D01*
Y666462D01*
X426727D01*
Y666721D01*
X426469D01*
Y666980D01*
X426210D01*
Y665686D01*
X424656D01*
Y673711D01*
X428540D01*
Y672158D01*
X426210D01*
Y670604D01*
X426469D01*
Y668792D01*
X426727D01*
Y668275D01*
X426986D01*
Y668016D01*
X427245D01*
Y667757D01*
X427504D01*
Y667498D01*
X428022D01*
Y667239D01*
X428798D01*
Y667498D01*
X429316D01*
Y667757D01*
X429575D01*
Y668016D01*
X429834D01*
Y668275D01*
X430093D01*
Y668792D01*
X430352D01*
Y669569D01*
X430611D01*
Y670863D01*
X430869D01*
Y674746D01*
X430611D01*
Y676041D01*
X430352D01*
Y676818D01*
X430093D01*
Y677335D01*
X429834D01*
Y677853D01*
X429575D01*
Y678112D01*
X429316D01*
Y678371D01*
X429057D01*
Y678630D01*
X428798D01*
Y678889D01*
X427763D01*
Y678630D01*
X427245D01*
Y678371D01*
X426986D01*
Y677853D01*
X426727D01*
Y677335D01*
X426469D01*
Y675782D01*
X424656D01*
Y676559D01*
X424915D01*
Y677853D01*
X425174D01*
Y678371D01*
X425433D01*
Y678889D01*
X425692D01*
Y679147D01*
X425951D01*
Y679665D01*
X426469D01*
Y679924D01*
X426727D01*
Y680183D01*
X427763D01*
Y680442D01*
X428798D01*
Y680183D01*
D02*
G37*
G36*
X504908D02*
X505167D01*
Y678630D01*
X504132D01*
Y667498D01*
X504908D01*
Y667239D01*
X505167D01*
Y665945D01*
X504908D01*
Y665686D01*
X501543D01*
Y666980D01*
Y667239D01*
Y667498D01*
X502320D01*
Y678630D01*
X501543D01*
Y680183D01*
X501802D01*
Y680442D01*
X504908D01*
Y680183D01*
D02*
G37*
G36*
X464524D02*
X465559D01*
Y679924D01*
X466077D01*
Y679665D01*
X466336D01*
Y679406D01*
X466595D01*
Y679147D01*
X466853D01*
Y678889D01*
X467112D01*
Y678630D01*
X467371D01*
Y678112D01*
X467630D01*
Y677335D01*
X467889D01*
Y676300D01*
X468148D01*
Y673970D01*
X468407D01*
Y672158D01*
X468148D01*
Y669828D01*
X467889D01*
Y668533D01*
X467630D01*
Y668016D01*
X467371D01*
Y667498D01*
X467112D01*
Y667239D01*
X466853D01*
Y666721D01*
X466595D01*
Y666462D01*
X466077D01*
Y666204D01*
X465818D01*
Y665945D01*
X465041D01*
Y665686D01*
X463229D01*
Y665945D01*
X462453D01*
Y666204D01*
X461935D01*
Y666462D01*
X461676D01*
Y666721D01*
X461417D01*
Y666980D01*
X461158D01*
Y667498D01*
X460899D01*
Y668016D01*
X460640D01*
Y668533D01*
X460382D01*
Y669569D01*
X460123D01*
Y671381D01*
X459864D01*
Y674746D01*
X460123D01*
Y676559D01*
X460382D01*
Y677594D01*
X460640D01*
Y678112D01*
X460899D01*
Y678630D01*
X461158D01*
Y678889D01*
X461417D01*
Y679406D01*
X461676D01*
Y679665D01*
X462194D01*
Y679924D01*
X462711D01*
Y680183D01*
X463747D01*
Y680442D01*
X464524D01*
Y680183D01*
D02*
G37*
G36*
X458311Y670604D02*
Y670346D01*
Y665686D01*
X450544D01*
Y667239D01*
X456498D01*
Y680183D01*
X456757D01*
Y680442D01*
X458311D01*
Y670604D01*
D02*
G37*
G36*
X451321Y680183D02*
X451580D01*
Y678889D01*
X448732D01*
Y665945D01*
X448473D01*
Y665686D01*
X446920D01*
Y678889D01*
X443813D01*
Y680442D01*
X451321D01*
Y680183D01*
D02*
G37*
G36*
X438895Y679924D02*
X439154D01*
Y678630D01*
X439412D01*
Y677853D01*
X439671D01*
Y676818D01*
X439930D01*
Y675782D01*
X440189D01*
Y674746D01*
X440448D01*
Y673711D01*
X440707D01*
Y672675D01*
X440966D01*
Y671640D01*
X441225D01*
Y670604D01*
X441483D01*
Y669828D01*
X441742D01*
Y668533D01*
X442001D01*
Y667757D01*
X442260D01*
Y666721D01*
X442519D01*
Y665686D01*
X440707D01*
Y666204D01*
X440448D01*
Y667498D01*
X440189D01*
Y667757D01*
Y668533D01*
X439930D01*
Y669310D01*
X439671D01*
Y670087D01*
X436565D01*
Y669569D01*
X436306D01*
Y668533D01*
X436047D01*
Y667757D01*
X435788D01*
Y666462D01*
X435529D01*
Y665686D01*
X433717D01*
Y666721D01*
X433976D01*
Y667757D01*
X434235D01*
Y668792D01*
X434494D01*
Y669828D01*
X434753D01*
Y670863D01*
X435011D01*
Y671899D01*
X435270D01*
Y672675D01*
X435529D01*
Y673970D01*
X435788D01*
Y675005D01*
X436047D01*
Y675782D01*
X436306D01*
Y677076D01*
X436565D01*
Y677853D01*
X436824D01*
Y678889D01*
X437082D01*
Y679924D01*
X437341D01*
Y680442D01*
X438895D01*
Y679924D01*
D02*
G37*
G36*
X422585Y680183D02*
X422844D01*
Y665686D01*
X415078D01*
Y667239D01*
X421032D01*
Y672675D01*
X415854D01*
Y674229D01*
X421032D01*
Y678630D01*
X420773D01*
Y678889D01*
X415596D01*
Y679406D01*
X415337D01*
Y679665D01*
X415596D01*
Y679924D01*
X415337D01*
Y680183D01*
X415596D01*
Y680442D01*
X422585D01*
Y680183D01*
D02*
G37*
%LPC*%
G36*
X464524Y678889D02*
X463747D01*
Y678630D01*
X463229D01*
Y678371D01*
X462711D01*
Y678112D01*
X462453D01*
Y677594D01*
X462194D01*
Y676818D01*
X461935D01*
Y674746D01*
X461676D01*
Y673193D01*
Y672934D01*
Y671381D01*
X461935D01*
Y669310D01*
X462194D01*
Y668533D01*
X462453D01*
Y668016D01*
X462711D01*
Y667757D01*
X462970D01*
Y667498D01*
X463488D01*
Y667239D01*
X464782D01*
Y667498D01*
X465300D01*
Y667757D01*
X465559D01*
Y668016D01*
X465818D01*
Y668533D01*
X466077D01*
Y669569D01*
X466336D01*
Y673452D01*
X466595D01*
Y673711D01*
X466336D01*
Y676559D01*
X466077D01*
Y677335D01*
X465818D01*
Y677853D01*
X465559D01*
Y678371D01*
X465041D01*
Y678630D01*
X464524D01*
Y678889D01*
D02*
G37*
G36*
X438118Y676041D02*
X437859D01*
Y675005D01*
X437600D01*
Y673970D01*
X437341D01*
Y672934D01*
X437082D01*
Y671899D01*
Y671640D01*
Y671381D01*
X439154D01*
Y672675D01*
X438895D01*
Y673711D01*
X438636D01*
Y674746D01*
X438377D01*
Y675782D01*
X438118D01*
Y676041D01*
D02*
G37*
G36*
X224014Y440355D02*
X222741D01*
Y424273D01*
X224708D01*
Y436791D01*
X224731Y436768D01*
X224847Y436675D01*
X224986Y436537D01*
X225217Y436375D01*
X225472Y436166D01*
X225796Y435935D01*
X226166Y435681D01*
X226583Y435426D01*
X226606D01*
X226629Y435403D01*
X226768Y435310D01*
X226999Y435195D01*
X227277Y435056D01*
X227601Y434894D01*
X227948Y434732D01*
X228295Y434570D01*
X228642Y434431D01*
Y436328D01*
X228619D01*
X228573Y436375D01*
X228480Y436398D01*
X228364Y436467D01*
X228225Y436537D01*
X228063Y436629D01*
X227670Y436861D01*
X227207Y437115D01*
X226744Y437439D01*
X226259Y437809D01*
X225773Y438203D01*
X225749Y438226D01*
X225726Y438249D01*
X225657Y438318D01*
X225564Y438388D01*
X225356Y438619D01*
X225078Y438897D01*
X224801Y439221D01*
X224500Y439591D01*
X224245Y439961D01*
X224014Y440355D01*
D02*
G37*
G36*
X283228Y440285D02*
X280914D01*
X276749Y428646D01*
Y428623D01*
X276726Y428577D01*
X276702Y428507D01*
X276656Y428415D01*
X276633Y428276D01*
X276587Y428137D01*
X276471Y427790D01*
X276332Y427397D01*
X276193Y426957D01*
X275916Y426031D01*
Y426054D01*
X275893Y426101D01*
X275869Y426170D01*
X275846Y426263D01*
X275777Y426517D01*
X275661Y426864D01*
X275546Y427258D01*
X275407Y427697D01*
X275245Y428160D01*
X275060Y428646D01*
X270709Y440285D01*
X268557D01*
X274805Y424273D01*
X277026D01*
X283228Y440285D01*
D02*
G37*
G36*
X245927D02*
X243613D01*
X239448Y428646D01*
Y428623D01*
X239425Y428577D01*
X239402Y428507D01*
X239356Y428415D01*
X239332Y428276D01*
X239286Y428137D01*
X239170Y427790D01*
X239032Y427397D01*
X238893Y426957D01*
X238615Y426031D01*
Y426054D01*
X238592Y426101D01*
X238569Y426170D01*
X238546Y426263D01*
X238476Y426517D01*
X238361Y426864D01*
X238245Y427258D01*
X238106Y427697D01*
X237944Y428160D01*
X237759Y428646D01*
X233409Y440285D01*
X231257D01*
X237504Y424273D01*
X239726D01*
X245927Y440285D01*
D02*
G37*
G36*
X333093Y440563D02*
X332862D01*
X332700Y440540D01*
X332491Y440517D01*
X332237Y440494D01*
X331982Y440470D01*
X331682Y440401D01*
X331057Y440262D01*
X330363Y440054D01*
X330016Y439915D01*
X329692Y439753D01*
X329368Y439545D01*
X329044Y439337D01*
X329021Y439313D01*
X328974Y439290D01*
X328882Y439221D01*
X328766Y439105D01*
X328650Y438989D01*
X328488Y438827D01*
X328326Y438642D01*
X328141Y438457D01*
X327956Y438226D01*
X327771Y437948D01*
X327563Y437671D01*
X327378Y437370D01*
X327216Y437023D01*
X327031Y436675D01*
X326892Y436305D01*
X326753Y435889D01*
X328835Y435403D01*
Y435426D01*
X328859Y435472D01*
X328905Y435565D01*
X328951Y435681D01*
X328997Y435819D01*
X329067Y436004D01*
X329252Y436375D01*
X329483Y436791D01*
X329761Y437208D01*
X330108Y437601D01*
X330478Y437948D01*
X330525Y437994D01*
X330663Y438087D01*
X330895Y438203D01*
X331196Y438365D01*
X331589Y438503D01*
X332029Y438642D01*
X332561Y438735D01*
X333139Y438758D01*
X333325D01*
X333440Y438735D01*
X333602D01*
X333787Y438712D01*
X334227Y438642D01*
X334713Y438550D01*
X335222Y438388D01*
X335754Y438156D01*
X336240Y437856D01*
X336263D01*
X336286Y437809D01*
X336448Y437694D01*
X336657Y437509D01*
X336911Y437231D01*
X337212Y436884D01*
X337490Y436490D01*
X337744Y436004D01*
X337976Y435472D01*
Y435449D01*
X337999Y435403D01*
X338022Y435333D01*
X338045Y435218D01*
X338091Y435079D01*
X338138Y434917D01*
X338207Y434524D01*
X338299Y434061D01*
X338392Y433552D01*
X338438Y432996D01*
X338461Y432395D01*
Y432372D01*
Y432302D01*
Y432186D01*
Y432048D01*
X338438Y431886D01*
Y431677D01*
X338415Y431446D01*
X338392Y431191D01*
X338323Y430636D01*
X338207Y430034D01*
X338068Y429433D01*
X337883Y428831D01*
Y428808D01*
X337860Y428762D01*
X337814Y428692D01*
X337767Y428577D01*
X337629Y428299D01*
X337420Y427975D01*
X337166Y427605D01*
X336842Y427211D01*
X336471Y426864D01*
X336032Y426540D01*
X336009D01*
X335962Y426517D01*
X335893Y426471D01*
X335801Y426425D01*
X335685Y426378D01*
X335546Y426309D01*
X335222Y426170D01*
X334805Y426031D01*
X334343Y425916D01*
X333834Y425823D01*
X333301Y425800D01*
X333139D01*
X333001Y425823D01*
X332839D01*
X332677Y425846D01*
X332260Y425939D01*
X331774Y426054D01*
X331288Y426240D01*
X330779Y426494D01*
X330525Y426633D01*
X330293Y426818D01*
X330270Y426841D01*
X330247Y426864D01*
X330178Y426934D01*
X330085Y427003D01*
X329992Y427119D01*
X329877Y427258D01*
X329738Y427397D01*
X329622Y427582D01*
X329483Y427790D01*
X329321Y428021D01*
X329183Y428253D01*
X329044Y428530D01*
X328928Y428831D01*
X328812Y429155D01*
X328697Y429502D01*
X328604Y429873D01*
X326475Y429340D01*
Y429317D01*
X326498Y429225D01*
X326545Y429086D01*
X326614Y428901D01*
X326684Y428692D01*
X326776Y428438D01*
X326892Y428160D01*
X327031Y427859D01*
X327355Y427211D01*
X327771Y426564D01*
X328026Y426240D01*
X328280Y425916D01*
X328558Y425638D01*
X328882Y425360D01*
X328905Y425337D01*
X328951Y425291D01*
X329067Y425245D01*
X329183Y425152D01*
X329368Y425036D01*
X329553Y424921D01*
X329807Y424805D01*
X330062Y424689D01*
X330363Y424550D01*
X330687Y424435D01*
X331034Y424319D01*
X331404Y424203D01*
X331797Y424111D01*
X332214Y424064D01*
X332654Y424018D01*
X333116Y423995D01*
X333371D01*
X333556Y424018D01*
X333764D01*
X334019Y424041D01*
X334296Y424088D01*
X334620Y424134D01*
X335291Y424250D01*
X335986Y424435D01*
X336680Y424689D01*
X337004Y424851D01*
X337328Y425036D01*
X337351Y425060D01*
X337397Y425083D01*
X337490Y425152D01*
X337582Y425245D01*
X337721Y425337D01*
X337883Y425476D01*
X338068Y425638D01*
X338253Y425823D01*
X338438Y426031D01*
X338647Y426240D01*
X339063Y426772D01*
X339456Y427397D01*
X339804Y428091D01*
Y428114D01*
X339850Y428183D01*
X339873Y428299D01*
X339942Y428438D01*
X339989Y428623D01*
X340058Y428854D01*
X340151Y429109D01*
X340220Y429387D01*
X340289Y429687D01*
X340382Y430034D01*
X340498Y430752D01*
X340590Y431562D01*
X340637Y432395D01*
Y432649D01*
X340614Y432811D01*
Y433043D01*
X340590Y433274D01*
X340567Y433575D01*
X340521Y433876D01*
X340405Y434547D01*
X340243Y435287D01*
X340012Y436028D01*
X339688Y436745D01*
X339665Y436768D01*
X339642Y436838D01*
X339595Y436930D01*
X339503Y437046D01*
X339410Y437208D01*
X339295Y437393D01*
X338994Y437809D01*
X338600Y438272D01*
X338138Y438735D01*
X337605Y439198D01*
X336981Y439591D01*
X336957Y439614D01*
X336888Y439637D01*
X336796Y439684D01*
X336680Y439753D01*
X336495Y439822D01*
X336310Y439892D01*
X336078Y439984D01*
X335824Y440077D01*
X335546Y440169D01*
X335245Y440262D01*
X334597Y440401D01*
X333857Y440517D01*
X333093Y440563D01*
D02*
G37*
G36*
X356140Y440285D02*
X348712D01*
X348527Y440262D01*
X348319D01*
X347833Y440239D01*
X347324Y440169D01*
X346768Y440100D01*
X346259Y439984D01*
X346005Y439915D01*
X345797Y439846D01*
X345774D01*
X345750Y439822D01*
X345612Y439753D01*
X345403Y439660D01*
X345149Y439498D01*
X344871Y439290D01*
X344570Y439013D01*
X344293Y438689D01*
X344015Y438318D01*
Y438295D01*
X343992Y438272D01*
X343899Y438133D01*
X343807Y437902D01*
X343668Y437601D01*
X343552Y437254D01*
X343437Y436838D01*
X343367Y436398D01*
X343344Y435912D01*
Y435889D01*
Y435843D01*
Y435750D01*
X343367Y435634D01*
Y435472D01*
X343390Y435310D01*
X343483Y434917D01*
X343622Y434454D01*
X343807Y433968D01*
X344084Y433482D01*
X344269Y433251D01*
X344455Y433019D01*
X344478Y432996D01*
X344501Y432973D01*
X344570Y432904D01*
X344663Y432834D01*
X344779Y432742D01*
X344917Y432649D01*
X345103Y432533D01*
X345288Y432395D01*
X345519Y432279D01*
X345774Y432163D01*
X346051Y432024D01*
X346352Y431909D01*
X346699Y431816D01*
X347046Y431701D01*
X347440Y431631D01*
X347856Y431562D01*
X347810Y431539D01*
X347717Y431492D01*
X347578Y431400D01*
X347393Y431307D01*
X346977Y431053D01*
X346768Y430891D01*
X346583Y430752D01*
X346537Y430705D01*
X346422Y430590D01*
X346236Y430405D01*
X346005Y430173D01*
X345750Y429849D01*
X345450Y429502D01*
X345149Y429086D01*
X344825Y428623D01*
X342071Y424273D01*
X344709D01*
X346815Y427605D01*
Y427628D01*
X346861Y427674D01*
X346907Y427744D01*
X346977Y427836D01*
X347139Y428091D01*
X347347Y428415D01*
X347602Y428762D01*
X347856Y429132D01*
X348111Y429479D01*
X348342Y429803D01*
X348365Y429826D01*
X348435Y429919D01*
X348550Y430058D01*
X348712Y430220D01*
X349059Y430567D01*
X349244Y430729D01*
X349430Y430868D01*
X349453Y430891D01*
X349499Y430914D01*
X349592Y430960D01*
X349730Y431030D01*
X349869Y431099D01*
X350031Y431168D01*
X350401Y431284D01*
X350425D01*
X350471Y431307D01*
X350563D01*
X350679Y431330D01*
X350841Y431353D01*
X351026D01*
X351281Y431377D01*
X354011D01*
Y424273D01*
X356140D01*
Y440285D01*
D02*
G37*
G36*
X292136D02*
X289823D01*
X283274Y424273D01*
X285681D01*
X287555Y429132D01*
X294265D01*
X296001Y424273D01*
X298245D01*
X292136Y440285D01*
D02*
G37*
G36*
X266614D02*
X259186D01*
X259001Y440262D01*
X258792D01*
X258307Y440239D01*
X257798Y440169D01*
X257242Y440100D01*
X256733Y439984D01*
X256479Y439915D01*
X256270Y439846D01*
X256247D01*
X256224Y439822D01*
X256085Y439753D01*
X255877Y439660D01*
X255623Y439498D01*
X255345Y439290D01*
X255044Y439013D01*
X254766Y438689D01*
X254489Y438318D01*
Y438295D01*
X254466Y438272D01*
X254373Y438133D01*
X254280Y437902D01*
X254142Y437601D01*
X254026Y437254D01*
X253910Y436838D01*
X253841Y436398D01*
X253818Y435912D01*
Y435889D01*
Y435843D01*
Y435750D01*
X253841Y435634D01*
Y435472D01*
X253864Y435310D01*
X253956Y434917D01*
X254095Y434454D01*
X254280Y433968D01*
X254558Y433482D01*
X254743Y433251D01*
X254928Y433019D01*
X254951Y432996D01*
X254974Y432973D01*
X255044Y432904D01*
X255137Y432834D01*
X255252Y432742D01*
X255391Y432649D01*
X255576Y432533D01*
X255761Y432395D01*
X255993Y432279D01*
X256247Y432163D01*
X256525Y432024D01*
X256826Y431909D01*
X257173Y431816D01*
X257520Y431701D01*
X257913Y431631D01*
X258330Y431562D01*
X258284Y431539D01*
X258191Y431492D01*
X258052Y431400D01*
X257867Y431307D01*
X257451Y431053D01*
X257242Y430891D01*
X257057Y430752D01*
X257011Y430705D01*
X256895Y430590D01*
X256710Y430405D01*
X256479Y430173D01*
X256224Y429849D01*
X255923Y429502D01*
X255623Y429086D01*
X255299Y428623D01*
X252545Y424273D01*
X255183D01*
X257288Y427605D01*
Y427628D01*
X257335Y427674D01*
X257381Y427744D01*
X257451Y427836D01*
X257612Y428091D01*
X257821Y428415D01*
X258075Y428762D01*
X258330Y429132D01*
X258584Y429479D01*
X258816Y429803D01*
X258839Y429826D01*
X258908Y429919D01*
X259024Y430058D01*
X259186Y430220D01*
X259533Y430567D01*
X259718Y430729D01*
X259903Y430868D01*
X259926Y430891D01*
X259973Y430914D01*
X260065Y430960D01*
X260204Y431030D01*
X260343Y431099D01*
X260505Y431168D01*
X260875Y431284D01*
X260898D01*
X260944Y431307D01*
X261037D01*
X261153Y431330D01*
X261315Y431353D01*
X261500D01*
X261754Y431377D01*
X264485D01*
Y424273D01*
X266614D01*
Y440285D01*
D02*
G37*
G36*
X216586Y426517D02*
X214342D01*
Y424273D01*
X216586D01*
Y426517D01*
D02*
G37*
G36*
X318353Y440563D02*
X318053D01*
X317891Y440540D01*
X317729D01*
X317289Y440494D01*
X316803Y440424D01*
X316294Y440308D01*
X315739Y440169D01*
X315229Y439984D01*
X315206D01*
X315160Y439961D01*
X315091Y439915D01*
X314998Y439869D01*
X314767Y439753D01*
X314466Y439545D01*
X314119Y439313D01*
X313772Y439013D01*
X313448Y438666D01*
X313147Y438272D01*
Y438249D01*
X313124Y438226D01*
X313078Y438156D01*
X313031Y438087D01*
X312916Y437856D01*
X312777Y437555D01*
X312615Y437184D01*
X312499Y436745D01*
X312383Y436282D01*
X312337Y435773D01*
X314373Y435611D01*
Y435634D01*
Y435681D01*
X314396Y435750D01*
X314420Y435866D01*
X314489Y436120D01*
X314582Y436467D01*
X314720Y436838D01*
X314929Y437208D01*
X315183Y437555D01*
X315507Y437879D01*
X315553Y437902D01*
X315669Y437994D01*
X315901Y438133D01*
X316201Y438272D01*
X316595Y438411D01*
X317058Y438550D01*
X317636Y438642D01*
X318284Y438666D01*
X318608D01*
X318747Y438642D01*
X318932Y438619D01*
X319348Y438573D01*
X319811Y438480D01*
X320274Y438365D01*
X320714Y438180D01*
X320899Y438064D01*
X321084Y437948D01*
X321130Y437925D01*
X321223Y437832D01*
X321362Y437671D01*
X321500Y437485D01*
X321662Y437231D01*
X321801Y436953D01*
X321894Y436629D01*
X321940Y436259D01*
Y436213D01*
Y436120D01*
X321917Y435958D01*
X321871Y435773D01*
X321801Y435542D01*
X321685Y435310D01*
X321547Y435079D01*
X321338Y434847D01*
X321315Y434824D01*
X321199Y434755D01*
X321107Y434686D01*
X321014Y434639D01*
X320876Y434570D01*
X320714Y434477D01*
X320505Y434408D01*
X320274Y434315D01*
X320019Y434223D01*
X319719Y434107D01*
X319395Y434014D01*
X319024Y433899D01*
X318608Y433806D01*
X318145Y433690D01*
X318122D01*
X318029Y433667D01*
X317891Y433644D01*
X317729Y433598D01*
X317520Y433552D01*
X317266Y433482D01*
X317011Y433413D01*
X316734Y433343D01*
X316132Y433181D01*
X315553Y433019D01*
X315276Y432927D01*
X315021Y432834D01*
X314790Y432765D01*
X314605Y432672D01*
X314582D01*
X314535Y432649D01*
X314466Y432603D01*
X314373Y432557D01*
X314119Y432418D01*
X313818Y432233D01*
X313471Y431978D01*
X313124Y431701D01*
X312800Y431377D01*
X312522Y431030D01*
X312499Y430983D01*
X312407Y430868D01*
X312314Y430659D01*
X312175Y430382D01*
X312059Y430058D01*
X311944Y429664D01*
X311874Y429225D01*
X311851Y428762D01*
Y428554D01*
X311898Y428299D01*
X311944Y427975D01*
X312036Y427605D01*
X312152Y427211D01*
X312337Y426795D01*
X312592Y426355D01*
Y426332D01*
X312615Y426309D01*
X312731Y426170D01*
X312892Y425962D01*
X313124Y425731D01*
X313425Y425453D01*
X313795Y425152D01*
X314211Y424874D01*
X314697Y424620D01*
X314720D01*
X314767Y424597D01*
X314836Y424574D01*
X314929Y424527D01*
X315068Y424481D01*
X315229Y424412D01*
X315600Y424319D01*
X316039Y424203D01*
X316572Y424088D01*
X317150Y424018D01*
X317775Y423995D01*
X318145D01*
X318330Y424018D01*
X318538D01*
X318770Y424041D01*
X319048Y424064D01*
X319626Y424157D01*
X320228Y424250D01*
X320829Y424412D01*
X321408Y424620D01*
X321431D01*
X321477Y424643D01*
X321547Y424689D01*
X321639Y424735D01*
X321917Y424874D01*
X322241Y425083D01*
X322611Y425360D01*
X323004Y425684D01*
X323375Y426078D01*
X323722Y426517D01*
Y426540D01*
X323768Y426587D01*
X323791Y426656D01*
X323861Y426749D01*
X323907Y426864D01*
X323976Y427003D01*
X324138Y427350D01*
X324300Y427790D01*
X324439Y428276D01*
X324532Y428831D01*
X324578Y429410D01*
X322588Y429595D01*
Y429572D01*
Y429548D01*
X322565Y429479D01*
Y429387D01*
X322519Y429178D01*
X322449Y428877D01*
X322356Y428577D01*
X322264Y428230D01*
X322102Y427906D01*
X321940Y427605D01*
X321917Y427582D01*
X321847Y427489D01*
X321732Y427327D01*
X321547Y427165D01*
X321315Y426957D01*
X321061Y426749D01*
X320714Y426540D01*
X320343Y426355D01*
X320320D01*
X320297Y426332D01*
X320228Y426309D01*
X320158Y426286D01*
X319927Y426217D01*
X319626Y426124D01*
X319256Y426031D01*
X318839Y425962D01*
X318377Y425916D01*
X317867Y425892D01*
X317659D01*
X317428Y425916D01*
X317150Y425939D01*
X316826Y425985D01*
X316456Y426031D01*
X316086Y426124D01*
X315739Y426240D01*
X315692Y426263D01*
X315577Y426309D01*
X315415Y426402D01*
X315206Y426494D01*
X314998Y426656D01*
X314767Y426818D01*
X314535Y427003D01*
X314350Y427235D01*
X314327Y427258D01*
X314281Y427350D01*
X314211Y427466D01*
X314119Y427651D01*
X314026Y427836D01*
X313957Y428068D01*
X313911Y428322D01*
X313888Y428600D01*
Y428623D01*
Y428739D01*
X313911Y428877D01*
X313934Y429063D01*
X314003Y429248D01*
X314073Y429479D01*
X314188Y429711D01*
X314350Y429919D01*
X314373Y429942D01*
X314443Y430011D01*
X314535Y430104D01*
X314697Y430243D01*
X314883Y430382D01*
X315137Y430544D01*
X315438Y430705D01*
X315785Y430844D01*
X315808Y430868D01*
X315924Y430891D01*
X316109Y430960D01*
X316224Y430983D01*
X316387Y431030D01*
X316549Y431099D01*
X316757Y431145D01*
X316988Y431215D01*
X317266Y431284D01*
X317544Y431353D01*
X317867Y431446D01*
X318238Y431539D01*
X318631Y431631D01*
X318654D01*
X318724Y431654D01*
X318839Y431677D01*
X318978Y431724D01*
X319163Y431770D01*
X319371Y431816D01*
X319834Y431955D01*
X320343Y432117D01*
X320876Y432279D01*
X321338Y432441D01*
X321547Y432533D01*
X321732Y432626D01*
X321755D01*
X321778Y432649D01*
X321917Y432742D01*
X322125Y432858D01*
X322356Y433043D01*
X322634Y433251D01*
X322912Y433505D01*
X323190Y433806D01*
X323421Y434130D01*
X323444Y434176D01*
X323513Y434292D01*
X323606Y434477D01*
X323699Y434709D01*
X323791Y435009D01*
X323884Y435356D01*
X323953Y435727D01*
X323976Y436120D01*
Y436143D01*
Y436166D01*
Y436236D01*
Y436328D01*
X323930Y436560D01*
X323884Y436861D01*
X323814Y437208D01*
X323699Y437601D01*
X323537Y437994D01*
X323305Y438388D01*
Y438411D01*
X323282Y438434D01*
X323166Y438573D01*
X323004Y438758D01*
X322796Y438989D01*
X322519Y439244D01*
X322171Y439522D01*
X321755Y439776D01*
X321292Y440008D01*
X321269D01*
X321223Y440031D01*
X321153Y440054D01*
X321061Y440100D01*
X320945Y440146D01*
X320783Y440193D01*
X320436Y440285D01*
X319996Y440378D01*
X319487Y440470D01*
X318955Y440540D01*
X318353Y440563D01*
D02*
G37*
G36*
X206243Y440355D02*
X206035D01*
X205780Y440331D01*
X205479Y440285D01*
X205132Y440216D01*
X204762Y440123D01*
X204369Y440008D01*
X203998Y439822D01*
X203975D01*
X203952Y439799D01*
X203836Y439730D01*
X203651Y439614D01*
X203420Y439452D01*
X203165Y439221D01*
X202888Y438966D01*
X202633Y438666D01*
X202379Y438318D01*
X202356Y438272D01*
X202263Y438156D01*
X202170Y437948D01*
X202008Y437647D01*
X201870Y437300D01*
X201684Y436907D01*
X201523Y436444D01*
X201384Y435935D01*
Y435912D01*
X201361Y435866D01*
X201337Y435796D01*
X201314Y435681D01*
X201291Y435542D01*
X201268Y435380D01*
X201222Y435171D01*
X201199Y434940D01*
X201152Y434686D01*
X201129Y434408D01*
X201106Y434084D01*
X201060Y433760D01*
X201037Y433390D01*
Y433019D01*
X201014Y432603D01*
Y431701D01*
X201037Y431446D01*
Y431168D01*
X201060Y430868D01*
X201083Y430544D01*
X201152Y429803D01*
X201268Y429039D01*
X201407Y428299D01*
X201499Y427952D01*
X201615Y427605D01*
Y427582D01*
X201638Y427535D01*
X201684Y427443D01*
X201731Y427327D01*
X201777Y427165D01*
X201870Y427003D01*
X202055Y426610D01*
X202286Y426193D01*
X202587Y425731D01*
X202934Y425314D01*
X203351Y424921D01*
X203374D01*
X203397Y424874D01*
X203466Y424828D01*
X203559Y424782D01*
X203675Y424712D01*
X203790Y424620D01*
X204137Y424458D01*
X204554Y424296D01*
X205040Y424134D01*
X205618Y424041D01*
X206243Y423995D01*
X206474D01*
X206636Y424018D01*
X206821Y424041D01*
X207053Y424088D01*
X207307Y424134D01*
X207585Y424203D01*
X207863Y424296D01*
X208164Y424389D01*
X208464Y424527D01*
X208765Y424689D01*
X209066Y424874D01*
X209367Y425106D01*
X209645Y425360D01*
X209899Y425638D01*
X209922Y425661D01*
X209968Y425731D01*
X210038Y425846D01*
X210154Y426031D01*
X210269Y426240D01*
X210385Y426517D01*
X210547Y426841D01*
X210686Y427211D01*
X210825Y427628D01*
X210963Y428114D01*
X211102Y428646D01*
X211218Y429248D01*
X211334Y429896D01*
X211403Y430590D01*
X211449Y431353D01*
X211472Y432163D01*
Y432626D01*
X211449Y432881D01*
Y433158D01*
X211426Y433459D01*
X211403Y433806D01*
X211334Y434524D01*
X211218Y435287D01*
X211079Y436051D01*
X210986Y436398D01*
X210894Y436745D01*
Y436768D01*
X210871Y436814D01*
X210825Y436907D01*
X210778Y437023D01*
X210732Y437184D01*
X210639Y437346D01*
X210454Y437740D01*
X210223Y438156D01*
X209922Y438596D01*
X209575Y439036D01*
X209158Y439406D01*
X209135D01*
X209112Y439452D01*
X209043Y439498D01*
X208950Y439545D01*
X208835Y439637D01*
X208696Y439707D01*
X208349Y439892D01*
X207932Y440054D01*
X207446Y440216D01*
X206868Y440308D01*
X206243Y440355D01*
D02*
G37*
G36*
X311018Y421241D02*
X297991D01*
Y419830D01*
X311018D01*
Y421241D01*
D02*
G37*
G36*
X342927Y416410D02*
X340961D01*
Y414165D01*
X342927D01*
Y416410D01*
D02*
G37*
G36*
X306876D02*
X304909D01*
Y410694D01*
X304886Y410718D01*
X304863Y410764D01*
X304794Y410833D01*
X304678Y410949D01*
X304562Y411065D01*
X304423Y411203D01*
X304238Y411342D01*
X304053Y411481D01*
X303590Y411782D01*
X303058Y412013D01*
X302757Y412129D01*
X302433Y412198D01*
X302086Y412245D01*
X301739Y412268D01*
X301554D01*
X301346Y412245D01*
X301091Y412221D01*
X300791Y412152D01*
X300443Y412083D01*
X300073Y411967D01*
X299726Y411828D01*
X299680Y411805D01*
X299564Y411759D01*
X299379Y411643D01*
X299171Y411504D01*
X298916Y411342D01*
X298662Y411134D01*
X298384Y410879D01*
X298153Y410602D01*
X298130Y410579D01*
X298060Y410463D01*
X297944Y410301D01*
X297806Y410093D01*
X297644Y409815D01*
X297482Y409491D01*
X297320Y409121D01*
X297181Y408727D01*
Y408704D01*
X297158Y408681D01*
X297134Y408612D01*
X297111Y408542D01*
X297065Y408311D01*
X296996Y408010D01*
X296926Y407663D01*
X296857Y407270D01*
X296834Y406830D01*
X296811Y406367D01*
Y406090D01*
X296834Y405881D01*
X296857Y405627D01*
X296880Y405349D01*
X296926Y405025D01*
X296996Y404678D01*
X297181Y403938D01*
X297297Y403544D01*
X297435Y403174D01*
X297597Y402781D01*
X297806Y402434D01*
X298037Y402086D01*
X298291Y401763D01*
X298315Y401739D01*
X298361Y401693D01*
X298430Y401624D01*
X298546Y401508D01*
X298708Y401392D01*
X298870Y401254D01*
X299055Y401115D01*
X299286Y400953D01*
X299541Y400814D01*
X299796Y400652D01*
X300420Y400397D01*
X300744Y400282D01*
X301091Y400212D01*
X301462Y400166D01*
X301832Y400143D01*
X301924D01*
X302040Y400166D01*
X302179D01*
X302341Y400189D01*
X302549Y400235D01*
X303012Y400351D01*
X303267Y400444D01*
X303521Y400559D01*
X303799Y400698D01*
X304053Y400860D01*
X304331Y401068D01*
X304585Y401300D01*
X304817Y401554D01*
X305048Y401855D01*
Y400397D01*
X306876D01*
Y416410D01*
D02*
G37*
G36*
X331728D02*
X329761D01*
Y410671D01*
X329738Y410694D01*
X329692Y410741D01*
X329622Y410810D01*
X329507Y410926D01*
X329391Y411041D01*
X329229Y411180D01*
X329021Y411319D01*
X328812Y411481D01*
X328581Y411620D01*
X328326Y411759D01*
X327725Y412013D01*
X327401Y412129D01*
X327054Y412198D01*
X326684Y412245D01*
X326313Y412268D01*
X326105D01*
X325850Y412245D01*
X325550Y412198D01*
X325203Y412152D01*
X324832Y412060D01*
X324462Y411921D01*
X324092Y411759D01*
X324046Y411736D01*
X323930Y411666D01*
X323768Y411550D01*
X323560Y411389D01*
X323352Y411180D01*
X323120Y410949D01*
X322912Y410671D01*
X322727Y410347D01*
X322704Y410301D01*
X322657Y410185D01*
X322588Y409977D01*
X322519Y409676D01*
X322449Y409306D01*
X322380Y408866D01*
X322333Y408334D01*
X322310Y407733D01*
Y400397D01*
X324277D01*
Y407756D01*
Y407779D01*
Y407825D01*
Y407895D01*
Y407987D01*
X324300Y408242D01*
X324347Y408565D01*
X324439Y408913D01*
X324555Y409260D01*
X324717Y409607D01*
X324925Y409884D01*
X324948Y409908D01*
X325041Y410000D01*
X325179Y410116D01*
X325388Y410232D01*
X325642Y410370D01*
X325943Y410463D01*
X326313Y410555D01*
X326730Y410579D01*
X326869D01*
X327031Y410555D01*
X327262Y410532D01*
X327493Y410463D01*
X327771Y410393D01*
X328049Y410278D01*
X328350Y410116D01*
X328373Y410093D01*
X328465Y410023D01*
X328604Y409931D01*
X328766Y409792D01*
X328951Y409607D01*
X329136Y409398D01*
X329298Y409144D01*
X329437Y408866D01*
X329460Y408820D01*
X329483Y408727D01*
X329530Y408542D01*
X329599Y408311D01*
X329669Y408010D01*
X329715Y407640D01*
X329738Y407223D01*
X329761Y406738D01*
Y400397D01*
X331728D01*
Y416410D01*
D02*
G37*
G36*
X351119Y412268D02*
X350910D01*
X350772Y412245D01*
X350610Y412221D01*
X350401Y412175D01*
X350170Y412129D01*
X349916Y412060D01*
X349661Y411967D01*
X349383Y411851D01*
X349106Y411712D01*
X348805Y411550D01*
X348527Y411365D01*
X348250Y411134D01*
X347972Y410879D01*
X347717Y410579D01*
Y412013D01*
X345912D01*
Y401531D01*
X345936Y401323D01*
Y401068D01*
X345959Y400791D01*
X345982Y400490D01*
X346051Y399865D01*
X346144Y399217D01*
X346213Y398916D01*
X346283Y398639D01*
X346375Y398384D01*
X346468Y398153D01*
Y398130D01*
X346491Y398106D01*
X346583Y397968D01*
X346699Y397759D01*
X346884Y397505D01*
X347139Y397227D01*
X347440Y396926D01*
X347810Y396626D01*
X348226Y396371D01*
X348250D01*
X348273Y396348D01*
X348342Y396302D01*
X348435Y396278D01*
X348550Y396209D01*
X348689Y396163D01*
X349036Y396047D01*
X349453Y395908D01*
X349962Y395816D01*
X350540Y395723D01*
X351165Y395700D01*
X351373D01*
X351512Y395723D01*
X351697D01*
X351882Y395746D01*
X352114Y395769D01*
X352368Y395816D01*
X352901Y395931D01*
X353456Y396093D01*
X354011Y396325D01*
X354520Y396649D01*
X354543Y396672D01*
X354566Y396695D01*
X354729Y396834D01*
X354914Y397042D01*
X355145Y397343D01*
X355376Y397736D01*
X355585Y398222D01*
X355654Y398500D01*
X355700Y398801D01*
X355747Y399101D01*
Y399449D01*
X353826Y399194D01*
Y399148D01*
X353803Y399055D01*
X353757Y398893D01*
X353710Y398685D01*
X353618Y398477D01*
X353502Y398269D01*
X353363Y398060D01*
X353178Y397898D01*
X353132Y397875D01*
X353039Y397806D01*
X352877Y397713D01*
X352646Y397621D01*
X352368Y397505D01*
X352021Y397412D01*
X351605Y397343D01*
X351165Y397320D01*
X350934D01*
X350702Y397343D01*
X350378Y397389D01*
X350054Y397459D01*
X349707Y397551D01*
X349360Y397690D01*
X349059Y397875D01*
X349036Y397898D01*
X348944Y397968D01*
X348805Y398106D01*
X348643Y398269D01*
X348481Y398500D01*
X348319Y398754D01*
X348157Y399055D01*
X348041Y399402D01*
Y399425D01*
X348018Y399518D01*
X347995Y399703D01*
X347972Y399935D01*
X347949Y400097D01*
Y400282D01*
X347925Y400490D01*
Y400721D01*
Y400976D01*
X347902Y401277D01*
Y401577D01*
Y401925D01*
X347925Y401901D01*
X347972Y401855D01*
X348041Y401786D01*
X348134Y401693D01*
X348250Y401577D01*
X348411Y401439D01*
X348597Y401300D01*
X348782Y401161D01*
X349268Y400883D01*
X349800Y400629D01*
X350101Y400536D01*
X350425Y400467D01*
X350772Y400420D01*
X351119Y400397D01*
X351235D01*
X351350Y400420D01*
X351512D01*
X351720Y400444D01*
X351952Y400490D01*
X352206Y400536D01*
X352484Y400606D01*
X352785Y400698D01*
X353086Y400814D01*
X353386Y400953D01*
X353710Y401115D01*
X354011Y401323D01*
X354312Y401554D01*
X354590Y401809D01*
X354844Y402110D01*
X354867Y402133D01*
X354891Y402179D01*
X354960Y402295D01*
X355052Y402410D01*
X355145Y402595D01*
X355261Y402781D01*
X355376Y403012D01*
X355492Y403290D01*
X355608Y403567D01*
X355723Y403891D01*
X355839Y404215D01*
X355932Y404585D01*
X356094Y405372D01*
X356117Y405812D01*
X356140Y406252D01*
Y406529D01*
X356117Y406691D01*
Y406853D01*
X356071Y407270D01*
X356001Y407733D01*
X355886Y408242D01*
X355747Y408774D01*
X355538Y409306D01*
Y409329D01*
X355515Y409375D01*
X355469Y409445D01*
X355423Y409537D01*
X355284Y409792D01*
X355099Y410116D01*
X354844Y410463D01*
X354543Y410810D01*
X354196Y411180D01*
X353803Y411481D01*
X353780D01*
X353757Y411504D01*
X353687Y411550D01*
X353595Y411597D01*
X353363Y411736D01*
X353039Y411874D01*
X352646Y412013D01*
X352183Y412152D01*
X351674Y412245D01*
X351119Y412268D01*
D02*
G37*
G36*
X259255D02*
X259047D01*
X258792Y412245D01*
X258515Y412198D01*
X258168Y412129D01*
X257821Y412036D01*
X257474Y411898D01*
X257150Y411712D01*
X257103Y411689D01*
X257011Y411620D01*
X256872Y411504D01*
X256687Y411319D01*
X256502Y411111D01*
X256294Y410856D01*
X256108Y410555D01*
X255970Y410208D01*
X255946Y410232D01*
X255900Y410301D01*
X255831Y410393D01*
X255715Y410532D01*
X255576Y410694D01*
X255414Y410856D01*
X255229Y411041D01*
X254998Y411250D01*
X254743Y411435D01*
X254489Y411620D01*
X254188Y411782D01*
X253864Y411944D01*
X253517Y412083D01*
X253146Y412175D01*
X252776Y412245D01*
X252360Y412268D01*
X252198D01*
X252082Y412245D01*
X251920D01*
X251758Y412221D01*
X251365Y412152D01*
X250948Y412036D01*
X250509Y411851D01*
X250069Y411620D01*
X249699Y411296D01*
X249653Y411250D01*
X249560Y411111D01*
X249398Y410903D01*
X249328Y410741D01*
X249236Y410579D01*
X249143Y410370D01*
X249074Y410162D01*
X248981Y409931D01*
X248912Y409653D01*
X248866Y409375D01*
X248820Y409051D01*
X248773Y408727D01*
Y400397D01*
X250740D01*
Y407686D01*
Y407709D01*
Y407733D01*
Y407871D01*
Y408080D01*
X250763Y408334D01*
X250786Y408612D01*
X250809Y408890D01*
X250856Y409167D01*
X250925Y409375D01*
Y409398D01*
X250971Y409468D01*
X251018Y409561D01*
X251087Y409676D01*
X251180Y409815D01*
X251295Y409954D01*
X251434Y410093D01*
X251619Y410232D01*
X251642Y410255D01*
X251712Y410278D01*
X251804Y410324D01*
X251966Y410393D01*
X252128Y410463D01*
X252337Y410509D01*
X252545Y410532D01*
X252799Y410555D01*
X252915D01*
X253008Y410532D01*
X253239Y410509D01*
X253517Y410463D01*
X253841Y410347D01*
X254188Y410208D01*
X254535Y410000D01*
X254859Y409723D01*
X254882Y409676D01*
X254974Y409561D01*
X255113Y409375D01*
X255252Y409098D01*
X255414Y408727D01*
X255530Y408288D01*
X255623Y407756D01*
X255669Y407131D01*
Y400397D01*
X257636D01*
Y407918D01*
Y407941D01*
Y407987D01*
Y408033D01*
Y408126D01*
X257659Y408380D01*
X257705Y408658D01*
X257751Y408982D01*
X257844Y409306D01*
X257959Y409607D01*
X258121Y409884D01*
X258145Y409908D01*
X258214Y410000D01*
X258330Y410093D01*
X258492Y410232D01*
X258700Y410347D01*
X258978Y410463D01*
X259302Y410532D01*
X259695Y410555D01*
X259834D01*
X259996Y410532D01*
X260181Y410509D01*
X260412Y410440D01*
X260690Y410370D01*
X260944Y410255D01*
X261222Y410116D01*
X261245Y410093D01*
X261338Y410023D01*
X261454Y409931D01*
X261616Y409792D01*
X261777Y409607D01*
X261940Y409375D01*
X262101Y409121D01*
X262240Y408820D01*
X262264Y408774D01*
X262287Y408658D01*
X262333Y408473D01*
X262402Y408218D01*
X262472Y407871D01*
X262518Y407455D01*
X262541Y406969D01*
X262564Y406413D01*
Y400397D01*
X264531D01*
Y412013D01*
X262773D01*
Y410347D01*
X262749Y410393D01*
X262680Y410486D01*
X262541Y410648D01*
X262379Y410833D01*
X262171Y411065D01*
X261916Y411296D01*
X261639Y411527D01*
X261315Y411736D01*
X261269Y411759D01*
X261153Y411828D01*
X260968Y411898D01*
X260713Y412013D01*
X260412Y412106D01*
X260065Y412175D01*
X259672Y412245D01*
X259255Y412268D01*
D02*
G37*
G36*
X131294Y416202D02*
X123335D01*
Y414327D01*
X129744D01*
X130600Y410000D01*
X130577Y410023D01*
X130531Y410046D01*
X130461Y410093D01*
X130346Y410162D01*
X130207Y410232D01*
X130045Y410324D01*
X129675Y410509D01*
X129212Y410694D01*
X128703Y410856D01*
X128147Y410972D01*
X127870Y411018D01*
X127361D01*
X127222Y410995D01*
X127037Y410972D01*
X126828Y410949D01*
X126597Y410903D01*
X126343Y410833D01*
X125787Y410671D01*
X125486Y410555D01*
X125186Y410393D01*
X124885Y410232D01*
X124584Y410046D01*
X124306Y409815D01*
X124029Y409561D01*
X124005Y409537D01*
X123959Y409491D01*
X123890Y409422D01*
X123797Y409306D01*
X123682Y409144D01*
X123566Y408982D01*
X123427Y408774D01*
X123288Y408542D01*
X123173Y408288D01*
X123034Y408010D01*
X122918Y407686D01*
X122802Y407362D01*
X122710Y407015D01*
X122640Y406622D01*
X122594Y406228D01*
X122571Y405812D01*
Y405604D01*
X122594Y405442D01*
X122617Y405257D01*
X122640Y405048D01*
X122687Y404794D01*
X122733Y404539D01*
X122872Y403938D01*
X123103Y403313D01*
X123242Y402989D01*
X123427Y402688D01*
X123612Y402364D01*
X123844Y402063D01*
X123867Y402040D01*
X123913Y401971D01*
X124005Y401878D01*
X124121Y401763D01*
X124283Y401624D01*
X124468Y401439D01*
X124700Y401277D01*
X124954Y401091D01*
X125232Y400906D01*
X125556Y400744D01*
X125903Y400582D01*
X126273Y400420D01*
X126667Y400305D01*
X127106Y400212D01*
X127569Y400143D01*
X128055Y400120D01*
X128263D01*
X128425Y400143D01*
X128610Y400166D01*
X128819Y400189D01*
X129073Y400212D01*
X129328Y400282D01*
X129906Y400420D01*
X130485Y400629D01*
X130785Y400768D01*
X131086Y400929D01*
X131364Y401115D01*
X131642Y401323D01*
X131665Y401346D01*
X131711Y401369D01*
X131757Y401462D01*
X131850Y401554D01*
X131966Y401670D01*
X132081Y401809D01*
X132220Y401994D01*
X132336Y402202D01*
X132475Y402410D01*
X132613Y402665D01*
X132868Y403220D01*
X133076Y403868D01*
X133146Y404215D01*
X133192Y404585D01*
X131132Y404748D01*
Y404724D01*
Y404678D01*
X131109Y404609D01*
X131086Y404493D01*
X131017Y404238D01*
X130924Y403891D01*
X130785Y403544D01*
X130600Y403151D01*
X130369Y402804D01*
X130091Y402480D01*
X130045Y402457D01*
X129952Y402364D01*
X129767Y402248D01*
X129513Y402110D01*
X129235Y401971D01*
X128888Y401855D01*
X128495Y401763D01*
X128055Y401739D01*
X127916D01*
X127823Y401763D01*
X127546Y401786D01*
X127222Y401878D01*
X126828Y401994D01*
X126435Y402179D01*
X126019Y402457D01*
X125834Y402619D01*
X125648Y402804D01*
X125625Y402827D01*
X125602Y402850D01*
X125556Y402920D01*
X125486Y402989D01*
X125324Y403243D01*
X125139Y403567D01*
X124977Y403961D01*
X124815Y404447D01*
X124700Y405025D01*
X124653Y405326D01*
Y405650D01*
Y405673D01*
Y405719D01*
Y405812D01*
X124677Y405928D01*
Y406066D01*
X124700Y406228D01*
X124769Y406599D01*
X124885Y407038D01*
X125047Y407478D01*
X125278Y407895D01*
X125602Y408288D01*
Y408311D01*
X125648Y408334D01*
X125764Y408450D01*
X125972Y408612D01*
X126250Y408797D01*
X126620Y408959D01*
X127037Y409121D01*
X127523Y409236D01*
X127800Y409283D01*
X128240D01*
X128425Y409260D01*
X128657Y409236D01*
X128934Y409167D01*
X129212Y409098D01*
X129513Y408982D01*
X129813Y408843D01*
X129837Y408820D01*
X129929Y408774D01*
X130068Y408658D01*
X130253Y408542D01*
X130438Y408380D01*
X130623Y408172D01*
X130832Y407964D01*
X130994Y407709D01*
X132845Y407964D01*
X131294Y416202D01*
D02*
G37*
G36*
X234728Y412268D02*
X234473D01*
X234219Y412245D01*
X233871Y412221D01*
X233478Y412175D01*
X233085Y412106D01*
X232691Y412013D01*
X232321Y411898D01*
X232275Y411874D01*
X232159Y411828D01*
X231997Y411759D01*
X231789Y411666D01*
X231558Y411527D01*
X231326Y411389D01*
X231118Y411203D01*
X230933Y411018D01*
X230910Y410995D01*
X230863Y410926D01*
X230794Y410810D01*
X230701Y410671D01*
X230586Y410463D01*
X230493Y410255D01*
X230401Y410000D01*
X230331Y409699D01*
Y409676D01*
X230308Y409607D01*
X230285Y409468D01*
X230262Y409283D01*
Y409028D01*
X230238Y408727D01*
X230215Y408334D01*
Y407895D01*
Y405257D01*
Y405233D01*
Y405141D01*
Y405002D01*
Y404817D01*
Y404609D01*
Y404354D01*
X230192Y403799D01*
Y403220D01*
X230169Y402642D01*
X230146Y402387D01*
Y402156D01*
X230123Y401948D01*
X230100Y401786D01*
Y401763D01*
X230077Y401670D01*
X230053Y401531D01*
X229984Y401346D01*
X229938Y401138D01*
X229845Y400906D01*
X229729Y400652D01*
X229614Y400397D01*
X231673D01*
X231696Y400420D01*
X231719Y400513D01*
X231766Y400629D01*
X231835Y400814D01*
X231905Y401022D01*
X231951Y401277D01*
X231997Y401554D01*
X232043Y401855D01*
X232066D01*
X232090Y401809D01*
X232229Y401693D01*
X232437Y401531D01*
X232714Y401323D01*
X233062Y401115D01*
X233409Y400883D01*
X233779Y400675D01*
X234172Y400513D01*
X234219Y400490D01*
X234357Y400467D01*
X234566Y400397D01*
X234820Y400328D01*
X235144Y400258D01*
X235514Y400212D01*
X235931Y400166D01*
X236347Y400143D01*
X236532D01*
X236671Y400166D01*
X236833D01*
X237018Y400189D01*
X237435Y400258D01*
X237898Y400374D01*
X238407Y400536D01*
X238869Y400768D01*
X239286Y401068D01*
X239332Y401115D01*
X239448Y401230D01*
X239610Y401439D01*
X239795Y401716D01*
X239980Y402063D01*
X240142Y402457D01*
X240258Y402943D01*
X240281Y403174D01*
X240304Y403452D01*
Y403591D01*
X240281Y403753D01*
X240258Y403961D01*
X240212Y404215D01*
X240142Y404470D01*
X240050Y404748D01*
X239934Y405002D01*
X239911Y405025D01*
X239865Y405118D01*
X239772Y405257D01*
X239656Y405419D01*
X239517Y405604D01*
X239332Y405789D01*
X239147Y405974D01*
X238916Y406136D01*
X238893Y406159D01*
X238800Y406205D01*
X238684Y406298D01*
X238499Y406390D01*
X238291Y406483D01*
X238036Y406599D01*
X237782Y406691D01*
X237481Y406784D01*
X237458D01*
X237365Y406807D01*
X237227Y406853D01*
X237041Y406876D01*
X236810Y406923D01*
X236509Y406969D01*
X236162Y407038D01*
X235746Y407085D01*
X235723D01*
X235630Y407108D01*
X235514D01*
X235352Y407131D01*
X235167Y407154D01*
X234936Y407200D01*
X234681Y407223D01*
X234404Y407270D01*
X233848Y407385D01*
X233247Y407501D01*
X232714Y407640D01*
X232460Y407709D01*
X232229Y407779D01*
Y407802D01*
Y407848D01*
X232205Y407987D01*
Y408149D01*
Y408242D01*
Y408288D01*
Y408311D01*
Y408334D01*
Y408473D01*
X232229Y408704D01*
X232275Y408959D01*
X232344Y409236D01*
X232460Y409514D01*
X232599Y409769D01*
X232784Y409977D01*
X232807Y410000D01*
X232923Y410093D01*
X233108Y410185D01*
X233339Y410324D01*
X233663Y410440D01*
X234033Y410555D01*
X234496Y410625D01*
X235028Y410648D01*
X235260D01*
X235491Y410625D01*
X235815Y410579D01*
X236139Y410532D01*
X236486Y410440D01*
X236810Y410324D01*
X237088Y410162D01*
X237111Y410139D01*
X237204Y410070D01*
X237319Y409954D01*
X237458Y409769D01*
X237597Y409537D01*
X237759Y409236D01*
X237898Y408866D01*
X238036Y408450D01*
X239957Y408704D01*
Y408727D01*
X239934Y408751D01*
Y408820D01*
X239911Y408913D01*
X239841Y409121D01*
X239749Y409422D01*
X239633Y409723D01*
X239494Y410046D01*
X239309Y410370D01*
X239101Y410671D01*
X239078Y410694D01*
X238985Y410787D01*
X238846Y410926D01*
X238661Y411111D01*
X238407Y411296D01*
X238106Y411481D01*
X237759Y411689D01*
X237365Y411851D01*
X237342D01*
X237319Y411874D01*
X237250Y411898D01*
X237157Y411921D01*
X236926Y411990D01*
X236602Y412060D01*
X236232Y412129D01*
X235769Y412198D01*
X235283Y412245D01*
X234728Y412268D01*
D02*
G37*
G36*
X227022Y416410D02*
X224893D01*
Y408450D01*
X216980Y416410D01*
X214087D01*
X220798Y409908D01*
X213786Y400397D01*
X216586D01*
X222279Y408473D01*
X224893Y405951D01*
Y400397D01*
X227022D01*
Y416410D01*
D02*
G37*
G36*
X207354Y412268D02*
X207099D01*
X206845Y412245D01*
X206497Y412221D01*
X206104Y412175D01*
X205711Y412106D01*
X205317Y412013D01*
X204947Y411898D01*
X204901Y411874D01*
X204785Y411828D01*
X204623Y411759D01*
X204415Y411666D01*
X204184Y411527D01*
X203952Y411389D01*
X203744Y411203D01*
X203559Y411018D01*
X203536Y410995D01*
X203489Y410926D01*
X203420Y410810D01*
X203327Y410671D01*
X203212Y410463D01*
X203119Y410255D01*
X203027Y410000D01*
X202957Y409699D01*
Y409676D01*
X202934Y409607D01*
X202911Y409468D01*
X202888Y409283D01*
Y409028D01*
X202865Y408727D01*
X202841Y408334D01*
Y407895D01*
Y405257D01*
Y405233D01*
Y405141D01*
Y405002D01*
Y404817D01*
Y404609D01*
Y404354D01*
X202818Y403799D01*
Y403220D01*
X202795Y402642D01*
X202772Y402387D01*
Y402156D01*
X202749Y401948D01*
X202726Y401786D01*
Y401763D01*
X202703Y401670D01*
X202680Y401531D01*
X202610Y401346D01*
X202564Y401138D01*
X202471Y400906D01*
X202356Y400652D01*
X202240Y400397D01*
X204299D01*
X204322Y400420D01*
X204345Y400513D01*
X204392Y400629D01*
X204461Y400814D01*
X204531Y401022D01*
X204577Y401277D01*
X204623Y401554D01*
X204669Y401855D01*
X204693D01*
X204716Y401809D01*
X204855Y401693D01*
X205063Y401531D01*
X205340Y401323D01*
X205688Y401115D01*
X206035Y400883D01*
X206405Y400675D01*
X206798Y400513D01*
X206845Y400490D01*
X206983Y400467D01*
X207192Y400397D01*
X207446Y400328D01*
X207770Y400258D01*
X208140Y400212D01*
X208557Y400166D01*
X208973Y400143D01*
X209158D01*
X209297Y400166D01*
X209459D01*
X209645Y400189D01*
X210061Y400258D01*
X210524Y400374D01*
X211033Y400536D01*
X211496Y400768D01*
X211912Y401068D01*
X211958Y401115D01*
X212074Y401230D01*
X212236Y401439D01*
X212421Y401716D01*
X212606Y402063D01*
X212768Y402457D01*
X212884Y402943D01*
X212907Y403174D01*
X212930Y403452D01*
Y403591D01*
X212907Y403753D01*
X212884Y403961D01*
X212838Y404215D01*
X212768Y404470D01*
X212676Y404748D01*
X212560Y405002D01*
X212537Y405025D01*
X212491Y405118D01*
X212398Y405257D01*
X212282Y405419D01*
X212143Y405604D01*
X211958Y405789D01*
X211773Y405974D01*
X211542Y406136D01*
X211519Y406159D01*
X211426Y406205D01*
X211311Y406298D01*
X211125Y406390D01*
X210917Y406483D01*
X210663Y406599D01*
X210408Y406691D01*
X210107Y406784D01*
X210084D01*
X209992Y406807D01*
X209853Y406853D01*
X209668Y406876D01*
X209436Y406923D01*
X209135Y406969D01*
X208788Y407038D01*
X208372Y407085D01*
X208349D01*
X208256Y407108D01*
X208140D01*
X207978Y407131D01*
X207793Y407154D01*
X207562Y407200D01*
X207307Y407223D01*
X207030Y407270D01*
X206474Y407385D01*
X205873Y407501D01*
X205340Y407640D01*
X205086Y407709D01*
X204855Y407779D01*
Y407802D01*
Y407848D01*
X204832Y407987D01*
Y408149D01*
Y408242D01*
Y408288D01*
Y408311D01*
Y408334D01*
Y408473D01*
X204855Y408704D01*
X204901Y408959D01*
X204970Y409236D01*
X205086Y409514D01*
X205225Y409769D01*
X205410Y409977D01*
X205433Y410000D01*
X205549Y410093D01*
X205734Y410185D01*
X205965Y410324D01*
X206289Y410440D01*
X206660Y410555D01*
X207122Y410625D01*
X207654Y410648D01*
X207886D01*
X208117Y410625D01*
X208441Y410579D01*
X208765Y410532D01*
X209112Y410440D01*
X209436Y410324D01*
X209714Y410162D01*
X209737Y410139D01*
X209830Y410070D01*
X209945Y409954D01*
X210084Y409769D01*
X210223Y409537D01*
X210385Y409236D01*
X210524Y408866D01*
X210663Y408450D01*
X212583Y408704D01*
Y408727D01*
X212560Y408751D01*
Y408820D01*
X212537Y408913D01*
X212467Y409121D01*
X212375Y409422D01*
X212259Y409723D01*
X212120Y410046D01*
X211935Y410370D01*
X211727Y410671D01*
X211704Y410694D01*
X211611Y410787D01*
X211472Y410926D01*
X211287Y411111D01*
X211033Y411296D01*
X210732Y411481D01*
X210385Y411689D01*
X209992Y411851D01*
X209968D01*
X209945Y411874D01*
X209876Y411898D01*
X209783Y411921D01*
X209552Y411990D01*
X209228Y412060D01*
X208858Y412129D01*
X208395Y412198D01*
X207909Y412245D01*
X207354Y412268D01*
D02*
G37*
G36*
X152629D02*
X152374D01*
X152120Y412245D01*
X151773Y412221D01*
X151379Y412175D01*
X150986Y412106D01*
X150593Y412013D01*
X150223Y411898D01*
X150176Y411874D01*
X150061Y411828D01*
X149899Y411759D01*
X149690Y411666D01*
X149459Y411527D01*
X149228Y411389D01*
X149019Y411203D01*
X148834Y411018D01*
X148811Y410995D01*
X148765Y410926D01*
X148695Y410810D01*
X148603Y410671D01*
X148487Y410463D01*
X148394Y410255D01*
X148302Y410000D01*
X148232Y409699D01*
Y409676D01*
X148209Y409607D01*
X148186Y409468D01*
X148163Y409283D01*
Y409028D01*
X148140Y408727D01*
X148117Y408334D01*
Y407895D01*
Y405257D01*
Y405233D01*
Y405141D01*
Y405002D01*
Y404817D01*
Y404609D01*
Y404354D01*
X148094Y403799D01*
Y403220D01*
X148070Y402642D01*
X148047Y402387D01*
Y402156D01*
X148024Y401948D01*
X148001Y401786D01*
Y401763D01*
X147978Y401670D01*
X147955Y401531D01*
X147885Y401346D01*
X147839Y401138D01*
X147747Y400906D01*
X147631Y400652D01*
X147515Y400397D01*
X149575D01*
X149598Y400420D01*
X149621Y400513D01*
X149667Y400629D01*
X149737Y400814D01*
X149806Y401022D01*
X149852Y401277D01*
X149899Y401554D01*
X149945Y401855D01*
X149968D01*
X149991Y401809D01*
X150130Y401693D01*
X150338Y401531D01*
X150616Y401323D01*
X150963Y401115D01*
X151310Y400883D01*
X151680Y400675D01*
X152074Y400513D01*
X152120Y400490D01*
X152259Y400467D01*
X152467Y400397D01*
X152722Y400328D01*
X153046Y400258D01*
X153416Y400212D01*
X153832Y400166D01*
X154249Y400143D01*
X154434D01*
X154573Y400166D01*
X154735D01*
X154920Y400189D01*
X155336Y400258D01*
X155799Y400374D01*
X156308Y400536D01*
X156771Y400768D01*
X157187Y401068D01*
X157234Y401115D01*
X157349Y401230D01*
X157511Y401439D01*
X157697Y401716D01*
X157882Y402063D01*
X158044Y402457D01*
X158159Y402943D01*
X158182Y403174D01*
X158206Y403452D01*
Y403591D01*
X158182Y403753D01*
X158159Y403961D01*
X158113Y404215D01*
X158044Y404470D01*
X157951Y404748D01*
X157835Y405002D01*
X157812Y405025D01*
X157766Y405118D01*
X157673Y405257D01*
X157558Y405419D01*
X157419Y405604D01*
X157234Y405789D01*
X157049Y405974D01*
X156817Y406136D01*
X156794Y406159D01*
X156701Y406205D01*
X156586Y406298D01*
X156401Y406390D01*
X156192Y406483D01*
X155938Y406599D01*
X155683Y406691D01*
X155383Y406784D01*
X155359D01*
X155267Y406807D01*
X155128Y406853D01*
X154943Y406876D01*
X154712Y406923D01*
X154411Y406969D01*
X154064Y407038D01*
X153647Y407085D01*
X153624D01*
X153531Y407108D01*
X153416D01*
X153254Y407131D01*
X153069Y407154D01*
X152837Y407200D01*
X152583Y407223D01*
X152305Y407270D01*
X151750Y407385D01*
X151148Y407501D01*
X150616Y407640D01*
X150361Y407709D01*
X150130Y407779D01*
Y407802D01*
Y407848D01*
X150107Y407987D01*
Y408149D01*
Y408242D01*
Y408288D01*
Y408311D01*
Y408334D01*
Y408473D01*
X150130Y408704D01*
X150176Y408959D01*
X150246Y409236D01*
X150361Y409514D01*
X150500Y409769D01*
X150685Y409977D01*
X150708Y410000D01*
X150824Y410093D01*
X151009Y410185D01*
X151241Y410324D01*
X151565Y410440D01*
X151935Y410555D01*
X152398Y410625D01*
X152930Y410648D01*
X153161D01*
X153393Y410625D01*
X153716Y410579D01*
X154040Y410532D01*
X154388Y410440D01*
X154712Y410324D01*
X154989Y410162D01*
X155012Y410139D01*
X155105Y410070D01*
X155221Y409954D01*
X155359Y409769D01*
X155498Y409537D01*
X155660Y409236D01*
X155799Y408866D01*
X155938Y408450D01*
X157858Y408704D01*
Y408727D01*
X157835Y408751D01*
Y408820D01*
X157812Y408913D01*
X157743Y409121D01*
X157650Y409422D01*
X157535Y409723D01*
X157396Y410046D01*
X157211Y410370D01*
X157002Y410671D01*
X156979Y410694D01*
X156887Y410787D01*
X156748Y410926D01*
X156563Y411111D01*
X156308Y411296D01*
X156007Y411481D01*
X155660Y411689D01*
X155267Y411851D01*
X155244D01*
X155221Y411874D01*
X155151Y411898D01*
X155059Y411921D01*
X154827Y411990D01*
X154503Y412060D01*
X154133Y412129D01*
X153670Y412198D01*
X153184Y412245D01*
X152629Y412268D01*
D02*
G37*
G36*
X335662Y416063D02*
Y412013D01*
X333672D01*
Y410486D01*
X335662D01*
Y403660D01*
Y403614D01*
Y403521D01*
Y403382D01*
X335639Y403220D01*
X335615Y402850D01*
X335592Y402688D01*
X335569Y402572D01*
X335546Y402526D01*
X335476Y402434D01*
X335384Y402318D01*
X335222Y402202D01*
X335176Y402179D01*
X335060Y402133D01*
X334852Y402086D01*
X334551Y402063D01*
X334319D01*
X334204Y402086D01*
X334042D01*
X333857Y402110D01*
X333672Y402133D01*
X333417Y400397D01*
X333463D01*
X333556Y400374D01*
X333718Y400351D01*
X333926Y400328D01*
X334158Y400282D01*
X334412Y400258D01*
X334921Y400235D01*
X335106D01*
X335291Y400258D01*
X335523Y400282D01*
X335801Y400305D01*
X336078Y400374D01*
X336333Y400444D01*
X336587Y400559D01*
X336610Y400582D01*
X336680Y400629D01*
X336772Y400698D01*
X336911Y400814D01*
X337027Y400929D01*
X337166Y401091D01*
X337304Y401254D01*
X337397Y401462D01*
Y401485D01*
X337443Y401577D01*
X337467Y401739D01*
X337513Y401971D01*
X337559Y402272D01*
X337582Y402457D01*
Y402665D01*
X337605Y402920D01*
X337629Y403174D01*
Y403452D01*
Y403776D01*
Y410486D01*
X339086D01*
Y412013D01*
X337629D01*
Y414883D01*
X335662Y416063D01*
D02*
G37*
G36*
X319325Y412013D02*
X317358D01*
Y405557D01*
Y405534D01*
Y405488D01*
Y405419D01*
Y405303D01*
Y405048D01*
X317335Y404724D01*
Y404377D01*
X317312Y404030D01*
X317289Y403729D01*
X317243Y403475D01*
Y403452D01*
X317196Y403359D01*
X317150Y403220D01*
X317081Y403035D01*
X316965Y402850D01*
X316826Y402642D01*
X316664Y402457D01*
X316456Y402272D01*
X316433Y402248D01*
X316340Y402202D01*
X316224Y402133D01*
X316039Y402063D01*
X315831Y401971D01*
X315577Y401901D01*
X315299Y401855D01*
X314975Y401832D01*
X314813D01*
X314651Y401855D01*
X314443Y401878D01*
X314188Y401948D01*
X313911Y402017D01*
X313610Y402133D01*
X313309Y402272D01*
X313263Y402295D01*
X313170Y402364D01*
X313031Y402457D01*
X312869Y402595D01*
X312684Y402781D01*
X312499Y402989D01*
X312337Y403220D01*
X312198Y403498D01*
X312175Y403544D01*
X312152Y403637D01*
X312106Y403822D01*
X312036Y404076D01*
X311967Y404400D01*
X311921Y404794D01*
X311898Y405257D01*
X311874Y405789D01*
Y412013D01*
X309907D01*
Y400397D01*
X311666D01*
Y402086D01*
X311689Y402063D01*
X311735Y401994D01*
X311805Y401901D01*
X311921Y401786D01*
X312059Y401647D01*
X312221Y401462D01*
X312407Y401300D01*
X312638Y401115D01*
X312892Y400929D01*
X313170Y400768D01*
X313471Y400606D01*
X313795Y400444D01*
X314165Y400328D01*
X314535Y400235D01*
X314952Y400166D01*
X315368Y400143D01*
X315530D01*
X315739Y400166D01*
X315993Y400189D01*
X316294Y400235D01*
X316618Y400305D01*
X316942Y400397D01*
X317289Y400536D01*
X317335Y400559D01*
X317428Y400606D01*
X317590Y400698D01*
X317775Y400814D01*
X318006Y400953D01*
X318214Y401115D01*
X318423Y401300D01*
X318608Y401508D01*
X318631Y401531D01*
X318677Y401624D01*
X318747Y401739D01*
X318839Y401925D01*
X318955Y402133D01*
X319048Y402387D01*
X319140Y402665D01*
X319209Y402966D01*
Y402989D01*
X319233Y403082D01*
X319256Y403220D01*
Y403405D01*
X319279Y403683D01*
X319302Y403984D01*
X319325Y404377D01*
Y412013D01*
D02*
G37*
G36*
X283459Y412268D02*
X283274D01*
X283135Y412245D01*
X282996D01*
X282811Y412221D01*
X282372Y412152D01*
X281886Y412036D01*
X281377Y411851D01*
X280868Y411620D01*
X280382Y411296D01*
X280359D01*
X280335Y411250D01*
X280196Y411111D01*
X279988Y410903D01*
X279734Y410602D01*
X279479Y410232D01*
X279225Y409769D01*
X278993Y409236D01*
X278831Y408612D01*
X280752Y408311D01*
Y408334D01*
X280775Y408357D01*
X280798Y408496D01*
X280868Y408704D01*
X280983Y408959D01*
X281099Y409236D01*
X281284Y409537D01*
X281492Y409815D01*
X281724Y410046D01*
X281747Y410070D01*
X281839Y410139D01*
X282001Y410232D01*
X282187Y410347D01*
X282441Y410463D01*
X282719Y410555D01*
X283043Y410625D01*
X283390Y410648D01*
X283529D01*
X283644Y410625D01*
X283899Y410602D01*
X284246Y410509D01*
X284616Y410393D01*
X285033Y410208D01*
X285426Y409931D01*
X285611Y409769D01*
X285796Y409584D01*
Y409561D01*
X285842Y409537D01*
X285889Y409468D01*
X285935Y409375D01*
X286005Y409260D01*
X286097Y409121D01*
X286166Y408959D01*
X286259Y408774D01*
X286352Y408542D01*
X286421Y408288D01*
X286514Y408010D01*
X286583Y407709D01*
X286629Y407385D01*
X286675Y407015D01*
X286722Y406622D01*
Y406205D01*
Y406182D01*
Y406113D01*
Y405974D01*
X286699Y405835D01*
Y405627D01*
X286675Y405419D01*
X286606Y404910D01*
X286514Y404354D01*
X286352Y403776D01*
X286143Y403267D01*
X286005Y403012D01*
X285842Y402804D01*
X285796Y402757D01*
X285681Y402642D01*
X285472Y402480D01*
X285218Y402295D01*
X284871Y402086D01*
X284477Y401925D01*
X284014Y401809D01*
X283760Y401786D01*
X283505Y401763D01*
X283459D01*
X283320Y401786D01*
X283089Y401809D01*
X282834Y401855D01*
X282534Y401925D01*
X282210Y402063D01*
X281886Y402225D01*
X281585Y402457D01*
X281539Y402480D01*
X281469Y402595D01*
X281330Y402757D01*
X281168Y403012D01*
X281006Y403313D01*
X280821Y403683D01*
X280682Y404146D01*
X280590Y404655D01*
X278646Y404400D01*
Y404377D01*
X278669Y404308D01*
X278692Y404215D01*
X278716Y404076D01*
X278762Y403891D01*
X278808Y403706D01*
X278970Y403243D01*
X279178Y402757D01*
X279479Y402225D01*
X279849Y401716D01*
X280058Y401485D01*
X280289Y401254D01*
X280312Y401230D01*
X280359Y401207D01*
X280428Y401161D01*
X280520Y401091D01*
X280636Y400999D01*
X280798Y400906D01*
X280983Y400814D01*
X281168Y400698D01*
X281631Y400490D01*
X282187Y400328D01*
X282788Y400189D01*
X283135Y400166D01*
X283482Y400143D01*
X283714D01*
X283876Y400166D01*
X284084Y400189D01*
X284315Y400235D01*
X284570Y400282D01*
X284848Y400328D01*
X285472Y400513D01*
X285773Y400652D01*
X286097Y400791D01*
X286421Y400976D01*
X286722Y401184D01*
X287023Y401415D01*
X287300Y401693D01*
X287323Y401716D01*
X287370Y401763D01*
X287439Y401855D01*
X287532Y401971D01*
X287624Y402133D01*
X287763Y402341D01*
X287879Y402572D01*
X288018Y402827D01*
X288156Y403128D01*
X288272Y403475D01*
X288411Y403822D01*
X288503Y404238D01*
X288596Y404655D01*
X288666Y405141D01*
X288712Y405627D01*
X288735Y406159D01*
Y406483D01*
X288712Y406645D01*
Y406830D01*
X288689Y407038D01*
X288666Y407270D01*
X288596Y407779D01*
X288480Y408334D01*
X288342Y408890D01*
X288133Y409445D01*
Y409468D01*
X288110Y409514D01*
X288064Y409584D01*
X288018Y409676D01*
X287879Y409931D01*
X287670Y410232D01*
X287393Y410579D01*
X287069Y410926D01*
X286675Y411273D01*
X286236Y411550D01*
X286213D01*
X286166Y411574D01*
X286097Y411620D01*
X286005Y411666D01*
X285889Y411712D01*
X285750Y411782D01*
X285403Y411921D01*
X285009Y412036D01*
X284524Y412152D01*
X284014Y412245D01*
X283459Y412268D01*
D02*
G37*
G36*
X178915D02*
X178684D01*
X178522Y412245D01*
X178337Y412221D01*
X178106Y412175D01*
X177851Y412129D01*
X177550Y412060D01*
X177272Y411990D01*
X176949Y411874D01*
X176648Y411759D01*
X176324Y411597D01*
X176000Y411412D01*
X175676Y411203D01*
X175375Y410949D01*
X175097Y410671D01*
X175074Y410648D01*
X175028Y410602D01*
X174958Y410509D01*
X174866Y410370D01*
X174750Y410208D01*
X174635Y410023D01*
X174496Y409792D01*
X174357Y409514D01*
X174218Y409213D01*
X174079Y408890D01*
X173964Y408519D01*
X173848Y408126D01*
X173755Y407686D01*
X173686Y407223D01*
X173640Y406738D01*
X173616Y406205D01*
Y405928D01*
X173640Y405696D01*
X182317D01*
Y405673D01*
Y405604D01*
X182294Y405511D01*
Y405372D01*
X182271Y405210D01*
X182224Y405025D01*
X182155Y404609D01*
X182016Y404146D01*
X181831Y403637D01*
X181576Y403174D01*
X181252Y402757D01*
X181229D01*
X181206Y402711D01*
X181067Y402595D01*
X180859Y402434D01*
X180581Y402272D01*
X180211Y402086D01*
X179795Y401925D01*
X179332Y401809D01*
X179077Y401786D01*
X178800Y401763D01*
X178615D01*
X178406Y401786D01*
X178152Y401832D01*
X177874Y401901D01*
X177550Y401994D01*
X177249Y402133D01*
X176949Y402318D01*
X176925Y402341D01*
X176810Y402434D01*
X176671Y402572D01*
X176509Y402757D01*
X176324Y403012D01*
X176115Y403336D01*
X175907Y403706D01*
X175722Y404146D01*
X173686Y403891D01*
Y403868D01*
X173709Y403822D01*
X173732Y403729D01*
X173778Y403591D01*
X173848Y403452D01*
X173917Y403267D01*
X174102Y402873D01*
X174334Y402434D01*
X174658Y401971D01*
X175028Y401531D01*
X175491Y401115D01*
X175514D01*
X175560Y401068D01*
X175630Y401022D01*
X175722Y400953D01*
X175861Y400883D01*
X176000Y400814D01*
X176185Y400721D01*
X176393Y400629D01*
X176625Y400536D01*
X176856Y400444D01*
X177434Y400305D01*
X178082Y400189D01*
X178800Y400143D01*
X179054D01*
X179216Y400166D01*
X179424Y400189D01*
X179679Y400235D01*
X179957Y400282D01*
X180257Y400328D01*
X180905Y400513D01*
X181252Y400652D01*
X181576Y400791D01*
X181924Y400976D01*
X182247Y401184D01*
X182548Y401415D01*
X182849Y401693D01*
X182872Y401716D01*
X182918Y401763D01*
X182988Y401855D01*
X183080Y401994D01*
X183196Y402156D01*
X183312Y402341D01*
X183451Y402572D01*
X183589Y402827D01*
X183728Y403128D01*
X183867Y403452D01*
X183983Y403822D01*
X184099Y404215D01*
X184191Y404632D01*
X184261Y405095D01*
X184307Y405580D01*
X184330Y406090D01*
Y406367D01*
X184307Y406576D01*
X184284Y406830D01*
X184261Y407108D01*
X184214Y407432D01*
X184145Y407756D01*
X183960Y408496D01*
X183844Y408866D01*
X183705Y409260D01*
X183520Y409630D01*
X183312Y409977D01*
X183080Y410324D01*
X182826Y410648D01*
X182803Y410671D01*
X182757Y410718D01*
X182664Y410787D01*
X182548Y410903D01*
X182409Y411018D01*
X182224Y411157D01*
X182016Y411319D01*
X181761Y411458D01*
X181507Y411620D01*
X181206Y411759D01*
X180882Y411898D01*
X180535Y412013D01*
X180165Y412129D01*
X179771Y412198D01*
X179355Y412245D01*
X178915Y412268D01*
D02*
G37*
G36*
X342927Y412013D02*
X340961D01*
Y400397D01*
X342927D01*
Y412013D01*
D02*
G37*
G36*
X293826Y402642D02*
X291581D01*
Y400397D01*
X293826D01*
Y402642D01*
D02*
G37*
G36*
X199533Y416410D02*
X192105D01*
X191920Y416387D01*
X191711D01*
X191225Y416363D01*
X190716Y416294D01*
X190161Y416225D01*
X189652Y416109D01*
X189398Y416040D01*
X189189Y415970D01*
X189166D01*
X189143Y415947D01*
X189004Y415878D01*
X188796Y415785D01*
X188541Y415623D01*
X188264Y415415D01*
X187963Y415137D01*
X187685Y414813D01*
X187407Y414443D01*
Y414420D01*
X187384Y414397D01*
X187292Y414258D01*
X187199Y414026D01*
X187060Y413726D01*
X186945Y413378D01*
X186829Y412962D01*
X186760Y412522D01*
X186737Y412036D01*
Y412013D01*
Y411967D01*
Y411874D01*
X186760Y411759D01*
Y411597D01*
X186783Y411435D01*
X186875Y411041D01*
X187014Y410579D01*
X187199Y410093D01*
X187477Y409607D01*
X187662Y409375D01*
X187847Y409144D01*
X187870Y409121D01*
X187893Y409098D01*
X187963Y409028D01*
X188055Y408959D01*
X188171Y408866D01*
X188310Y408774D01*
X188495Y408658D01*
X188680Y408519D01*
X188912Y408404D01*
X189166Y408288D01*
X189444Y408149D01*
X189745Y408033D01*
X190092Y407941D01*
X190439Y407825D01*
X190832Y407756D01*
X191249Y407686D01*
X191202Y407663D01*
X191110Y407617D01*
X190971Y407524D01*
X190786Y407432D01*
X190369Y407177D01*
X190161Y407015D01*
X189976Y406876D01*
X189930Y406830D01*
X189814Y406714D01*
X189629Y406529D01*
X189398Y406298D01*
X189143Y405974D01*
X188842Y405627D01*
X188541Y405210D01*
X188217Y404748D01*
X185464Y400397D01*
X188102D01*
X190207Y403729D01*
Y403753D01*
X190254Y403799D01*
X190300Y403868D01*
X190369Y403961D01*
X190531Y404215D01*
X190740Y404539D01*
X190994Y404886D01*
X191249Y405257D01*
X191503Y405604D01*
X191735Y405928D01*
X191758Y405951D01*
X191827Y406043D01*
X191943Y406182D01*
X192105Y406344D01*
X192452Y406691D01*
X192637Y406853D01*
X192822Y406992D01*
X192845Y407015D01*
X192892Y407038D01*
X192984Y407085D01*
X193123Y407154D01*
X193262Y407223D01*
X193424Y407293D01*
X193794Y407408D01*
X193817D01*
X193863Y407432D01*
X193956D01*
X194072Y407455D01*
X194234Y407478D01*
X194419D01*
X194673Y407501D01*
X197404D01*
Y400397D01*
X199533D01*
Y416410D01*
D02*
G37*
G36*
X171326D02*
X159825D01*
Y414512D01*
X168873Y403429D01*
X169822Y402295D01*
X159571D01*
Y400397D01*
X172251D01*
Y402364D01*
X164037Y412592D01*
Y412615D01*
X163990Y412638D01*
X163875Y412777D01*
X163713Y412985D01*
X163505Y413240D01*
X163250Y413540D01*
X162972Y413864D01*
X162672Y414188D01*
X162371Y414512D01*
X171326D01*
Y416410D01*
D02*
G37*
G36*
X145502Y416202D02*
X135136D01*
Y414651D01*
X135159Y414628D01*
X135205Y414582D01*
X135298Y414489D01*
X135390Y414350D01*
X135529Y414188D01*
X135714Y414003D01*
X135899Y413772D01*
X136107Y413494D01*
X136316Y413217D01*
X136570Y412893D01*
X136825Y412522D01*
X137079Y412152D01*
X137357Y411736D01*
X137635Y411296D01*
X137912Y410810D01*
X138190Y410324D01*
X138213Y410301D01*
X138259Y410208D01*
X138329Y410070D01*
X138444Y409861D01*
X138560Y409607D01*
X138699Y409329D01*
X138861Y409005D01*
X139023Y408635D01*
X139208Y408218D01*
X139416Y407802D01*
X139601Y407339D01*
X139787Y406853D01*
X140157Y405858D01*
X140504Y404794D01*
Y404771D01*
X140527Y404701D01*
X140550Y404585D01*
X140597Y404447D01*
X140643Y404262D01*
X140689Y404030D01*
X140758Y403776D01*
X140805Y403498D01*
X140874Y403174D01*
X140944Y402827D01*
X141059Y402086D01*
X141175Y401277D01*
X141244Y400397D01*
X143258D01*
Y400420D01*
Y400490D01*
Y400582D01*
X143234Y400721D01*
Y400906D01*
X143211Y401138D01*
X143188Y401392D01*
X143165Y401670D01*
X143119Y401994D01*
X143072Y402318D01*
X143003Y402711D01*
X142934Y403105D01*
X142864Y403521D01*
X142772Y403984D01*
X142540Y404933D01*
Y404956D01*
X142517Y405048D01*
X142471Y405187D01*
X142401Y405395D01*
X142332Y405627D01*
X142239Y405905D01*
X142147Y406228D01*
X142008Y406576D01*
X141869Y406969D01*
X141730Y407362D01*
X141383Y408242D01*
X140967Y409167D01*
X140504Y410093D01*
X140481Y410116D01*
X140435Y410208D01*
X140365Y410324D01*
X140273Y410509D01*
X140157Y410718D01*
X139995Y410972D01*
X139833Y411250D01*
X139648Y411550D01*
X139208Y412221D01*
X138745Y412916D01*
X138213Y413633D01*
X137658Y414304D01*
X145502D01*
Y416202D01*
D02*
G37*
G36*
X272260Y412268D02*
X272028D01*
X271866Y412245D01*
X271658Y412221D01*
X271427Y412175D01*
X271172Y412129D01*
X270871Y412083D01*
X270247Y411874D01*
X269923Y411759D01*
X269599Y411597D01*
X269275Y411435D01*
X268951Y411203D01*
X268650Y410972D01*
X268349Y410694D01*
X268326Y410671D01*
X268280Y410625D01*
X268210Y410532D01*
X268118Y410417D01*
X268002Y410255D01*
X267863Y410046D01*
X267724Y409815D01*
X267586Y409561D01*
X267447Y409283D01*
X267308Y408936D01*
X267169Y408589D01*
X267053Y408195D01*
X266961Y407779D01*
X266891Y407339D01*
X266845Y406876D01*
X266822Y406367D01*
Y405997D01*
X266845Y405812D01*
X266868Y405580D01*
Y405349D01*
X266915Y405095D01*
X266984Y404516D01*
X267123Y403938D01*
X267285Y403359D01*
X267516Y402827D01*
Y402804D01*
X267539Y402781D01*
X267586Y402711D01*
X267632Y402619D01*
X267794Y402387D01*
X268002Y402110D01*
X268280Y401786D01*
X268627Y401462D01*
X269020Y401138D01*
X269483Y400837D01*
X269506D01*
X269529Y400814D01*
X269599Y400768D01*
X269714Y400721D01*
X269830Y400675D01*
X269969Y400629D01*
X270316Y400490D01*
X270709Y400374D01*
X271195Y400258D01*
X271704Y400166D01*
X272260Y400143D01*
X272491D01*
X272676Y400166D01*
X272884Y400189D01*
X273116Y400235D01*
X273393Y400282D01*
X273671Y400328D01*
X274296Y400513D01*
X274643Y400652D01*
X274967Y400791D01*
X275291Y400976D01*
X275615Y401184D01*
X275916Y401415D01*
X276217Y401693D01*
X276240Y401716D01*
X276286Y401763D01*
X276355Y401855D01*
X276448Y401994D01*
X276564Y402156D01*
X276679Y402341D01*
X276818Y402572D01*
X276957Y402850D01*
X277096Y403151D01*
X277235Y403498D01*
X277350Y403868D01*
X277466Y404262D01*
X277559Y404701D01*
X277628Y405164D01*
X277674Y405673D01*
X277697Y406205D01*
Y406344D01*
X277674Y406506D01*
Y406738D01*
X277651Y406992D01*
X277605Y407316D01*
X277559Y407640D01*
X277466Y408010D01*
X277374Y408380D01*
X277258Y408774D01*
X277119Y409190D01*
X276934Y409584D01*
X276749Y409954D01*
X276494Y410324D01*
X276240Y410671D01*
X275916Y410972D01*
X275893Y410995D01*
X275846Y411018D01*
X275754Y411088D01*
X275638Y411180D01*
X275499Y411273D01*
X275314Y411389D01*
X275129Y411504D01*
X274898Y411620D01*
X274643Y411736D01*
X274365Y411851D01*
X273741Y412060D01*
X273023Y412221D01*
X272653Y412245D01*
X272260Y412268D01*
D02*
G37*
G36*
X242687Y416687D02*
X241114D01*
X245765Y400120D01*
X247339D01*
X242687Y416687D01*
D02*
G37*
%LPD*%
G36*
X354011Y433205D02*
X349244D01*
X348967Y433228D01*
X348643Y433251D01*
X348273Y433274D01*
X347902Y433320D01*
X347532Y433390D01*
X347208Y433482D01*
X347162Y433505D01*
X347069Y433552D01*
X346931Y433621D01*
X346745Y433714D01*
X346537Y433853D01*
X346329Y434014D01*
X346121Y434223D01*
X345959Y434454D01*
X345936Y434477D01*
X345889Y434570D01*
X345820Y434709D01*
X345727Y434894D01*
X345658Y435102D01*
X345588Y435333D01*
X345542Y435611D01*
X345519Y435889D01*
Y435912D01*
Y435935D01*
X345542Y436074D01*
X345565Y436282D01*
X345612Y436560D01*
X345727Y436838D01*
X345866Y437161D01*
X346074Y437462D01*
X346352Y437763D01*
X346398Y437786D01*
X346514Y437879D01*
X346699Y437994D01*
X347000Y438133D01*
X347347Y438272D01*
X347810Y438388D01*
X348342Y438480D01*
X348967Y438503D01*
X354011D01*
Y433205D01*
D02*
G37*
G36*
X291026Y438596D02*
X291049Y438550D01*
Y438457D01*
X291095Y438365D01*
X291118Y438203D01*
X291165Y438041D01*
X291257Y437647D01*
X291373Y437184D01*
X291535Y436675D01*
X291697Y436120D01*
X291905Y435542D01*
X293640Y430868D01*
X288226D01*
X289892Y435264D01*
Y435287D01*
X289915Y435356D01*
X289961Y435472D01*
X290008Y435611D01*
X290077Y435773D01*
X290146Y435981D01*
X290216Y436213D01*
X290308Y436444D01*
X290494Y436976D01*
X290679Y437532D01*
X290864Y438087D01*
X291026Y438619D01*
Y438596D01*
D02*
G37*
G36*
X264485Y433205D02*
X259718D01*
X259440Y433228D01*
X259116Y433251D01*
X258746Y433274D01*
X258376Y433320D01*
X258006Y433390D01*
X257682Y433482D01*
X257636Y433505D01*
X257543Y433552D01*
X257404Y433621D01*
X257219Y433714D01*
X257011Y433853D01*
X256803Y434014D01*
X256594Y434223D01*
X256432Y434454D01*
X256409Y434477D01*
X256363Y434570D01*
X256294Y434709D01*
X256201Y434894D01*
X256131Y435102D01*
X256062Y435333D01*
X256016Y435611D01*
X255993Y435889D01*
Y435912D01*
Y435935D01*
X256016Y436074D01*
X256039Y436282D01*
X256085Y436560D01*
X256201Y436838D01*
X256340Y437161D01*
X256548Y437462D01*
X256826Y437763D01*
X256872Y437786D01*
X256988Y437879D01*
X257173Y437994D01*
X257474Y438133D01*
X257821Y438272D01*
X258284Y438388D01*
X258816Y438480D01*
X259440Y438503D01*
X264485D01*
Y433205D01*
D02*
G37*
G36*
X206497Y438712D02*
X206752Y438666D01*
X207053Y438596D01*
X207400Y438457D01*
X207770Y438249D01*
X207955Y438110D01*
X208140Y437971D01*
X208302Y437786D01*
X208464Y437578D01*
Y437555D01*
X208511Y437509D01*
X208557Y437416D01*
X208626Y437300D01*
X208696Y437115D01*
X208788Y436907D01*
X208858Y436652D01*
X208950Y436352D01*
X209043Y436004D01*
X209135Y435611D01*
X209228Y435171D01*
X209297Y434686D01*
X209367Y434130D01*
X209413Y433529D01*
X209436Y432881D01*
X209459Y432163D01*
Y432117D01*
Y432001D01*
Y431793D01*
X209436Y431515D01*
Y431215D01*
X209413Y430844D01*
X209390Y430451D01*
X209344Y430034D01*
X209228Y429132D01*
X209158Y428692D01*
X209066Y428276D01*
X208973Y427882D01*
X208835Y427512D01*
X208696Y427188D01*
X208534Y426911D01*
Y426888D01*
X208487Y426864D01*
X208372Y426702D01*
X208164Y426494D01*
X207909Y426263D01*
X207562Y426031D01*
X207169Y425823D01*
X206729Y425661D01*
X206497Y425638D01*
X206243Y425615D01*
X206104D01*
X206012Y425638D01*
X205780Y425684D01*
X205456Y425777D01*
X205109Y425939D01*
X204716Y426170D01*
X204531Y426309D01*
X204345Y426494D01*
X204160Y426679D01*
X203975Y426911D01*
Y426934D01*
X203929Y426980D01*
X203883Y427049D01*
X203836Y427165D01*
X203744Y427327D01*
X203675Y427535D01*
X203582Y427767D01*
X203489Y428045D01*
X203420Y428392D01*
X203327Y428762D01*
X203235Y429202D01*
X203165Y429664D01*
X203119Y430220D01*
X203073Y430798D01*
X203027Y431446D01*
Y432163D01*
Y432186D01*
Y432210D01*
Y432325D01*
Y432533D01*
X203050Y432811D01*
Y433112D01*
X203073Y433482D01*
X203096Y433876D01*
X203142Y434315D01*
X203258Y435195D01*
X203327Y435634D01*
X203420Y436051D01*
X203512Y436444D01*
X203651Y436814D01*
X203790Y437138D01*
X203952Y437416D01*
Y437439D01*
X203998Y437462D01*
X204045Y437532D01*
X204114Y437624D01*
X204322Y437832D01*
X204577Y438087D01*
X204924Y438318D01*
X205317Y438527D01*
X205526Y438619D01*
X205757Y438689D01*
X206012Y438712D01*
X206266Y438735D01*
X206405D01*
X206497Y438712D01*
D02*
G37*
G36*
X302133Y410625D02*
X302387Y410579D01*
X302688Y410509D01*
X303035Y410370D01*
X303405Y410162D01*
X303590Y410046D01*
X303776Y409884D01*
X303961Y409723D01*
X304146Y409514D01*
Y409491D01*
X304192Y409468D01*
X304238Y409398D01*
X304285Y409306D01*
X304354Y409190D01*
X304447Y409051D01*
X304516Y408890D01*
X304609Y408704D01*
X304701Y408473D01*
X304771Y408242D01*
X304863Y407964D01*
X304932Y407686D01*
X304979Y407362D01*
X305025Y407015D01*
X305071Y406668D01*
Y406275D01*
Y406252D01*
Y406182D01*
Y406066D01*
Y405928D01*
X305048Y405766D01*
Y405557D01*
X305002Y405118D01*
X304932Y404632D01*
X304840Y404123D01*
X304701Y403660D01*
X304609Y403452D01*
X304516Y403267D01*
Y403243D01*
X304470Y403197D01*
X304423Y403128D01*
X304354Y403035D01*
X304146Y402781D01*
X303845Y402526D01*
X303498Y402248D01*
X303058Y401994D01*
X302827Y401901D01*
X302549Y401832D01*
X302295Y401786D01*
X301994Y401763D01*
X301878D01*
X301786Y401786D01*
X301531Y401832D01*
X301230Y401901D01*
X300883Y402040D01*
X300513Y402225D01*
X300143Y402503D01*
X299958Y402688D01*
X299772Y402873D01*
Y402896D01*
X299726Y402920D01*
X299680Y402989D01*
X299634Y403082D01*
X299541Y403197D01*
X299472Y403336D01*
X299379Y403521D01*
X299286Y403706D01*
X299217Y403938D01*
X299125Y404169D01*
X299032Y404447D01*
X298962Y404748D01*
X298916Y405071D01*
X298870Y405419D01*
X298824Y405812D01*
Y406205D01*
Y406228D01*
Y406298D01*
Y406413D01*
X298847Y406576D01*
Y406761D01*
X298870Y406992D01*
X298939Y407478D01*
X299032Y408010D01*
X299194Y408589D01*
X299425Y409098D01*
X299564Y409352D01*
X299726Y409561D01*
Y409584D01*
X299772Y409607D01*
X299888Y409723D01*
X300073Y409908D01*
X300328Y410116D01*
X300652Y410301D01*
X301022Y410486D01*
X301462Y410602D01*
X301693Y410648D01*
X302040D01*
X302133Y410625D01*
D02*
G37*
G36*
X351188D02*
X351443Y410602D01*
X351744Y410509D01*
X352114Y410393D01*
X352484Y410185D01*
X352854Y409931D01*
X353039Y409746D01*
X353224Y409561D01*
Y409537D01*
X353271Y409514D01*
X353317Y409445D01*
X353363Y409352D01*
X353433Y409260D01*
X353502Y409121D01*
X353595Y408959D01*
X353664Y408774D01*
X353757Y408565D01*
X353849Y408311D01*
X353919Y408056D01*
X353988Y407779D01*
X354034Y407455D01*
X354081Y407131D01*
X354127Y406784D01*
Y406390D01*
Y406367D01*
Y406298D01*
Y406182D01*
X354104Y406020D01*
Y405835D01*
X354081Y405604D01*
X354011Y405118D01*
X353895Y404562D01*
X353757Y404030D01*
X353525Y403498D01*
X353386Y403267D01*
X353224Y403058D01*
X353178Y403012D01*
X353063Y402896D01*
X352877Y402734D01*
X352600Y402549D01*
X352276Y402341D01*
X351882Y402179D01*
X351443Y402063D01*
X351211Y402040D01*
X350957Y402017D01*
X350818D01*
X350725Y402040D01*
X350471Y402063D01*
X350147Y402156D01*
X349800Y402272D01*
X349406Y402457D01*
X349036Y402711D01*
X348851Y402873D01*
X348666Y403058D01*
Y403082D01*
X348620Y403105D01*
X348573Y403174D01*
X348527Y403267D01*
X348458Y403359D01*
X348365Y403498D01*
X348296Y403660D01*
X348203Y403868D01*
X348111Y404076D01*
X348041Y404308D01*
X347949Y404585D01*
X347879Y404886D01*
X347833Y405187D01*
X347787Y405534D01*
X347740Y405928D01*
Y406321D01*
Y406344D01*
Y406413D01*
Y406529D01*
X347763Y406668D01*
Y406853D01*
X347787Y407061D01*
X347856Y407524D01*
X347972Y408056D01*
X348134Y408589D01*
X348365Y409121D01*
X348527Y409352D01*
X348689Y409561D01*
Y409584D01*
X348735Y409607D01*
X348851Y409723D01*
X349059Y409908D01*
X349337Y410116D01*
X349661Y410301D01*
X350054Y410486D01*
X350494Y410602D01*
X350725Y410648D01*
X351096D01*
X351188Y410625D01*
D02*
G37*
G36*
X232252Y406205D02*
X232321Y406182D01*
X232414Y406159D01*
X232529Y406113D01*
X232668Y406066D01*
X232830Y406020D01*
X233015Y405974D01*
X233223Y405905D01*
X233478Y405858D01*
X233733Y405789D01*
X234033Y405719D01*
X234357Y405650D01*
X234681Y405580D01*
X235051Y405534D01*
X235445Y405465D01*
X235491D01*
X235630Y405442D01*
X235861Y405395D01*
X236116Y405349D01*
X236394Y405303D01*
X236671Y405233D01*
X236926Y405164D01*
X237157Y405071D01*
X237180D01*
X237250Y405025D01*
X237342Y404979D01*
X237435Y404910D01*
X237713Y404724D01*
X237944Y404447D01*
Y404423D01*
X237990Y404377D01*
X238013Y404285D01*
X238060Y404169D01*
X238106Y404030D01*
X238152Y403891D01*
X238175Y403706D01*
X238199Y403521D01*
Y403498D01*
Y403382D01*
X238175Y403243D01*
X238129Y403058D01*
X238060Y402850D01*
X237944Y402642D01*
X237805Y402410D01*
X237620Y402202D01*
X237597Y402179D01*
X237504Y402133D01*
X237365Y402040D01*
X237180Y401948D01*
X236926Y401855D01*
X236625Y401763D01*
X236278Y401716D01*
X235861Y401693D01*
X235676D01*
X235445Y401716D01*
X235190Y401763D01*
X234866Y401809D01*
X234543Y401901D01*
X234195Y402017D01*
X233848Y402179D01*
X233802Y402202D01*
X233709Y402272D01*
X233547Y402387D01*
X233362Y402549D01*
X233154Y402734D01*
X232923Y402966D01*
X232738Y403243D01*
X232553Y403544D01*
X232529Y403567D01*
X232506Y403660D01*
X232460Y403822D01*
X232390Y404030D01*
X232321Y404308D01*
X232275Y404632D01*
X232252Y405025D01*
X232229Y405488D01*
X232205Y406228D01*
X232229D01*
X232252Y406205D01*
D02*
G37*
G36*
X204878D02*
X204947Y406182D01*
X205040Y406159D01*
X205155Y406113D01*
X205294Y406066D01*
X205456Y406020D01*
X205641Y405974D01*
X205850Y405905D01*
X206104Y405858D01*
X206359Y405789D01*
X206660Y405719D01*
X206983Y405650D01*
X207307Y405580D01*
X207678Y405534D01*
X208071Y405465D01*
X208117D01*
X208256Y405442D01*
X208487Y405395D01*
X208742Y405349D01*
X209020Y405303D01*
X209297Y405233D01*
X209552Y405164D01*
X209783Y405071D01*
X209806D01*
X209876Y405025D01*
X209968Y404979D01*
X210061Y404910D01*
X210339Y404724D01*
X210570Y404447D01*
Y404423D01*
X210616Y404377D01*
X210639Y404285D01*
X210686Y404169D01*
X210732Y404030D01*
X210778Y403891D01*
X210801Y403706D01*
X210825Y403521D01*
Y403498D01*
Y403382D01*
X210801Y403243D01*
X210755Y403058D01*
X210686Y402850D01*
X210570Y402642D01*
X210431Y402410D01*
X210246Y402202D01*
X210223Y402179D01*
X210130Y402133D01*
X209992Y402040D01*
X209806Y401948D01*
X209552Y401855D01*
X209251Y401763D01*
X208904Y401716D01*
X208487Y401693D01*
X208302D01*
X208071Y401716D01*
X207816Y401763D01*
X207493Y401809D01*
X207169Y401901D01*
X206821Y402017D01*
X206474Y402179D01*
X206428Y402202D01*
X206336Y402272D01*
X206174Y402387D01*
X205988Y402549D01*
X205780Y402734D01*
X205549Y402966D01*
X205364Y403243D01*
X205179Y403544D01*
X205155Y403567D01*
X205132Y403660D01*
X205086Y403822D01*
X205017Y404030D01*
X204947Y404308D01*
X204901Y404632D01*
X204878Y405025D01*
X204855Y405488D01*
X204832Y406228D01*
X204855D01*
X204878Y406205D01*
D02*
G37*
G36*
X150153D02*
X150223Y406182D01*
X150315Y406159D01*
X150431Y406113D01*
X150570Y406066D01*
X150732Y406020D01*
X150917Y405974D01*
X151125Y405905D01*
X151379Y405858D01*
X151634Y405789D01*
X151935Y405719D01*
X152259Y405650D01*
X152583Y405580D01*
X152953Y405534D01*
X153346Y405465D01*
X153393D01*
X153531Y405442D01*
X153763Y405395D01*
X154017Y405349D01*
X154295Y405303D01*
X154573Y405233D01*
X154827Y405164D01*
X155059Y405071D01*
X155082D01*
X155151Y405025D01*
X155244Y404979D01*
X155336Y404910D01*
X155614Y404724D01*
X155845Y404447D01*
Y404423D01*
X155892Y404377D01*
X155915Y404285D01*
X155961Y404169D01*
X156007Y404030D01*
X156054Y403891D01*
X156077Y403706D01*
X156100Y403521D01*
Y403498D01*
Y403382D01*
X156077Y403243D01*
X156031Y403058D01*
X155961Y402850D01*
X155845Y402642D01*
X155707Y402410D01*
X155521Y402202D01*
X155498Y402179D01*
X155406Y402133D01*
X155267Y402040D01*
X155082Y401948D01*
X154827Y401855D01*
X154526Y401763D01*
X154179Y401716D01*
X153763Y401693D01*
X153578D01*
X153346Y401716D01*
X153092Y401763D01*
X152768Y401809D01*
X152444Y401901D01*
X152097Y402017D01*
X151750Y402179D01*
X151703Y402202D01*
X151611Y402272D01*
X151449Y402387D01*
X151264Y402549D01*
X151055Y402734D01*
X150824Y402966D01*
X150639Y403243D01*
X150454Y403544D01*
X150431Y403567D01*
X150408Y403660D01*
X150361Y403822D01*
X150292Y404030D01*
X150223Y404308D01*
X150176Y404632D01*
X150153Y405025D01*
X150130Y405488D01*
X150107Y406228D01*
X150130D01*
X150153Y406205D01*
D02*
G37*
G36*
X179124Y410625D02*
X179378Y410602D01*
X179679Y410532D01*
X180049Y410417D01*
X180443Y410255D01*
X180813Y410023D01*
X181183Y409723D01*
X181229Y409676D01*
X181322Y409561D01*
X181484Y409352D01*
X181646Y409075D01*
X181831Y408751D01*
X181993Y408334D01*
X182132Y407848D01*
X182201Y407316D01*
X175699D01*
Y407339D01*
Y407385D01*
X175722Y407455D01*
Y407547D01*
X175768Y407825D01*
X175838Y408126D01*
X175954Y408496D01*
X176069Y408843D01*
X176254Y409190D01*
X176463Y409491D01*
Y409514D01*
X176509Y409537D01*
X176625Y409676D01*
X176833Y409861D01*
X177111Y410070D01*
X177458Y410278D01*
X177874Y410463D01*
X178360Y410602D01*
X178615Y410625D01*
X178892Y410648D01*
X179031D01*
X179124Y410625D01*
D02*
G37*
G36*
X197404Y409329D02*
X192637D01*
X192359Y409352D01*
X192035Y409375D01*
X191665Y409398D01*
X191295Y409445D01*
X190925Y409514D01*
X190601Y409607D01*
X190555Y409630D01*
X190462Y409676D01*
X190323Y409746D01*
X190138Y409838D01*
X189930Y409977D01*
X189721Y410139D01*
X189513Y410347D01*
X189351Y410579D01*
X189328Y410602D01*
X189282Y410694D01*
X189212Y410833D01*
X189120Y411018D01*
X189050Y411227D01*
X188981Y411458D01*
X188935Y411736D01*
X188912Y412013D01*
Y412036D01*
Y412060D01*
X188935Y412198D01*
X188958Y412407D01*
X189004Y412684D01*
X189120Y412962D01*
X189259Y413286D01*
X189467Y413587D01*
X189745Y413888D01*
X189791Y413911D01*
X189907Y414003D01*
X190092Y414119D01*
X190392Y414258D01*
X190740Y414397D01*
X191202Y414512D01*
X191735Y414605D01*
X192359Y414628D01*
X197404D01*
Y409329D01*
D02*
G37*
G36*
X272514Y410625D02*
X272769Y410602D01*
X273116Y410509D01*
X273509Y410370D01*
X273926Y410185D01*
X274319Y409908D01*
X274527Y409723D01*
X274713Y409537D01*
Y409514D01*
X274759Y409491D01*
X274805Y409422D01*
X274874Y409329D01*
X274944Y409213D01*
X275013Y409075D01*
X275106Y408890D01*
X275198Y408704D01*
X275291Y408473D01*
X275383Y408242D01*
X275453Y407964D01*
X275522Y407663D01*
X275592Y407339D01*
X275638Y406992D01*
X275661Y406599D01*
X275684Y406205D01*
Y406182D01*
Y406113D01*
Y405997D01*
X275661Y405835D01*
Y405650D01*
X275638Y405442D01*
X275569Y404956D01*
X275453Y404400D01*
X275268Y403845D01*
X275036Y403313D01*
X274874Y403082D01*
X274713Y402850D01*
X274689D01*
X274666Y402804D01*
X274527Y402688D01*
X274319Y402503D01*
X274041Y402318D01*
X273694Y402110D01*
X273278Y401925D01*
X272792Y401809D01*
X272537Y401786D01*
X272260Y401763D01*
X272121D01*
X272005Y401786D01*
X271751Y401832D01*
X271404Y401901D01*
X271033Y402040D01*
X270617Y402225D01*
X270223Y402503D01*
X270015Y402688D01*
X269830Y402873D01*
X269807Y402896D01*
X269784Y402920D01*
X269737Y402989D01*
X269668Y403082D01*
X269599Y403197D01*
X269506Y403336D01*
X269414Y403521D01*
X269321Y403706D01*
X269228Y403938D01*
X269159Y404192D01*
X269066Y404470D01*
X268997Y404771D01*
X268928Y405118D01*
X268881Y405465D01*
X268835Y405858D01*
Y406275D01*
Y406298D01*
Y406367D01*
Y406483D01*
X268858Y406622D01*
Y406807D01*
X268881Y407015D01*
X268951Y407501D01*
X269066Y408010D01*
X269252Y408565D01*
X269506Y409075D01*
X269645Y409329D01*
X269830Y409537D01*
Y409561D01*
X269876Y409584D01*
X270015Y409723D01*
X270223Y409884D01*
X270501Y410093D01*
X270848Y410301D01*
X271265Y410486D01*
X271728Y410602D01*
X271982Y410625D01*
X272260Y410648D01*
X272398D01*
X272514Y410625D01*
D02*
G37*
%LPC*%
G36*
X679990Y301500D02*
X677815D01*
X669415Y288912D01*
Y301500D01*
X667379D01*
Y285488D01*
X669577D01*
X677954Y298052D01*
Y285488D01*
X679990D01*
Y301500D01*
D02*
G37*
G36*
X663792D02*
X661664D01*
Y292244D01*
Y292221D01*
Y292152D01*
Y292036D01*
Y291897D01*
X661640Y291735D01*
Y291527D01*
X661617Y291087D01*
X661571Y290578D01*
X661502Y290069D01*
X661409Y289583D01*
X661363Y289375D01*
X661293Y289167D01*
X661270Y289121D01*
X661224Y289005D01*
X661108Y288843D01*
X660969Y288612D01*
X660807Y288380D01*
X660576Y288126D01*
X660298Y287871D01*
X659974Y287663D01*
X659928Y287640D01*
X659812Y287570D01*
X659604Y287501D01*
X659326Y287408D01*
X659003Y287292D01*
X658586Y287223D01*
X658146Y287154D01*
X657661Y287131D01*
X657429D01*
X657290Y287154D01*
X657082D01*
X656874Y287177D01*
X656365Y287269D01*
X655809Y287385D01*
X655277Y287570D01*
X654768Y287825D01*
X654537Y287987D01*
X654328Y288172D01*
X654305Y288195D01*
X654282Y288218D01*
X654236Y288288D01*
X654166Y288380D01*
X654097Y288519D01*
X654005Y288658D01*
X653912Y288866D01*
X653819Y289074D01*
X653727Y289329D01*
X653657Y289630D01*
X653565Y289977D01*
X653495Y290347D01*
X653426Y290763D01*
X653380Y291203D01*
X653333Y291712D01*
Y292244D01*
Y301500D01*
X651205D01*
Y291851D01*
X651228Y291643D01*
Y291411D01*
X651251Y291134D01*
X651274Y290856D01*
X651343Y290231D01*
X651436Y289583D01*
X651575Y288959D01*
X651667Y288658D01*
X651760Y288380D01*
Y288357D01*
X651783Y288311D01*
X651829Y288241D01*
X651876Y288149D01*
X652014Y287894D01*
X652223Y287570D01*
X652500Y287200D01*
X652824Y286830D01*
X653241Y286436D01*
X653750Y286089D01*
X653773D01*
X653819Y286043D01*
X653889Y286020D01*
X654005Y285951D01*
X654143Y285881D01*
X654328Y285812D01*
X654513Y285742D01*
X654745Y285650D01*
X654999Y285557D01*
X655277Y285488D01*
X655578Y285418D01*
X655925Y285349D01*
X656272Y285303D01*
X656642Y285256D01*
X657475Y285210D01*
X657684D01*
X657846Y285233D01*
X658031D01*
X658262Y285256D01*
X658517Y285279D01*
X658771Y285303D01*
X659350Y285395D01*
X659974Y285534D01*
X660576Y285719D01*
X661154Y285974D01*
X661178D01*
X661224Y286020D01*
X661293Y286066D01*
X661386Y286112D01*
X661640Y286297D01*
X661941Y286552D01*
X662288Y286876D01*
X662612Y287246D01*
X662936Y287709D01*
X663191Y288218D01*
Y288241D01*
X663214Y288288D01*
X663237Y288380D01*
X663283Y288496D01*
X663330Y288635D01*
X663376Y288820D01*
X663445Y289028D01*
X663492Y289282D01*
X663538Y289560D01*
X663607Y289861D01*
X663654Y290185D01*
X663700Y290532D01*
X663746Y290925D01*
X663769Y291342D01*
X663792Y291782D01*
Y301500D01*
D02*
G37*
G36*
X647757D02*
X645628D01*
Y287385D01*
X637738D01*
Y285488D01*
X647757D01*
Y301500D01*
D02*
G37*
G36*
X635308D02*
X633179D01*
Y287385D01*
X625289D01*
Y285488D01*
X635308D01*
Y301500D01*
D02*
G37*
G36*
X533240Y301477D02*
X531273D01*
Y295738D01*
X531250Y295762D01*
X531203Y295808D01*
X531134Y295877D01*
X531018Y295993D01*
X530902Y296109D01*
X530741Y296248D01*
X530532Y296386D01*
X530324Y296548D01*
X530093Y296687D01*
X529838Y296826D01*
X529236Y297080D01*
X528913Y297196D01*
X528565Y297266D01*
X528195Y297312D01*
X527825Y297335D01*
X527617D01*
X527362Y297312D01*
X527061Y297266D01*
X526714Y297219D01*
X526344Y297127D01*
X525974Y296988D01*
X525604Y296826D01*
X525557Y296803D01*
X525442Y296733D01*
X525280Y296618D01*
X525071Y296456D01*
X524863Y296248D01*
X524632Y296016D01*
X524423Y295738D01*
X524238Y295415D01*
X524215Y295368D01*
X524169Y295252D01*
X524100Y295044D01*
X524030Y294743D01*
X523961Y294373D01*
X523891Y293934D01*
X523845Y293401D01*
X523822Y292800D01*
Y285464D01*
X525789D01*
Y292823D01*
Y292846D01*
Y292892D01*
Y292962D01*
Y293054D01*
X525812Y293309D01*
X525858Y293633D01*
X525951Y293980D01*
X526066Y294327D01*
X526228Y294674D01*
X526437Y294952D01*
X526460Y294975D01*
X526552Y295067D01*
X526691Y295183D01*
X526899Y295299D01*
X527154Y295438D01*
X527455Y295530D01*
X527825Y295623D01*
X528242Y295646D01*
X528380D01*
X528542Y295623D01*
X528774Y295600D01*
X529005Y295530D01*
X529283Y295461D01*
X529561Y295345D01*
X529861Y295183D01*
X529884Y295160D01*
X529977Y295091D01*
X530116Y294998D01*
X530278Y294859D01*
X530463Y294674D01*
X530648Y294466D01*
X530810Y294211D01*
X530949Y293934D01*
X530972Y293887D01*
X530995Y293795D01*
X531041Y293610D01*
X531111Y293378D01*
X531180Y293077D01*
X531227Y292707D01*
X531250Y292291D01*
X531273Y291805D01*
Y285464D01*
X533240D01*
Y301477D01*
D02*
G37*
G36*
X515885Y297335D02*
X515630D01*
X515376Y297312D01*
X515029Y297289D01*
X514636Y297243D01*
X514242Y297173D01*
X513849Y297080D01*
X513479Y296965D01*
X513432Y296942D01*
X513317Y296895D01*
X513155Y296826D01*
X512946Y296733D01*
X512715Y296595D01*
X512484Y296456D01*
X512275Y296271D01*
X512090Y296085D01*
X512067Y296062D01*
X512021Y295993D01*
X511951Y295877D01*
X511859Y295738D01*
X511743Y295530D01*
X511651Y295322D01*
X511558Y295067D01*
X511489Y294767D01*
Y294743D01*
X511465Y294674D01*
X511442Y294535D01*
X511419Y294350D01*
Y294095D01*
X511396Y293795D01*
X511373Y293401D01*
Y292962D01*
Y290324D01*
Y290301D01*
Y290208D01*
Y290069D01*
Y289884D01*
Y289676D01*
Y289421D01*
X511350Y288866D01*
Y288288D01*
X511327Y287709D01*
X511303Y287454D01*
Y287223D01*
X511280Y287015D01*
X511257Y286853D01*
Y286830D01*
X511234Y286737D01*
X511211Y286598D01*
X511142Y286413D01*
X511095Y286205D01*
X511003Y285974D01*
X510887Y285719D01*
X510771Y285464D01*
X512831D01*
X512854Y285488D01*
X512877Y285580D01*
X512923Y285696D01*
X512993Y285881D01*
X513062Y286089D01*
X513108Y286344D01*
X513155Y286621D01*
X513201Y286922D01*
X513224D01*
X513247Y286876D01*
X513386Y286760D01*
X513594Y286598D01*
X513872Y286390D01*
X514219Y286182D01*
X514566Y285951D01*
X514936Y285742D01*
X515330Y285580D01*
X515376Y285557D01*
X515515Y285534D01*
X515723Y285464D01*
X515978Y285395D01*
X516302Y285326D01*
X516672Y285279D01*
X517088Y285233D01*
X517505Y285210D01*
X517690D01*
X517829Y285233D01*
X517991D01*
X518176Y285256D01*
X518592Y285326D01*
X519055Y285441D01*
X519564Y285603D01*
X520027Y285835D01*
X520443Y286136D01*
X520490Y286182D01*
X520606Y286297D01*
X520768Y286506D01*
X520953Y286784D01*
X521138Y287131D01*
X521300Y287524D01*
X521415Y288010D01*
X521438Y288241D01*
X521462Y288519D01*
Y288658D01*
X521438Y288820D01*
X521415Y289028D01*
X521369Y289282D01*
X521300Y289537D01*
X521207Y289815D01*
X521091Y290069D01*
X521068Y290092D01*
X521022Y290185D01*
X520929Y290324D01*
X520814Y290486D01*
X520675Y290671D01*
X520490Y290856D01*
X520305Y291041D01*
X520073Y291203D01*
X520050Y291226D01*
X519958Y291273D01*
X519842Y291365D01*
X519657Y291458D01*
X519449Y291550D01*
X519194Y291666D01*
X518940Y291758D01*
X518639Y291851D01*
X518615D01*
X518523Y291874D01*
X518384Y291920D01*
X518199Y291944D01*
X517968Y291990D01*
X517667Y292036D01*
X517320Y292106D01*
X516903Y292152D01*
X516880D01*
X516787Y292175D01*
X516672D01*
X516510Y292198D01*
X516325Y292221D01*
X516093Y292267D01*
X515839Y292291D01*
X515561Y292337D01*
X515006Y292453D01*
X514404Y292568D01*
X513872Y292707D01*
X513617Y292777D01*
X513386Y292846D01*
Y292869D01*
Y292915D01*
X513363Y293054D01*
Y293216D01*
Y293309D01*
Y293355D01*
Y293378D01*
Y293401D01*
Y293540D01*
X513386Y293772D01*
X513432Y294026D01*
X513502Y294304D01*
X513617Y294582D01*
X513756Y294836D01*
X513941Y295044D01*
X513965Y295067D01*
X514080Y295160D01*
X514265Y295252D01*
X514497Y295391D01*
X514821Y295507D01*
X515191Y295623D01*
X515654Y295692D01*
X516186Y295715D01*
X516417D01*
X516649Y295692D01*
X516973Y295646D01*
X517297Y295600D01*
X517644Y295507D01*
X517968Y295391D01*
X518245Y295229D01*
X518268Y295206D01*
X518361Y295137D01*
X518477Y295021D01*
X518615Y294836D01*
X518754Y294605D01*
X518916Y294304D01*
X519055Y293934D01*
X519194Y293517D01*
X521115Y293772D01*
Y293795D01*
X521091Y293818D01*
Y293887D01*
X521068Y293980D01*
X520999Y294188D01*
X520906Y294489D01*
X520791Y294790D01*
X520652Y295114D01*
X520467Y295438D01*
X520258Y295738D01*
X520235Y295762D01*
X520143Y295854D01*
X520004Y295993D01*
X519819Y296178D01*
X519564Y296363D01*
X519263Y296548D01*
X518916Y296757D01*
X518523Y296919D01*
X518500D01*
X518477Y296942D01*
X518407Y296965D01*
X518315Y296988D01*
X518083Y297057D01*
X517759Y297127D01*
X517389Y297196D01*
X516926Y297266D01*
X516440Y297312D01*
X515885Y297335D01*
D02*
G37*
G36*
X492399D02*
X492167D01*
X492005Y297312D01*
X491820Y297289D01*
X491589Y297243D01*
X491334Y297196D01*
X491033Y297127D01*
X490756Y297057D01*
X490432Y296942D01*
X490131Y296826D01*
X489807Y296664D01*
X489483Y296479D01*
X489159Y296271D01*
X488858Y296016D01*
X488581Y295738D01*
X488557Y295715D01*
X488511Y295669D01*
X488442Y295576D01*
X488349Y295438D01*
X488233Y295276D01*
X488118Y295091D01*
X487979Y294859D01*
X487840Y294582D01*
X487701Y294281D01*
X487562Y293957D01*
X487447Y293587D01*
X487331Y293193D01*
X487239Y292753D01*
X487169Y292291D01*
X487123Y291805D01*
X487100Y291273D01*
Y290995D01*
X487123Y290763D01*
X495800D01*
Y290740D01*
Y290671D01*
X495777Y290578D01*
Y290439D01*
X495754Y290278D01*
X495708Y290092D01*
X495638Y289676D01*
X495499Y289213D01*
X495314Y288704D01*
X495060Y288241D01*
X494736Y287825D01*
X494712D01*
X494689Y287778D01*
X494551Y287663D01*
X494342Y287501D01*
X494065Y287339D01*
X493694Y287154D01*
X493278Y286992D01*
X492815Y286876D01*
X492561Y286853D01*
X492283Y286830D01*
X492098D01*
X491889Y286853D01*
X491635Y286899D01*
X491357Y286969D01*
X491033Y287061D01*
X490732Y287200D01*
X490432Y287385D01*
X490409Y287408D01*
X490293Y287501D01*
X490154Y287640D01*
X489992Y287825D01*
X489807Y288079D01*
X489599Y288403D01*
X489390Y288773D01*
X489205Y289213D01*
X487169Y288959D01*
Y288935D01*
X487192Y288889D01*
X487215Y288797D01*
X487262Y288658D01*
X487331Y288519D01*
X487401Y288334D01*
X487586Y287940D01*
X487817Y287501D01*
X488141Y287038D01*
X488511Y286598D01*
X488974Y286182D01*
X488997D01*
X489043Y286136D01*
X489113Y286089D01*
X489205Y286020D01*
X489344Y285951D01*
X489483Y285881D01*
X489668Y285788D01*
X489876Y285696D01*
X490108Y285603D01*
X490339Y285511D01*
X490918Y285372D01*
X491566Y285256D01*
X492283Y285210D01*
X492537D01*
X492699Y285233D01*
X492908Y285256D01*
X493162Y285303D01*
X493440Y285349D01*
X493741Y285395D01*
X494389Y285580D01*
X494736Y285719D01*
X495060Y285858D01*
X495407Y286043D01*
X495731Y286251D01*
X496031Y286483D01*
X496332Y286760D01*
X496355Y286784D01*
X496402Y286830D01*
X496471Y286922D01*
X496564Y287061D01*
X496679Y287223D01*
X496795Y287408D01*
X496934Y287640D01*
X497073Y287894D01*
X497212Y288195D01*
X497350Y288519D01*
X497466Y288889D01*
X497582Y289282D01*
X497674Y289699D01*
X497744Y290162D01*
X497790Y290648D01*
X497813Y291157D01*
Y291434D01*
X497790Y291643D01*
X497767Y291897D01*
X497744Y292175D01*
X497697Y292499D01*
X497628Y292823D01*
X497443Y293563D01*
X497327Y293934D01*
X497188Y294327D01*
X497003Y294697D01*
X496795Y295044D01*
X496564Y295391D01*
X496309Y295715D01*
X496286Y295738D01*
X496240Y295785D01*
X496147Y295854D01*
X496031Y295970D01*
X495893Y296085D01*
X495708Y296224D01*
X495499Y296386D01*
X495245Y296525D01*
X494990Y296687D01*
X494689Y296826D01*
X494365Y296965D01*
X494018Y297080D01*
X493648Y297196D01*
X493255Y297266D01*
X492838Y297312D01*
X492399Y297335D01*
D02*
G37*
G36*
X547910Y301477D02*
X541338D01*
X540991Y301454D01*
X540598Y301431D01*
X540181Y301408D01*
X539788Y301361D01*
X539441Y301315D01*
X539395D01*
X539233Y301269D01*
X539025Y301222D01*
X538747Y301153D01*
X538446Y301037D01*
X538122Y300898D01*
X537775Y300737D01*
X537474Y300551D01*
X537428Y300528D01*
X537335Y300459D01*
X537197Y300320D01*
X537011Y300158D01*
X536803Y299950D01*
X536595Y299672D01*
X536363Y299371D01*
X536178Y299024D01*
X536155Y298978D01*
X536109Y298862D01*
X536016Y298654D01*
X535924Y298376D01*
X535854Y298052D01*
X535762Y297682D01*
X535715Y297266D01*
X535692Y296826D01*
Y296641D01*
X535715Y296479D01*
X535739Y296317D01*
X535762Y296109D01*
X535808Y295877D01*
X535854Y295623D01*
X536016Y295091D01*
X536109Y294813D01*
X536248Y294512D01*
X536410Y294211D01*
X536572Y293934D01*
X536780Y293656D01*
X537011Y293378D01*
X537034Y293355D01*
X537081Y293309D01*
X537150Y293239D01*
X537266Y293170D01*
X537405Y293054D01*
X537590Y292939D01*
X537821Y292800D01*
X538076Y292684D01*
X538377Y292545D01*
X538724Y292406D01*
X539094Y292291D01*
X539534Y292198D01*
X539996Y292106D01*
X540505Y292036D01*
X541084Y291990D01*
X541685Y291967D01*
X545781D01*
Y285464D01*
X547910D01*
Y301477D01*
D02*
G37*
G36*
X504871Y297335D02*
X504315D01*
X504061Y297312D01*
X503714Y297289D01*
X503344Y297243D01*
X502950Y297150D01*
X502534Y297057D01*
X502140Y296919D01*
X502117D01*
X502094Y296895D01*
X501978Y296849D01*
X501793Y296757D01*
X501562Y296641D01*
X501307Y296479D01*
X501053Y296294D01*
X500821Y296085D01*
X500613Y295854D01*
X500590Y295831D01*
X500544Y295738D01*
X500451Y295576D01*
X500335Y295391D01*
X500220Y295114D01*
X500104Y294813D01*
X500011Y294466D01*
X499919Y294072D01*
X501839Y293818D01*
Y293864D01*
X501863Y293957D01*
X501909Y294119D01*
X501978Y294327D01*
X502094Y294535D01*
X502233Y294767D01*
X502395Y294998D01*
X502626Y295206D01*
X502649Y295229D01*
X502742Y295276D01*
X502881Y295368D01*
X503089Y295461D01*
X503320Y295553D01*
X503621Y295646D01*
X503991Y295692D01*
X504385Y295715D01*
X504616D01*
X504848Y295692D01*
X505148Y295669D01*
X505449Y295600D01*
X505773Y295530D01*
X506074Y295415D01*
X506329Y295252D01*
X506352Y295229D01*
X506421Y295183D01*
X506514Y295091D01*
X506606Y294952D01*
X506722Y294813D01*
X506814Y294628D01*
X506884Y294419D01*
X506907Y294211D01*
Y294188D01*
Y294142D01*
X506884Y294072D01*
Y293980D01*
X506814Y293748D01*
X506676Y293517D01*
X506652Y293494D01*
X506629Y293471D01*
X506583Y293401D01*
X506491Y293332D01*
X506398Y293263D01*
X506259Y293170D01*
X506097Y293100D01*
X505912Y293008D01*
X505889D01*
X505843Y292985D01*
X505750Y292962D01*
X505588Y292892D01*
X505357Y292823D01*
X505056Y292753D01*
X504871Y292684D01*
X504663Y292638D01*
X504431Y292568D01*
X504176Y292499D01*
X504153D01*
X504084Y292476D01*
X503968Y292453D01*
X503829Y292406D01*
X503667Y292360D01*
X503459Y292314D01*
X503020Y292175D01*
X502534Y292036D01*
X502048Y291874D01*
X501608Y291712D01*
X501423Y291643D01*
X501261Y291573D01*
X501215Y291550D01*
X501122Y291504D01*
X500983Y291434D01*
X500775Y291319D01*
X500567Y291180D01*
X500359Y290995D01*
X500150Y290787D01*
X499965Y290555D01*
X499942Y290532D01*
X499896Y290439D01*
X499803Y290301D01*
X499711Y290092D01*
X499641Y289838D01*
X499549Y289560D01*
X499502Y289236D01*
X499479Y288866D01*
Y288704D01*
X499502Y288519D01*
X499549Y288264D01*
X499618Y287987D01*
X499734Y287686D01*
X499873Y287339D01*
X500058Y287015D01*
X500081Y286969D01*
X500173Y286876D01*
X500289Y286714D01*
X500474Y286529D01*
X500729Y286321D01*
X501006Y286089D01*
X501330Y285881D01*
X501724Y285673D01*
X501747D01*
X501770Y285650D01*
X501909Y285603D01*
X502140Y285534D01*
X502441Y285441D01*
X502811Y285349D01*
X503228Y285279D01*
X503667Y285233D01*
X504176Y285210D01*
X504385D01*
X504547Y285233D01*
X504732D01*
X504963Y285256D01*
X505195Y285279D01*
X505449Y285326D01*
X506005Y285441D01*
X506583Y285603D01*
X507138Y285835D01*
X507393Y285974D01*
X507624Y286136D01*
X507647Y286159D01*
X507671Y286182D01*
X507809Y286321D01*
X508018Y286529D01*
X508249Y286853D01*
X508504Y287246D01*
X508758Y287709D01*
X508966Y288288D01*
X509128Y288935D01*
X507185Y289236D01*
Y289213D01*
Y289190D01*
X507138Y289051D01*
X507092Y288820D01*
X507000Y288565D01*
X506884Y288288D01*
X506745Y287987D01*
X506537Y287686D01*
X506282Y287431D01*
X506236Y287408D01*
X506143Y287339D01*
X505958Y287246D01*
X505727Y287131D01*
X505426Y287015D01*
X505079Y286922D01*
X504663Y286853D01*
X504176Y286830D01*
X503945D01*
X503714Y286853D01*
X503413Y286899D01*
X503089Y286969D01*
X502742Y287061D01*
X502441Y287177D01*
X502163Y287362D01*
X502140Y287385D01*
X502048Y287454D01*
X501955Y287570D01*
X501816Y287732D01*
X501701Y287917D01*
X501585Y288149D01*
X501516Y288380D01*
X501492Y288658D01*
Y288681D01*
Y288773D01*
X501516Y288889D01*
X501562Y289051D01*
X501631Y289213D01*
X501747Y289375D01*
X501886Y289560D01*
X502094Y289699D01*
X502117Y289722D01*
X502187Y289745D01*
X502302Y289815D01*
X502487Y289884D01*
X502765Y289977D01*
X502927Y290046D01*
X503112Y290092D01*
X503320Y290162D01*
X503552Y290231D01*
X503806Y290301D01*
X504107Y290370D01*
X504130D01*
X504200Y290393D01*
X504315Y290416D01*
X504454Y290463D01*
X504639Y290509D01*
X504848Y290578D01*
X505287Y290694D01*
X505796Y290856D01*
X506282Y290995D01*
X506745Y291157D01*
X506953Y291249D01*
X507115Y291319D01*
X507161Y291342D01*
X507254Y291388D01*
X507393Y291481D01*
X507578Y291597D01*
X507786Y291758D01*
X507994Y291944D01*
X508203Y292152D01*
X508388Y292406D01*
X508411Y292430D01*
X508457Y292522D01*
X508527Y292684D01*
X508596Y292869D01*
X508666Y293100D01*
X508735Y293378D01*
X508781Y293656D01*
X508804Y293980D01*
Y294026D01*
Y294119D01*
X508781Y294258D01*
X508758Y294466D01*
X508712Y294674D01*
X508666Y294928D01*
X508573Y295160D01*
X508457Y295415D01*
X508434Y295438D01*
X508388Y295530D01*
X508318Y295646D01*
X508203Y295808D01*
X508064Y295970D01*
X507902Y296178D01*
X507717Y296363D01*
X507486Y296525D01*
X507462Y296548D01*
X507393Y296571D01*
X507300Y296641D01*
X507161Y296710D01*
X506976Y296803D01*
X506768Y296895D01*
X506514Y296988D01*
X506236Y297080D01*
X506190Y297104D01*
X506097Y297127D01*
X505935Y297173D01*
X505727Y297219D01*
X505472Y297266D01*
X505195Y297289D01*
X504871Y297335D01*
D02*
G37*
%LPD*%
G36*
X513409Y291273D02*
X513479Y291249D01*
X513571Y291226D01*
X513687Y291180D01*
X513826Y291134D01*
X513988Y291087D01*
X514173Y291041D01*
X514381Y290972D01*
X514636Y290925D01*
X514890Y290856D01*
X515191Y290787D01*
X515515Y290717D01*
X515839Y290648D01*
X516209Y290602D01*
X516602Y290532D01*
X516649D01*
X516787Y290509D01*
X517019Y290463D01*
X517273Y290416D01*
X517551Y290370D01*
X517829Y290301D01*
X518083Y290231D01*
X518315Y290139D01*
X518338D01*
X518407Y290092D01*
X518500Y290046D01*
X518592Y289977D01*
X518870Y289792D01*
X519101Y289514D01*
Y289491D01*
X519148Y289445D01*
X519171Y289352D01*
X519217Y289236D01*
X519263Y289097D01*
X519310Y288959D01*
X519333Y288773D01*
X519356Y288588D01*
Y288565D01*
Y288449D01*
X519333Y288311D01*
X519287Y288126D01*
X519217Y287917D01*
X519101Y287709D01*
X518963Y287478D01*
X518778Y287269D01*
X518754Y287246D01*
X518662Y287200D01*
X518523Y287107D01*
X518338Y287015D01*
X518083Y286922D01*
X517783Y286830D01*
X517435Y286784D01*
X517019Y286760D01*
X516834D01*
X516602Y286784D01*
X516348Y286830D01*
X516024Y286876D01*
X515700Y286969D01*
X515353Y287084D01*
X515006Y287246D01*
X514959Y287269D01*
X514867Y287339D01*
X514705Y287454D01*
X514520Y287617D01*
X514312Y287802D01*
X514080Y288033D01*
X513895Y288311D01*
X513710Y288612D01*
X513687Y288635D01*
X513664Y288727D01*
X513617Y288889D01*
X513548Y289097D01*
X513479Y289375D01*
X513432Y289699D01*
X513409Y290092D01*
X513386Y290555D01*
X513363Y291296D01*
X513386D01*
X513409Y291273D01*
D02*
G37*
G36*
X492607Y295692D02*
X492861Y295669D01*
X493162Y295600D01*
X493532Y295484D01*
X493926Y295322D01*
X494296Y295091D01*
X494666Y294790D01*
X494712Y294743D01*
X494805Y294628D01*
X494967Y294419D01*
X495129Y294142D01*
X495314Y293818D01*
X495476Y293401D01*
X495615Y292915D01*
X495684Y292383D01*
X489182D01*
Y292406D01*
Y292453D01*
X489205Y292522D01*
Y292615D01*
X489252Y292892D01*
X489321Y293193D01*
X489437Y293563D01*
X489552Y293910D01*
X489738Y294258D01*
X489946Y294558D01*
Y294582D01*
X489992Y294605D01*
X490108Y294743D01*
X490316Y294928D01*
X490594Y295137D01*
X490941Y295345D01*
X491357Y295530D01*
X491843Y295669D01*
X492098Y295692D01*
X492375Y295715D01*
X492514D01*
X492607Y295692D01*
D02*
G37*
G36*
X545781Y293864D02*
X541477D01*
X541315Y293887D01*
X541153D01*
X540968Y293910D01*
X540528Y293957D01*
X540043Y294049D01*
X539557Y294188D01*
X539117Y294373D01*
X538909Y294489D01*
X538747Y294628D01*
X538700Y294674D01*
X538608Y294767D01*
X538469Y294952D01*
X538307Y295183D01*
X538145Y295484D01*
X538006Y295854D01*
X537914Y296271D01*
X537868Y296757D01*
Y296780D01*
Y296803D01*
Y296919D01*
X537891Y297127D01*
X537937Y297358D01*
X537983Y297613D01*
X538076Y297913D01*
X538215Y298191D01*
X538377Y298469D01*
X538400Y298492D01*
X538469Y298585D01*
X538585Y298700D01*
X538724Y298862D01*
X538932Y299024D01*
X539163Y299163D01*
X539418Y299302D01*
X539719Y299418D01*
X539742D01*
X539834Y299441D01*
X539973Y299464D01*
X540158Y299510D01*
X540436Y299533D01*
X540783Y299556D01*
X541200Y299580D01*
X545781D01*
Y293864D01*
D02*
G37*
%LPC*%
G36*
X728993Y301500D02*
X725823D01*
X722028Y290139D01*
Y290116D01*
X722005Y290069D01*
X721982Y290000D01*
X721936Y289884D01*
X721843Y289606D01*
X721727Y289259D01*
X721612Y288866D01*
X721473Y288473D01*
X721357Y288102D01*
X721265Y287778D01*
X721242Y287825D01*
X721218Y287940D01*
X721149Y288149D01*
X721056Y288426D01*
X720941Y288797D01*
X720779Y289236D01*
X720617Y289745D01*
X720408Y290347D01*
X716567Y301500D01*
X713721D01*
Y285488D01*
X715758D01*
Y298885D01*
X720432Y285488D01*
X722329D01*
X726957Y299117D01*
Y285488D01*
X728993D01*
Y301500D01*
D02*
G37*
G36*
X745052D02*
X742923D01*
Y292244D01*
Y292221D01*
Y292152D01*
Y292036D01*
Y291897D01*
X742900Y291735D01*
Y291527D01*
X742877Y291087D01*
X742831Y290578D01*
X742761Y290069D01*
X742669Y289583D01*
X742622Y289375D01*
X742553Y289167D01*
X742530Y289121D01*
X742484Y289005D01*
X742368Y288843D01*
X742229Y288612D01*
X742067Y288380D01*
X741836Y288126D01*
X741558Y287871D01*
X741234Y287663D01*
X741188Y287640D01*
X741072Y287570D01*
X740864Y287501D01*
X740586Y287408D01*
X740262Y287292D01*
X739846Y287223D01*
X739406Y287154D01*
X738920Y287131D01*
X738689D01*
X738550Y287154D01*
X738342D01*
X738133Y287177D01*
X737624Y287269D01*
X737069Y287385D01*
X736537Y287570D01*
X736028Y287825D01*
X735796Y287987D01*
X735588Y288172D01*
X735565Y288195D01*
X735542Y288218D01*
X735495Y288288D01*
X735426Y288380D01*
X735357Y288519D01*
X735264Y288658D01*
X735171Y288866D01*
X735079Y289074D01*
X734986Y289329D01*
X734917Y289630D01*
X734824Y289977D01*
X734755Y290347D01*
X734686Y290763D01*
X734639Y291203D01*
X734593Y291712D01*
Y292244D01*
Y301500D01*
X732464D01*
Y291851D01*
X732487Y291643D01*
Y291411D01*
X732510Y291134D01*
X732533Y290856D01*
X732603Y290231D01*
X732695Y289583D01*
X732834Y288959D01*
X732927Y288658D01*
X733019Y288380D01*
Y288357D01*
X733043Y288311D01*
X733089Y288241D01*
X733135Y288149D01*
X733274Y287894D01*
X733482Y287570D01*
X733760Y287200D01*
X734084Y286830D01*
X734500Y286436D01*
X735010Y286089D01*
X735033D01*
X735079Y286043D01*
X735148Y286020D01*
X735264Y285951D01*
X735403Y285881D01*
X735588Y285812D01*
X735773Y285742D01*
X736004Y285650D01*
X736259Y285557D01*
X736537Y285488D01*
X736837Y285418D01*
X737185Y285349D01*
X737532Y285303D01*
X737902Y285256D01*
X738735Y285210D01*
X738943D01*
X739105Y285233D01*
X739290D01*
X739522Y285256D01*
X739776Y285279D01*
X740031Y285303D01*
X740609Y285395D01*
X741234Y285534D01*
X741836Y285719D01*
X742414Y285974D01*
X742437D01*
X742484Y286020D01*
X742553Y286066D01*
X742645Y286112D01*
X742900Y286297D01*
X743201Y286552D01*
X743548Y286876D01*
X743872Y287246D01*
X744196Y287709D01*
X744450Y288218D01*
Y288241D01*
X744473Y288288D01*
X744497Y288380D01*
X744543Y288496D01*
X744589Y288635D01*
X744635Y288820D01*
X744705Y289028D01*
X744751Y289282D01*
X744797Y289560D01*
X744867Y289861D01*
X744913Y290185D01*
X744959Y290532D01*
X745006Y290925D01*
X745029Y291342D01*
X745052Y291782D01*
Y301500D01*
D02*
G37*
G36*
X760000D02*
X753428D01*
X753081Y301477D01*
X752688Y301454D01*
X752271Y301431D01*
X751878Y301384D01*
X751531Y301338D01*
X751485D01*
X751323Y301292D01*
X751115Y301246D01*
X750837Y301176D01*
X750536Y301061D01*
X750212Y300922D01*
X749865Y300760D01*
X749564Y300575D01*
X749518Y300551D01*
X749425Y300482D01*
X749286Y300343D01*
X749101Y300181D01*
X748893Y299973D01*
X748685Y299695D01*
X748453Y299394D01*
X748268Y299047D01*
X748245Y299001D01*
X748199Y298885D01*
X748106Y298677D01*
X748014Y298400D01*
X747944Y298076D01*
X747852Y297705D01*
X747805Y297289D01*
X747782Y296849D01*
Y296664D01*
X747805Y296502D01*
X747829Y296340D01*
X747852Y296132D01*
X747898Y295900D01*
X747944Y295646D01*
X748106Y295114D01*
X748199Y294836D01*
X748338Y294535D01*
X748500Y294234D01*
X748662Y293957D01*
X748870Y293679D01*
X749101Y293401D01*
X749125Y293378D01*
X749171Y293332D01*
X749240Y293263D01*
X749356Y293193D01*
X749495Y293077D01*
X749680Y292962D01*
X749911Y292823D01*
X750166Y292707D01*
X750467Y292568D01*
X750814Y292430D01*
X751184Y292314D01*
X751624Y292221D01*
X752086Y292129D01*
X752595Y292059D01*
X753174Y292013D01*
X753775Y291990D01*
X757871D01*
Y285488D01*
X760000D01*
Y301500D01*
D02*
G37*
G36*
X710273D02*
X703702D01*
X703355Y301477D01*
X702961Y301454D01*
X702545Y301431D01*
X702151Y301384D01*
X701804Y301338D01*
X701758D01*
X701596Y301292D01*
X701388Y301246D01*
X701110Y301176D01*
X700809Y301061D01*
X700486Y300922D01*
X700138Y300760D01*
X699838Y300575D01*
X699791Y300551D01*
X699699Y300482D01*
X699560Y300343D01*
X699375Y300181D01*
X699166Y299973D01*
X698958Y299695D01*
X698727Y299394D01*
X698542Y299047D01*
X698519Y299001D01*
X698472Y298885D01*
X698380Y298677D01*
X698287Y298400D01*
X698218Y298076D01*
X698125Y297705D01*
X698079Y297289D01*
X698056Y296849D01*
Y296664D01*
X698079Y296502D01*
X698102Y296340D01*
X698125Y296132D01*
X698171Y295900D01*
X698218Y295646D01*
X698380Y295114D01*
X698472Y294836D01*
X698611Y294535D01*
X698773Y294234D01*
X698935Y293957D01*
X699143Y293679D01*
X699375Y293401D01*
X699398Y293378D01*
X699444Y293332D01*
X699514Y293263D01*
X699629Y293193D01*
X699768Y293077D01*
X699953Y292962D01*
X700185Y292823D01*
X700439Y292707D01*
X700740Y292568D01*
X701087Y292430D01*
X701457Y292314D01*
X701897Y292221D01*
X702360Y292129D01*
X702869Y292059D01*
X703447Y292013D01*
X704049Y291990D01*
X708145D01*
Y285488D01*
X710273D01*
Y301500D01*
D02*
G37*
%LPD*%
G36*
X757871Y293887D02*
X753567D01*
X753405Y293910D01*
X753243D01*
X753058Y293934D01*
X752618Y293980D01*
X752133Y294072D01*
X751647Y294211D01*
X751207Y294396D01*
X750999Y294512D01*
X750837Y294651D01*
X750790Y294697D01*
X750698Y294790D01*
X750559Y294975D01*
X750397Y295206D01*
X750235Y295507D01*
X750096Y295877D01*
X750004Y296294D01*
X749958Y296780D01*
Y296803D01*
Y296826D01*
Y296942D01*
X749981Y297150D01*
X750027Y297381D01*
X750073Y297636D01*
X750166Y297937D01*
X750305Y298214D01*
X750467Y298492D01*
X750490Y298515D01*
X750559Y298608D01*
X750675Y298723D01*
X750814Y298885D01*
X751022Y299047D01*
X751253Y299186D01*
X751508Y299325D01*
X751809Y299441D01*
X751832D01*
X751924Y299464D01*
X752063Y299487D01*
X752248Y299533D01*
X752526Y299556D01*
X752873Y299580D01*
X753290Y299603D01*
X757871D01*
Y293887D01*
D02*
G37*
G36*
X708145D02*
X703841D01*
X703679Y293910D01*
X703517D01*
X703332Y293934D01*
X702892Y293980D01*
X702406Y294072D01*
X701920Y294211D01*
X701480Y294396D01*
X701272Y294512D01*
X701110Y294651D01*
X701064Y294697D01*
X700971Y294790D01*
X700833Y294975D01*
X700671Y295206D01*
X700509Y295507D01*
X700370Y295877D01*
X700277Y296294D01*
X700231Y296780D01*
Y296803D01*
Y296826D01*
Y296942D01*
X700254Y297150D01*
X700300Y297381D01*
X700347Y297636D01*
X700439Y297937D01*
X700578Y298214D01*
X700740Y298492D01*
X700763Y298515D01*
X700833Y298608D01*
X700948Y298723D01*
X701087Y298885D01*
X701295Y299047D01*
X701527Y299186D01*
X701781Y299325D01*
X702082Y299441D01*
X702105D01*
X702198Y299464D01*
X702337Y299487D01*
X702522Y299533D01*
X702799Y299556D01*
X703147Y299580D01*
X703563Y299603D01*
X708145D01*
Y293887D01*
D02*
G37*
%LPC*%
G36*
X619030Y301500D02*
X616855D01*
X608455Y288912D01*
Y301500D01*
X606419D01*
Y285488D01*
X608617D01*
X616994Y298052D01*
Y285488D01*
X619030D01*
Y301500D01*
D02*
G37*
G36*
X602832D02*
X600704D01*
Y292244D01*
Y292221D01*
Y292152D01*
Y292036D01*
Y291897D01*
X600681Y291735D01*
Y291527D01*
X600657Y291087D01*
X600611Y290578D01*
X600542Y290069D01*
X600449Y289583D01*
X600403Y289375D01*
X600333Y289167D01*
X600310Y289121D01*
X600264Y289005D01*
X600148Y288843D01*
X600009Y288612D01*
X599847Y288380D01*
X599616Y288126D01*
X599338Y287871D01*
X599014Y287663D01*
X598968Y287640D01*
X598852Y287570D01*
X598644Y287501D01*
X598367Y287408D01*
X598043Y287292D01*
X597626Y287223D01*
X597186Y287154D01*
X596701Y287131D01*
X596469D01*
X596330Y287154D01*
X596122D01*
X595914Y287177D01*
X595405Y287269D01*
X594849Y287385D01*
X594317Y287570D01*
X593808Y287825D01*
X593577Y287987D01*
X593368Y288172D01*
X593345Y288195D01*
X593322Y288218D01*
X593276Y288288D01*
X593206Y288380D01*
X593137Y288519D01*
X593045Y288658D01*
X592952Y288866D01*
X592859Y289074D01*
X592767Y289329D01*
X592697Y289630D01*
X592605Y289977D01*
X592535Y290347D01*
X592466Y290763D01*
X592420Y291203D01*
X592373Y291712D01*
Y292244D01*
Y301500D01*
X590245D01*
Y291851D01*
X590268Y291643D01*
Y291411D01*
X590291Y291134D01*
X590314Y290856D01*
X590383Y290231D01*
X590476Y289583D01*
X590615Y288959D01*
X590707Y288658D01*
X590800Y288380D01*
Y288357D01*
X590823Y288311D01*
X590869Y288241D01*
X590916Y288149D01*
X591054Y287894D01*
X591263Y287570D01*
X591540Y287200D01*
X591864Y286830D01*
X592281Y286436D01*
X592790Y286089D01*
X592813D01*
X592859Y286043D01*
X592929Y286020D01*
X593045Y285951D01*
X593183Y285881D01*
X593368Y285812D01*
X593554Y285742D01*
X593785Y285650D01*
X594039Y285557D01*
X594317Y285488D01*
X594618Y285418D01*
X594965Y285349D01*
X595312Y285303D01*
X595682Y285256D01*
X596515Y285210D01*
X596724D01*
X596886Y285233D01*
X597071D01*
X597302Y285256D01*
X597557Y285279D01*
X597811Y285303D01*
X598390Y285395D01*
X599014Y285534D01*
X599616Y285719D01*
X600195Y285974D01*
X600218D01*
X600264Y286020D01*
X600333Y286066D01*
X600426Y286112D01*
X600681Y286297D01*
X600981Y286552D01*
X601328Y286876D01*
X601652Y287246D01*
X601976Y287709D01*
X602231Y288218D01*
Y288241D01*
X602254Y288288D01*
X602277Y288380D01*
X602323Y288496D01*
X602370Y288635D01*
X602416Y288820D01*
X602485Y289028D01*
X602532Y289282D01*
X602578Y289560D01*
X602647Y289861D01*
X602694Y290185D01*
X602740Y290532D01*
X602786Y290925D01*
X602809Y291342D01*
X602832Y291782D01*
Y301500D01*
D02*
G37*
G36*
X586797D02*
X584668D01*
Y287385D01*
X576777D01*
Y285488D01*
X586797D01*
Y301500D01*
D02*
G37*
G36*
X574348D02*
X572219D01*
Y287385D01*
X564328D01*
Y285488D01*
X574348D01*
Y301500D01*
D02*
G37*
G36*
X890288D02*
X888090D01*
X885707Y290995D01*
Y290972D01*
X885684Y290925D01*
X885661Y290833D01*
X885638Y290717D01*
X885614Y290555D01*
X885568Y290393D01*
X885522Y290185D01*
X885475Y289954D01*
X885360Y289468D01*
X885244Y288912D01*
X885128Y288311D01*
X885013Y287709D01*
Y287732D01*
X884990Y287825D01*
X884943Y287940D01*
X884920Y288126D01*
X884874Y288311D01*
X884805Y288542D01*
X884689Y289051D01*
X884550Y289560D01*
X884504Y289815D01*
X884434Y290046D01*
X884388Y290254D01*
X884342Y290439D01*
X884295Y290578D01*
X884272Y290671D01*
X881241Y301500D01*
X878673D01*
X876405Y293378D01*
Y293355D01*
X876359Y293239D01*
X876312Y293077D01*
X876266Y292869D01*
X876197Y292591D01*
X876104Y292291D01*
X876012Y291944D01*
X875919Y291550D01*
X875803Y291110D01*
X875711Y290671D01*
X875502Y289722D01*
X875294Y288727D01*
X875132Y287709D01*
Y287732D01*
X875109Y287778D01*
Y287871D01*
X875063Y287987D01*
X875040Y288126D01*
X874993Y288288D01*
X874970Y288496D01*
X874901Y288727D01*
X874785Y289236D01*
X874646Y289838D01*
X874508Y290486D01*
X874322Y291203D01*
X871823Y301500D01*
X869671D01*
X874068Y285488D01*
X876150D01*
X879506Y297682D01*
Y297705D01*
X879529Y297752D01*
X879552Y297821D01*
X879575Y297937D01*
X879644Y298191D01*
X879714Y298492D01*
X879806Y298816D01*
X879899Y299117D01*
X879968Y299371D01*
X879992Y299487D01*
X880015Y299556D01*
Y299533D01*
X880038Y299510D01*
X880061Y299371D01*
X880107Y299163D01*
X880177Y298909D01*
X880246Y298631D01*
X880339Y298307D01*
X880408Y297983D01*
X880501Y297682D01*
X883879Y285488D01*
X886100D01*
X890288Y301500D01*
D02*
G37*
G36*
X918750D02*
X916621D01*
Y287385D01*
X908731D01*
Y285488D01*
X918750D01*
Y301500D01*
D02*
G37*
G36*
X899197Y301778D02*
X898989D01*
X898827Y301755D01*
X898619D01*
X898410Y301731D01*
X898133Y301685D01*
X897855Y301639D01*
X897253Y301523D01*
X896559Y301338D01*
X895888Y301061D01*
X895541Y300898D01*
X895194Y300713D01*
X895171Y300690D01*
X895125Y300667D01*
X895032Y300598D01*
X894893Y300528D01*
X894754Y300413D01*
X894569Y300274D01*
X894176Y299950D01*
X893760Y299533D01*
X893297Y299024D01*
X892857Y298423D01*
X892487Y297752D01*
Y297728D01*
X892440Y297659D01*
X892394Y297566D01*
X892348Y297428D01*
X892255Y297243D01*
X892186Y297034D01*
X892093Y296780D01*
X892001Y296502D01*
X891931Y296201D01*
X891839Y295877D01*
X891746Y295507D01*
X891677Y295137D01*
X891584Y294327D01*
X891538Y293448D01*
Y293216D01*
X891561Y293031D01*
Y292823D01*
X891584Y292568D01*
X891631Y292291D01*
X891654Y291990D01*
X891769Y291319D01*
X891955Y290578D01*
X892209Y289838D01*
X892348Y289468D01*
X892533Y289097D01*
Y289074D01*
X892579Y289005D01*
X892626Y288912D01*
X892718Y288773D01*
X892811Y288612D01*
X892926Y288449D01*
X893250Y288010D01*
X893644Y287547D01*
X894107Y287061D01*
X894662Y286598D01*
X895310Y286182D01*
X895333D01*
X895379Y286136D01*
X895495Y286089D01*
X895634Y286020D01*
X895796Y285951D01*
X895981Y285881D01*
X896212Y285788D01*
X896467Y285696D01*
X896744Y285603D01*
X897045Y285511D01*
X897716Y285372D01*
X898434Y285256D01*
X899197Y285210D01*
X899429D01*
X899567Y285233D01*
X899776D01*
X900007Y285279D01*
X900262Y285303D01*
X900562Y285349D01*
X901187Y285488D01*
X901858Y285673D01*
X902552Y285951D01*
X902899Y286112D01*
X903247Y286297D01*
X903270Y286321D01*
X903316Y286344D01*
X903409Y286413D01*
X903547Y286506D01*
X903686Y286598D01*
X903848Y286737D01*
X904242Y287084D01*
X904681Y287501D01*
X905144Y288010D01*
X905561Y288588D01*
X905954Y289259D01*
Y289282D01*
X906000Y289352D01*
X906047Y289445D01*
X906093Y289583D01*
X906162Y289769D01*
X906232Y289977D01*
X906324Y290208D01*
X906394Y290463D01*
X906486Y290763D01*
X906579Y291064D01*
X906718Y291758D01*
X906810Y292476D01*
X906856Y293263D01*
Y293448D01*
X906833Y293656D01*
Y293934D01*
X906787Y294258D01*
X906741Y294651D01*
X906671Y295091D01*
X906579Y295553D01*
X906486Y296039D01*
X906347Y296548D01*
X906162Y297057D01*
X905954Y297590D01*
X905723Y298099D01*
X905422Y298608D01*
X905098Y299070D01*
X904727Y299510D01*
X904704Y299533D01*
X904635Y299603D01*
X904496Y299718D01*
X904334Y299857D01*
X904126Y300042D01*
X903871Y300228D01*
X903571Y300436D01*
X903223Y300644D01*
X902853Y300852D01*
X902437Y301061D01*
X901974Y301246D01*
X901488Y301431D01*
X900956Y301570D01*
X900400Y301685D01*
X899822Y301755D01*
X899197Y301778D01*
D02*
G37*
%LPD*%
G36*
X899567Y299927D02*
X899776Y299904D01*
X899984Y299857D01*
X900238Y299811D01*
X900516Y299765D01*
X901118Y299580D01*
X901442Y299441D01*
X901766Y299302D01*
X902113Y299117D01*
X902437Y298909D01*
X902761Y298677D01*
X903062Y298400D01*
X903085Y298376D01*
X903131Y298330D01*
X903200Y298237D01*
X903316Y298099D01*
X903432Y297937D01*
X903571Y297728D01*
X903709Y297474D01*
X903871Y297173D01*
X904010Y296849D01*
X904172Y296456D01*
X904311Y296039D01*
X904427Y295576D01*
X904542Y295067D01*
X904612Y294489D01*
X904658Y293887D01*
X904681Y293239D01*
Y293216D01*
Y293124D01*
Y292962D01*
X904658Y292753D01*
X904635Y292522D01*
X904589Y292244D01*
X904542Y291920D01*
X904496Y291597D01*
X904311Y290856D01*
X904172Y290486D01*
X904033Y290092D01*
X903848Y289722D01*
X903640Y289352D01*
X903409Y289005D01*
X903131Y288681D01*
X903108Y288658D01*
X903062Y288612D01*
X902969Y288519D01*
X902853Y288426D01*
X902691Y288288D01*
X902506Y288149D01*
X902298Y288010D01*
X902066Y287848D01*
X901789Y287686D01*
X901488Y287547D01*
X901164Y287408D01*
X900817Y287269D01*
X900447Y287177D01*
X900077Y287084D01*
X899660Y287038D01*
X899220Y287015D01*
X899105D01*
X898989Y287038D01*
X898827D01*
X898619Y287061D01*
X898387Y287107D01*
X898110Y287154D01*
X897832Y287223D01*
X897508Y287316D01*
X897207Y287431D01*
X896860Y287547D01*
X896536Y287709D01*
X896212Y287917D01*
X895888Y288126D01*
X895564Y288380D01*
X895264Y288681D01*
X895240Y288704D01*
X895194Y288750D01*
X895125Y288866D01*
X895009Y289005D01*
X894893Y289167D01*
X894778Y289375D01*
X894639Y289630D01*
X894477Y289907D01*
X894338Y290231D01*
X894199Y290602D01*
X894083Y290995D01*
X893945Y291411D01*
X893852Y291874D01*
X893783Y292383D01*
X893736Y292915D01*
X893713Y293471D01*
Y293494D01*
Y293563D01*
Y293656D01*
Y293795D01*
X893736Y293957D01*
Y294165D01*
X893760Y294373D01*
X893806Y294628D01*
X893875Y295160D01*
X893991Y295715D01*
X894153Y296317D01*
X894384Y296872D01*
Y296895D01*
X894407Y296942D01*
X894454Y297011D01*
X894500Y297104D01*
X894662Y297381D01*
X894870Y297705D01*
X895148Y298076D01*
X895495Y298446D01*
X895888Y298816D01*
X896328Y299140D01*
X896351D01*
X896374Y299186D01*
X896444Y299209D01*
X896559Y299279D01*
X896675Y299325D01*
X896814Y299394D01*
X897161Y299556D01*
X897578Y299695D01*
X898063Y299834D01*
X898619Y299927D01*
X899197Y299950D01*
X899406D01*
X899567Y299927D01*
D02*
G37*
%LPC*%
G36*
X984790Y301500D02*
X982661D01*
Y294928D01*
X974377D01*
Y301500D01*
X972248D01*
Y285488D01*
X974377D01*
Y293031D01*
X982661D01*
Y285488D01*
X984790D01*
Y301500D01*
D02*
G37*
G36*
X945013D02*
X942885D01*
Y294928D01*
X934601D01*
Y301500D01*
X932472D01*
Y285488D01*
X934601D01*
Y293031D01*
X942885D01*
Y285488D01*
X945013D01*
Y301500D01*
D02*
G37*
G36*
X955472Y301778D02*
X954732D01*
X954593Y301755D01*
X954408D01*
X953968Y301708D01*
X953482Y301639D01*
X952973Y301523D01*
X952418Y301384D01*
X951886Y301199D01*
X951863D01*
X951816Y301176D01*
X951747Y301153D01*
X951654Y301107D01*
X951400Y300968D01*
X951076Y300806D01*
X950729Y300575D01*
X950359Y300297D01*
X950012Y299996D01*
X949688Y299626D01*
X949641Y299580D01*
X949549Y299441D01*
X949410Y299233D01*
X949225Y298932D01*
X949040Y298561D01*
X948831Y298099D01*
X948623Y297590D01*
X948461Y297011D01*
X950382Y296502D01*
Y296525D01*
X950405Y296548D01*
X950428Y296618D01*
X950451Y296710D01*
X950521Y296919D01*
X950613Y297196D01*
X950752Y297520D01*
X950914Y297821D01*
X951076Y298145D01*
X951284Y298423D01*
X951307Y298446D01*
X951377Y298538D01*
X951516Y298654D01*
X951677Y298816D01*
X951886Y299001D01*
X952163Y299186D01*
X952464Y299371D01*
X952811Y299533D01*
X952858Y299556D01*
X952973Y299603D01*
X953182Y299672D01*
X953459Y299765D01*
X953783Y299834D01*
X954153Y299904D01*
X954570Y299950D01*
X955010Y299973D01*
X955264D01*
X955380Y299950D01*
X955519D01*
X955866Y299927D01*
X956259Y299857D01*
X956699Y299788D01*
X957115Y299672D01*
X957532Y299510D01*
X957578Y299487D01*
X957717Y299441D01*
X957902Y299325D01*
X958133Y299209D01*
X958411Y299024D01*
X958712Y298839D01*
X958990Y298608D01*
X959244Y298353D01*
X959267Y298330D01*
X959360Y298237D01*
X959475Y298076D01*
X959614Y297890D01*
X959776Y297659D01*
X959938Y297381D01*
X960100Y297080D01*
X960262Y296757D01*
Y296733D01*
X960285Y296687D01*
X960309Y296618D01*
X960355Y296502D01*
X960401Y296363D01*
X960447Y296201D01*
X960517Y296016D01*
X960563Y295808D01*
X960679Y295322D01*
X960771Y294767D01*
X960841Y294188D01*
X960864Y293540D01*
Y293517D01*
Y293448D01*
Y293332D01*
X960841Y293193D01*
Y293008D01*
X960818Y292777D01*
X960794Y292545D01*
X960771Y292291D01*
X960679Y291712D01*
X960563Y291110D01*
X960378Y290509D01*
X960146Y289930D01*
Y289907D01*
X960100Y289861D01*
X960077Y289792D01*
X960008Y289699D01*
X959846Y289445D01*
X959591Y289121D01*
X959290Y288773D01*
X958920Y288426D01*
X958481Y288102D01*
X957995Y287802D01*
X957971D01*
X957925Y287778D01*
X957856Y287732D01*
X957740Y287686D01*
X957624Y287640D01*
X957462Y287593D01*
X957092Y287454D01*
X956629Y287339D01*
X956120Y287223D01*
X955565Y287131D01*
X954986Y287107D01*
X954755D01*
X954616Y287131D01*
X954477D01*
X954130Y287177D01*
X953714Y287223D01*
X953274Y287316D01*
X952788Y287454D01*
X952302Y287617D01*
X952279D01*
X952233Y287640D01*
X952187Y287663D01*
X952094Y287709D01*
X951840Y287825D01*
X951562Y287964D01*
X951238Y288126D01*
X950891Y288311D01*
X950567Y288519D01*
X950289Y288750D01*
Y291758D01*
X955010D01*
Y293656D01*
X948207D01*
Y287709D01*
X948230Y287686D01*
X948276Y287663D01*
X948369Y287593D01*
X948484Y287501D01*
X948623Y287408D01*
X948785Y287292D01*
X948993Y287154D01*
X949202Y287015D01*
X949688Y286714D01*
X950243Y286390D01*
X950821Y286089D01*
X951446Y285835D01*
X951469D01*
X951516Y285812D01*
X951608Y285788D01*
X951724Y285742D01*
X951886Y285696D01*
X952071Y285627D01*
X952279Y285580D01*
X952487Y285534D01*
X952997Y285418D01*
X953575Y285303D01*
X954200Y285233D01*
X954848Y285210D01*
X955079D01*
X955241Y285233D01*
X955449D01*
X955704Y285256D01*
X955982Y285303D01*
X956282Y285326D01*
X956953Y285464D01*
X957671Y285627D01*
X958411Y285881D01*
X958781Y286020D01*
X959152Y286205D01*
X959175Y286228D01*
X959244Y286251D01*
X959337Y286321D01*
X959475Y286390D01*
X959638Y286506D01*
X959799Y286621D01*
X960239Y286945D01*
X960702Y287362D01*
X961188Y287871D01*
X961651Y288449D01*
X962067Y289121D01*
Y289144D01*
X962113Y289213D01*
X962160Y289306D01*
X962229Y289468D01*
X962299Y289630D01*
X962368Y289861D01*
X962460Y290092D01*
X962553Y290370D01*
X962646Y290671D01*
X962738Y291018D01*
X962808Y291365D01*
X962877Y291735D01*
X962993Y292545D01*
X963039Y293401D01*
Y293633D01*
X963016Y293795D01*
Y294003D01*
X962993Y294258D01*
X962946Y294512D01*
X962923Y294813D01*
X962854Y295137D01*
X962808Y295484D01*
X962623Y296224D01*
X962391Y296988D01*
X962067Y297752D01*
X962044Y297775D01*
X962021Y297844D01*
X961975Y297937D01*
X961882Y298076D01*
X961789Y298261D01*
X961674Y298446D01*
X961350Y298885D01*
X960956Y299394D01*
X960471Y299880D01*
X959915Y300366D01*
X959591Y300575D01*
X959267Y300783D01*
X959244Y300806D01*
X959175Y300829D01*
X959082Y300875D01*
X958943Y300945D01*
X958758Y301014D01*
X958550Y301107D01*
X958318Y301199D01*
X958041Y301292D01*
X957740Y301384D01*
X957416Y301454D01*
X957069Y301546D01*
X956699Y301616D01*
X955889Y301731D01*
X955472Y301778D01*
D02*
G37*
G36*
X968361Y301500D02*
X966232D01*
Y285488D01*
X968361D01*
Y301500D01*
D02*
G37*
G36*
X859060D02*
X856885D01*
X848485Y288912D01*
Y301500D01*
X846449D01*
Y285488D01*
X848647D01*
X857024Y298052D01*
Y285488D01*
X859060D01*
Y301500D01*
D02*
G37*
G36*
X842862D02*
X840734D01*
Y292244D01*
Y292221D01*
Y292152D01*
Y292036D01*
Y291897D01*
X840711Y291735D01*
Y291527D01*
X840687Y291087D01*
X840641Y290578D01*
X840572Y290069D01*
X840479Y289583D01*
X840433Y289375D01*
X840363Y289167D01*
X840340Y289121D01*
X840294Y289005D01*
X840178Y288843D01*
X840039Y288612D01*
X839877Y288380D01*
X839646Y288126D01*
X839368Y287871D01*
X839044Y287663D01*
X838998Y287640D01*
X838882Y287570D01*
X838674Y287501D01*
X838397Y287408D01*
X838073Y287292D01*
X837656Y287223D01*
X837216Y287154D01*
X836730Y287131D01*
X836499D01*
X836360Y287154D01*
X836152D01*
X835944Y287177D01*
X835435Y287269D01*
X834879Y287385D01*
X834347Y287570D01*
X833838Y287825D01*
X833607Y287987D01*
X833398Y288172D01*
X833375Y288195D01*
X833352Y288218D01*
X833306Y288288D01*
X833236Y288380D01*
X833167Y288519D01*
X833074Y288658D01*
X832982Y288866D01*
X832889Y289074D01*
X832797Y289329D01*
X832727Y289630D01*
X832635Y289977D01*
X832565Y290347D01*
X832496Y290763D01*
X832450Y291203D01*
X832403Y291712D01*
Y292244D01*
Y301500D01*
X830275D01*
Y291851D01*
X830298Y291643D01*
Y291411D01*
X830321Y291134D01*
X830344Y290856D01*
X830413Y290231D01*
X830506Y289583D01*
X830645Y288959D01*
X830737Y288658D01*
X830830Y288380D01*
Y288357D01*
X830853Y288311D01*
X830899Y288241D01*
X830946Y288149D01*
X831085Y287894D01*
X831293Y287570D01*
X831570Y287200D01*
X831894Y286830D01*
X832311Y286436D01*
X832820Y286089D01*
X832843D01*
X832889Y286043D01*
X832959Y286020D01*
X833074Y285951D01*
X833213Y285881D01*
X833398Y285812D01*
X833584Y285742D01*
X833815Y285650D01*
X834070Y285557D01*
X834347Y285488D01*
X834648Y285418D01*
X834995Y285349D01*
X835342Y285303D01*
X835712Y285256D01*
X836545Y285210D01*
X836754D01*
X836916Y285233D01*
X837101D01*
X837332Y285256D01*
X837587Y285279D01*
X837841Y285303D01*
X838420Y285395D01*
X839044Y285534D01*
X839646Y285719D01*
X840225Y285974D01*
X840248D01*
X840294Y286020D01*
X840363Y286066D01*
X840456Y286112D01*
X840711Y286297D01*
X841011Y286552D01*
X841358Y286876D01*
X841682Y287246D01*
X842006Y287709D01*
X842261Y288218D01*
Y288241D01*
X842284Y288288D01*
X842307Y288380D01*
X842353Y288496D01*
X842400Y288635D01*
X842446Y288820D01*
X842515Y289028D01*
X842562Y289282D01*
X842608Y289560D01*
X842677Y289861D01*
X842724Y290185D01*
X842770Y290532D01*
X842816Y290925D01*
X842839Y291342D01*
X842862Y291782D01*
Y301500D01*
D02*
G37*
G36*
X826827D02*
X824698D01*
Y287385D01*
X816807D01*
Y285488D01*
X826827D01*
Y301500D01*
D02*
G37*
G36*
X814378D02*
X812249D01*
Y287385D01*
X804359D01*
Y285488D01*
X814378D01*
Y301500D01*
D02*
G37*
%LPD*%
D10*
X284769Y1136716D02*
G03*
X285820Y1137950I-199J1234D01*
G01*
D02*
G03*
X284371Y1136716I-1250J0D01*
G01*
D14*
X271586Y1112950D02*
X277054D01*
X271586Y1134950D02*
X277054D01*
D19*
X1040130Y786130D02*
X1040130Y265430D01*
X384810D02*
X1040130D01*
X384810Y786130D02*
X1040130D01*
X384810Y265430D02*
Y786130D01*
D20*
X925896Y1214574D02*
Y1229809D01*
X918278D01*
X915739Y1227270D01*
Y1222191D01*
X918278Y1219652D01*
X925896D01*
X920817D02*
X915739Y1214574D01*
X910661Y1227270D02*
X908122Y1229809D01*
X903043D01*
X900504Y1227270D01*
Y1224730D01*
X903043Y1222191D01*
X905582D01*
X903043D01*
X900504Y1219652D01*
Y1217113D01*
X903043Y1214574D01*
X908122D01*
X910661Y1217113D01*
X885269Y1229809D02*
X895426D01*
Y1222191D01*
X890347Y1224730D01*
X887808D01*
X885269Y1222191D01*
Y1217113D01*
X887808Y1214574D01*
X892887D01*
X895426Y1217113D01*
X925824Y1159512D02*
Y1174747D01*
X918206D01*
X915667Y1172208D01*
Y1167130D01*
X918206Y1164591D01*
X925824D01*
X920745D02*
X915667Y1159512D01*
X910589Y1172208D02*
X908049Y1174747D01*
X902971D01*
X900432Y1172208D01*
Y1169669D01*
X902971Y1167130D01*
X905510D01*
X902971D01*
X900432Y1164591D01*
Y1162052D01*
X902971Y1159512D01*
X908049D01*
X910589Y1162052D01*
X885197Y1174747D02*
X890275Y1172208D01*
X895353Y1167130D01*
Y1162052D01*
X892814Y1159512D01*
X887736D01*
X885197Y1162052D01*
Y1164591D01*
X887736Y1167130D01*
X895353D01*
X858513Y1438913D02*
Y1454147D01*
X850896D01*
X848357Y1451608D01*
Y1446530D01*
X850896Y1443991D01*
X858513D01*
X853435D02*
X848357Y1438913D01*
X843278Y1451608D02*
X840739Y1454147D01*
X835661D01*
X833122Y1451608D01*
Y1449069D01*
X835661Y1446530D01*
X838200D01*
X835661D01*
X833122Y1443991D01*
Y1441452D01*
X835661Y1438913D01*
X840739D01*
X843278Y1441452D01*
X820426Y1438913D02*
Y1454147D01*
X828043Y1446530D01*
X817887D01*
X858513Y1459232D02*
Y1474467D01*
X850896D01*
X848357Y1471928D01*
Y1466850D01*
X850896Y1464311D01*
X858513D01*
X853435D02*
X848357Y1459232D01*
X843278Y1471928D02*
X840739Y1474467D01*
X835661D01*
X833122Y1471928D01*
Y1469389D01*
X835661Y1466850D01*
X838200D01*
X835661D01*
X833122Y1464311D01*
Y1461772D01*
X835661Y1459232D01*
X840739D01*
X843278Y1461772D01*
X828043Y1471928D02*
X825504Y1474467D01*
X820426D01*
X817887Y1471928D01*
Y1469389D01*
X820426Y1466850D01*
X822965D01*
X820426D01*
X817887Y1464311D01*
Y1461772D01*
X820426Y1459232D01*
X825504D01*
X828043Y1461772D01*
X292094Y1107438D02*
Y1092203D01*
X284476D01*
X281937Y1094742D01*
Y1104898D01*
X284476Y1107438D01*
X292094D01*
X276859Y1092203D02*
X271780D01*
X274320D01*
Y1107438D01*
X276859Y1104898D01*
X254006Y1092203D02*
X264163D01*
X254006Y1102359D01*
Y1104898D01*
X256545Y1107438D01*
X261624D01*
X264163Y1104898D01*
M02*
