G04*
G04 #@! TF.GenerationSoftware,Altium Limited,Altium Designer,24.2.2 (26)*
G04*
G04 Layer_Color=8388736*
%FSLAX44Y44*%
%MOMM*%
G71*
G04*
G04 #@! TF.SameCoordinates,B60BE1A1-B81C-4E43-A62B-C970C25FC29D*
G04*
G04*
G04 #@! TF.FilePolarity,Negative*
G04*
G01*
G75*
G04:AMPARAMS|DCode=55|XSize=1.8032mm|YSize=2.4032mm|CornerRadius=0.5016mm|HoleSize=0mm|Usage=FLASHONLY|Rotation=270.000|XOffset=0mm|YOffset=0mm|HoleType=Round|Shape=RoundedRectangle|*
%AMROUNDEDRECTD55*
21,1,1.8032,1.4000,0,0,270.0*
21,1,0.8000,2.4032,0,0,270.0*
1,1,1.0032,-0.7000,-0.4000*
1,1,1.0032,-0.7000,0.4000*
1,1,1.0032,0.7000,0.4000*
1,1,1.0032,0.7000,-0.4000*
%
%ADD55ROUNDEDRECTD55*%
%ADD56R,2.4032X1.8032*%
G04:AMPARAMS|DCode=57|XSize=1.8532mm|YSize=1.3032mm|CornerRadius=0.2391mm|HoleSize=0mm|Usage=FLASHONLY|Rotation=270.000|XOffset=0mm|YOffset=0mm|HoleType=Round|Shape=RoundedRectangle|*
%AMROUNDEDRECTD57*
21,1,1.8532,0.8250,0,0,270.0*
21,1,1.3750,1.3032,0,0,270.0*
1,1,0.4782,-0.4125,-0.6875*
1,1,0.4782,-0.4125,0.6875*
1,1,0.4782,0.4125,0.6875*
1,1,0.4782,0.4125,-0.6875*
%
%ADD57ROUNDEDRECTD57*%
G04:AMPARAMS|DCode=58|XSize=4.7032mm|YSize=1.7032mm|CornerRadius=0mm|HoleSize=0mm|Usage=FLASHONLY|Rotation=135.000|XOffset=0mm|YOffset=0mm|HoleType=Round|Shape=Rectangle|*
%AMROTATEDRECTD58*
4,1,4,2.2650,-1.0607,1.0607,-2.2650,-2.2650,1.0607,-1.0607,2.2650,2.2650,-1.0607,0.0*
%
%ADD58ROTATEDRECTD58*%

%ADD59O,0.9032X2.7032*%
%ADD60O,0.7032X1.7032*%
%ADD61O,1.7032X0.7032*%
%ADD62R,2.9032X3.5032*%
%ADD63R,2.9032X1.2032*%
%ADD64R,1.2032X0.7532*%
%ADD65R,1.2032X0.7532*%
G04:AMPARAMS|DCode=66|XSize=1.8mm|YSize=2.4mm|CornerRadius=0mm|HoleSize=0mm|Usage=FLASHONLY|Rotation=315.000|XOffset=0mm|YOffset=0mm|HoleType=Round|Shape=Round|*
%AMOVALD66*
21,1,0.6000,1.8000,0.0000,0.0000,45.0*
1,1,1.8000,-0.2121,-0.2121*
1,1,1.8000,0.2121,0.2121*
%
%ADD66OVALD66*%

%ADD67O,2.4000X1.8000*%
%ADD68P,1.9844X4X360.0*%
%ADD69P,1.9844X4X270.0*%
%ADD70R,1.4032X1.4032*%
%ADD71R,1.4032X1.4032*%
G04:AMPARAMS|DCode=72|XSize=0.8032mm|YSize=1.5032mm|CornerRadius=0mm|HoleSize=0mm|Usage=FLASHONLY|Rotation=225.000|XOffset=0mm|YOffset=0mm|HoleType=Round|Shape=Rectangle|*
%AMROTATEDRECTD72*
4,1,4,-0.2475,0.8154,0.8154,-0.2475,0.2475,-0.8154,-0.8154,0.2475,-0.2475,0.8154,0.0*
%
%ADD72ROTATEDRECTD72*%

%ADD73R,1.5032X0.8032*%
%ADD74O,0.9032X2.7032*%
%ADD75O,2.7032X0.9032*%
%ADD76R,6.2032X2.2032*%
%ADD77R,1.2532X2.4032*%
%ADD78R,1.2032X1.2532*%
%ADD79R,1.3032X1.2032*%
%ADD80R,3.2032X1.2032*%
%ADD81R,2.1032X1.7032*%
%ADD82R,1.7032X2.1032*%
%ADD83R,2.8032X2.4032*%
%ADD84R,1.5032X2.0032*%
%ADD85R,2.2032X1.4032*%
%ADD86R,2.2032X2.4032*%
%ADD87R,1.7032X2.2032*%
%ADD88O,1.7032X2.2032*%
%ADD89C,2.6032*%
%ADD90R,2.6032X2.6032*%
%ADD91O,2.0000X1.7000*%
%ADD92O,1.8542X1.9812*%
%ADD93R,1.8542X1.9812*%
%ADD94C,6.7032*%
%ADD95O,2.6032X1.8032*%
%ADD96R,2.6032X1.8032*%
G04:AMPARAMS|DCode=97|XSize=2.7032mm|YSize=2.4032mm|CornerRadius=0mm|HoleSize=0mm|Usage=FLASHONLY|Rotation=180.000|XOffset=0mm|YOffset=0mm|HoleType=Round|Shape=Octagon|*
%AMOCTAGOND97*
4,1,8,-1.3516,0.6008,-1.3516,-0.6008,-0.7508,-1.2016,0.7508,-1.2016,1.3516,-0.6008,1.3516,0.6008,0.7508,1.2016,-0.7508,1.2016,-1.3516,0.6008,0.0*
%
%ADD97OCTAGOND97*%

%ADD98O,2.7032X2.4032*%
%ADD99R,2.7032X2.4032*%
%ADD100R,1.8032X1.8032*%
%ADD101C,1.8032*%
G04:AMPARAMS|DCode=102|XSize=2.0032mm|YSize=3.2032mm|CornerRadius=0.5516mm|HoleSize=0mm|Usage=FLASHONLY|Rotation=270.000|XOffset=0mm|YOffset=0mm|HoleType=Round|Shape=RoundedRectangle|*
%AMROUNDEDRECTD102*
21,1,2.0032,2.1000,0,0,270.0*
21,1,0.9000,3.2032,0,0,270.0*
1,1,1.1032,-1.0500,-0.4500*
1,1,1.1032,-1.0500,0.4500*
1,1,1.1032,1.0500,0.4500*
1,1,1.1032,1.0500,-0.4500*
%
%ADD102ROUNDEDRECTD102*%
%ADD103C,2.2032*%
%ADD104C,1.2032*%
%ADD105C,1.4032*%
G36*
X221123Y374450D02*
X221254Y374423D01*
X221380Y374381D01*
X221499Y374322D01*
X221610Y374248D01*
X221710Y374160D01*
X226710Y369160D01*
X226798Y369060D01*
X226872Y368949D01*
X226931Y368830D01*
X226973Y368703D01*
X226999Y368573D01*
X227008Y368440D01*
Y358440D01*
X226999Y358307D01*
X226973Y358176D01*
X226931Y358050D01*
X226872Y357931D01*
X226798Y357820D01*
X226710Y357720D01*
X221710Y352720D01*
X221610Y352632D01*
X221499Y352558D01*
X221380Y352499D01*
X221254Y352457D01*
X221123Y352430D01*
X220990Y352422D01*
X190490D01*
X190357Y352430D01*
X190226Y352457D01*
X190100Y352499D01*
X189981Y352558D01*
X189870Y352632D01*
X189770Y352720D01*
X184770Y357720D01*
X184682Y357820D01*
X184608Y357931D01*
X184549Y358050D01*
X184506Y358176D01*
X184480Y358307D01*
X184472Y358440D01*
Y368440D01*
X184480Y368573D01*
X184506Y368703D01*
X184549Y368830D01*
X184608Y368949D01*
X184682Y369060D01*
X184770Y369160D01*
X189770Y374160D01*
X189870Y374248D01*
X189981Y374322D01*
X190100Y374381D01*
X190226Y374423D01*
X190357Y374450D01*
X190490Y374458D01*
X220990D01*
X221123Y374450D01*
D02*
G37*
G36*
X257873Y355699D02*
X258004Y355673D01*
X258130Y355631D01*
X258249Y355572D01*
X258360Y355498D01*
X258460Y355410D01*
X263460Y350410D01*
X263548Y350310D01*
X263622Y350199D01*
X263681Y350080D01*
X263724Y349953D01*
X263750Y349823D01*
X263758Y349690D01*
Y319190D01*
X263750Y319057D01*
X263724Y318926D01*
X263681Y318800D01*
X263622Y318681D01*
X263548Y318570D01*
X263460Y318470D01*
X258460Y313470D01*
X258360Y313382D01*
X258249Y313308D01*
X258130Y313249D01*
X258004Y313207D01*
X257873Y313181D01*
X257740Y313172D01*
X247740D01*
X247607Y313181D01*
X247477Y313207D01*
X247350Y313249D01*
X247231Y313308D01*
X247120Y313382D01*
X247020Y313470D01*
X242020Y318470D01*
X241932Y318570D01*
X241858Y318681D01*
X241799Y318800D01*
X241756Y318926D01*
X241730Y319057D01*
X241722Y319190D01*
Y349690D01*
X241730Y349823D01*
X241756Y349953D01*
X241799Y350080D01*
X241858Y350199D01*
X241932Y350310D01*
X242020Y350410D01*
X247020Y355410D01*
X247120Y355498D01*
X247231Y355572D01*
X247350Y355631D01*
X247477Y355673D01*
X247607Y355699D01*
X247740Y355708D01*
X257740D01*
X257873Y355699D01*
D02*
G37*
G36*
X221123Y314450D02*
X221254Y314424D01*
X221380Y314381D01*
X221499Y314322D01*
X221610Y314248D01*
X221710Y314160D01*
X226710Y309160D01*
X226798Y309060D01*
X226872Y308949D01*
X226931Y308830D01*
X226973Y308703D01*
X226999Y308573D01*
X227008Y308440D01*
Y298440D01*
X226999Y298307D01*
X226973Y298176D01*
X226931Y298050D01*
X226872Y297931D01*
X226798Y297820D01*
X226710Y297720D01*
X221710Y292720D01*
X221610Y292632D01*
X221499Y292558D01*
X221380Y292499D01*
X221254Y292456D01*
X221123Y292430D01*
X220990Y292422D01*
X190490D01*
X190357Y292430D01*
X190226Y292456D01*
X190100Y292499D01*
X189981Y292558D01*
X189870Y292632D01*
X189770Y292720D01*
X184770Y297720D01*
X184682Y297820D01*
X184608Y297931D01*
X184549Y298050D01*
X184506Y298176D01*
X184480Y298307D01*
X184472Y298440D01*
Y308440D01*
X184480Y308573D01*
X184506Y308703D01*
X184549Y308830D01*
X184608Y308949D01*
X184682Y309060D01*
X184770Y309160D01*
X189770Y314160D01*
X189870Y314248D01*
X189981Y314322D01*
X190100Y314381D01*
X190226Y314424D01*
X190357Y314450D01*
X190490Y314458D01*
X220990D01*
X221123Y314450D01*
D02*
G37*
D55*
X771750Y636270D02*
D03*
X934310Y640080D02*
D03*
X606650Y638810D02*
D03*
D56*
X815750Y636270D02*
D03*
X978310Y640080D02*
D03*
X650650Y638810D02*
D03*
D57*
X143490Y1296670D02*
D03*
X110490D02*
D03*
D58*
X521542Y870378D02*
D03*
X461438Y930482D02*
D03*
D59*
X801370Y805550D02*
D03*
X788670D02*
D03*
X775970D02*
D03*
X763270D02*
D03*
X750570D02*
D03*
X737870D02*
D03*
X725170D02*
D03*
X712470D02*
D03*
X801370Y756550D02*
D03*
X788670D02*
D03*
X775970D02*
D03*
X763270D02*
D03*
X750570D02*
D03*
X737870D02*
D03*
X725170D02*
D03*
X712470D02*
D03*
D60*
X626170Y1036148D02*
D03*
X618170D02*
D03*
X610170D02*
D03*
X602170D02*
D03*
X594170D02*
D03*
X586170D02*
D03*
X578170D02*
D03*
X570170D02*
D03*
X626170Y950132D02*
D03*
X618170D02*
D03*
X610170D02*
D03*
X602170D02*
D03*
X594170D02*
D03*
X586170D02*
D03*
X578170D02*
D03*
X570170D02*
D03*
D61*
X641178Y965140D02*
D03*
Y973140D02*
D03*
Y981140D02*
D03*
Y989140D02*
D03*
Y997140D02*
D03*
Y1005140D02*
D03*
Y1013140D02*
D03*
Y1021140D02*
D03*
X555162D02*
D03*
Y1013140D02*
D03*
Y1005140D02*
D03*
Y997140D02*
D03*
Y989140D02*
D03*
Y981140D02*
D03*
Y973140D02*
D03*
Y965140D02*
D03*
D62*
X317500Y904240D02*
D03*
D63*
X258500Y881240D02*
D03*
Y904240D02*
D03*
Y927240D02*
D03*
D64*
X294940Y542900D02*
D03*
X268940Y533400D02*
D03*
Y523900D02*
D03*
X294940D02*
D03*
Y533400D02*
D03*
X162860Y542900D02*
D03*
X136860Y533400D02*
D03*
Y523900D02*
D03*
X162860D02*
D03*
Y533400D02*
D03*
D65*
X268940Y542900D02*
D03*
X136860Y542900D02*
D03*
D66*
X509889Y1106789D02*
D03*
X460391Y1057291D02*
D03*
D67*
X953060Y1035050D02*
D03*
X1023060D02*
D03*
D68*
X485675Y1039395D02*
D03*
X500524Y1054244D02*
D03*
X531395Y1284505D02*
D03*
X546244Y1299354D02*
D03*
X511826Y1065546D02*
D03*
X526675Y1080395D02*
D03*
D69*
X544095Y1270735D02*
D03*
X558944Y1255886D02*
D03*
X495417Y949317D02*
D03*
X510266Y934468D02*
D03*
X537566Y907168D02*
D03*
X522717Y922017D02*
D03*
D70*
X410260Y1400810D02*
D03*
X431260D02*
D03*
X410260Y1380490D02*
D03*
X431260D02*
D03*
X410210Y1360170D02*
D03*
X431210D02*
D03*
X405080Y1325880D02*
D03*
X384080D02*
D03*
X434390Y1287780D02*
D03*
X455390D02*
D03*
X1017220Y1065530D02*
D03*
X996220D02*
D03*
X124510Y309880D02*
D03*
X145510D02*
D03*
X325230Y664210D02*
D03*
X304230D02*
D03*
X200610D02*
D03*
X179610D02*
D03*
X453890Y1268730D02*
D03*
X432890D02*
D03*
X159680Y769620D02*
D03*
X180680D02*
D03*
X207940D02*
D03*
X228940D02*
D03*
X360086Y1179830D02*
D03*
X381086D02*
D03*
X360086Y1201420D02*
D03*
X381086D02*
D03*
X974684Y1065530D02*
D03*
X953684D02*
D03*
X516214Y1003300D02*
D03*
X495214D02*
D03*
X671236Y981710D02*
D03*
X692236D02*
D03*
X516214Y982980D02*
D03*
X495214D02*
D03*
X304124Y560070D02*
D03*
X283124D02*
D03*
X170774Y560070D02*
D03*
X149774D02*
D03*
D71*
X308610Y1247090D02*
D03*
Y1226090D02*
D03*
X330200Y1245870D02*
D03*
Y1224870D02*
D03*
X287020Y1247140D02*
D03*
Y1226140D02*
D03*
X403860Y1308100D02*
D03*
Y1287100D02*
D03*
X810260Y688340D02*
D03*
Y667340D02*
D03*
X645160Y690880D02*
D03*
Y669880D02*
D03*
X975360Y690880D02*
D03*
Y669880D02*
D03*
X209550Y860930D02*
D03*
Y839930D02*
D03*
X180340Y787450D02*
D03*
Y808450D02*
D03*
X208280Y788720D02*
D03*
Y809720D02*
D03*
X307340Y624890D02*
D03*
Y645890D02*
D03*
X326390Y584250D02*
D03*
Y605250D02*
D03*
X179960Y626190D02*
D03*
Y647190D02*
D03*
X199390Y584200D02*
D03*
Y605200D02*
D03*
X782320Y667680D02*
D03*
Y688680D02*
D03*
X617220Y670220D02*
D03*
Y691220D02*
D03*
X946150Y670220D02*
D03*
Y691220D02*
D03*
X209550Y901960D02*
D03*
Y880960D02*
D03*
X125730Y357210D02*
D03*
Y336210D02*
D03*
X389890Y1081364D02*
D03*
Y1060364D02*
D03*
X368300Y1081364D02*
D03*
Y1060364D02*
D03*
X196850Y1099226D02*
D03*
Y1120226D02*
D03*
X326390Y625516D02*
D03*
Y646516D02*
D03*
X199010Y625436D02*
D03*
Y646436D02*
D03*
D72*
X505655Y1323145D02*
D03*
X527222Y1315013D02*
D03*
X513787Y1301578D02*
D03*
D73*
X444840Y1314450D02*
D03*
X423840Y1304950D02*
D03*
Y1323950D02*
D03*
D74*
X193080Y1301490D02*
D03*
X204080D02*
D03*
X215080D02*
D03*
X226080D02*
D03*
X237080D02*
D03*
X248080D02*
D03*
X259080D02*
D03*
X270080D02*
D03*
X281080D02*
D03*
X292080D02*
D03*
X303080D02*
D03*
X314080D02*
D03*
X325080D02*
D03*
Y1459490D02*
D03*
X314080D02*
D03*
X303080D02*
D03*
X292080D02*
D03*
X281080D02*
D03*
X270080D02*
D03*
X259080D02*
D03*
X248080D02*
D03*
X237080D02*
D03*
X226080D02*
D03*
X215080D02*
D03*
X204080D02*
D03*
X193080D02*
D03*
D75*
X347580Y1336490D02*
D03*
Y1358490D02*
D03*
Y1369490D02*
D03*
Y1380490D02*
D03*
Y1391490D02*
D03*
Y1402490D02*
D03*
Y1413490D02*
D03*
Y1424490D02*
D03*
X170580D02*
D03*
Y1413490D02*
D03*
Y1402490D02*
D03*
Y1391490D02*
D03*
Y1380490D02*
D03*
Y1369490D02*
D03*
Y1358490D02*
D03*
Y1347490D02*
D03*
Y1336490D02*
D03*
D76*
X257810Y655570D02*
D03*
Y591570D02*
D03*
X133350Y653030D02*
D03*
Y589030D02*
D03*
D77*
X178290Y1501140D02*
D03*
X207790D02*
D03*
D78*
X193040Y1486140D02*
D03*
D79*
X335280Y1150620D02*
D03*
Y1125220D02*
D03*
Y1099820D02*
D03*
X217280Y1150620D02*
D03*
Y1125220D02*
D03*
Y1099820D02*
D03*
D80*
X276280Y1178220D02*
D03*
Y1072220D02*
D03*
D81*
X260350Y806710D02*
D03*
Y775710D02*
D03*
X170180Y434600D02*
D03*
Y403600D02*
D03*
X128270Y435870D02*
D03*
Y404870D02*
D03*
D82*
X126740Y382270D02*
D03*
X157740D02*
D03*
D83*
X105810Y1174750D02*
D03*
X155810D02*
D03*
D84*
X142610Y1272540D02*
D03*
X113610D02*
D03*
X141340Y1248410D02*
D03*
X112340D02*
D03*
X142770Y1226820D02*
D03*
X113770D02*
D03*
X290090Y951230D02*
D03*
X261090D02*
D03*
X258550Y853440D02*
D03*
X287550D02*
D03*
X258550Y745490D02*
D03*
X287550D02*
D03*
X260880Y494030D02*
D03*
X231880D02*
D03*
X142770Y745490D02*
D03*
X113770D02*
D03*
X128800Y492760D02*
D03*
X99800D02*
D03*
D85*
X110460Y1202690D02*
D03*
X138460D02*
D03*
X384840Y1221740D02*
D03*
X356840D02*
D03*
X257780Y974090D02*
D03*
X285780D02*
D03*
X287050Y829310D02*
D03*
X259050D02*
D03*
X285780Y718820D02*
D03*
X257780D02*
D03*
X115540D02*
D03*
X143540D02*
D03*
D86*
X263920Y463550D02*
D03*
X233920D02*
D03*
X255510Y684530D02*
D03*
X285510D02*
D03*
X128030Y463550D02*
D03*
X98030D02*
D03*
X143270Y688340D02*
D03*
X113270D02*
D03*
D87*
X855980Y1496568D02*
D03*
D88*
X830580D02*
D03*
X805180D02*
D03*
X779780D02*
D03*
D89*
X581660Y329560D02*
D03*
X734060D02*
D03*
X897890D02*
D03*
X948690D02*
D03*
D90*
X530860D02*
D03*
X683260D02*
D03*
X847090D02*
D03*
D91*
X1003300Y889000D02*
D03*
X977900D02*
D03*
X1003300Y914400D02*
D03*
X977900D02*
D03*
X1003300Y939800D02*
D03*
X977900D02*
D03*
D92*
X576580Y1501140D02*
D03*
X601980D02*
D03*
D93*
X627380D02*
D03*
D94*
X311150Y313690D02*
D03*
X1008380Y1489710D02*
D03*
X110490Y1488440D02*
D03*
D95*
X977900Y1407590D02*
D03*
Y1215390D02*
D03*
Y1189990D02*
D03*
Y1164590D02*
D03*
D96*
Y1432990D02*
D03*
Y1240790D02*
D03*
D97*
X733400Y574660D02*
D03*
X850900D02*
D03*
X568630Y574260D02*
D03*
X686130D02*
D03*
X897890Y574660D02*
D03*
X1015390D02*
D03*
D98*
X733400Y454660D02*
D03*
X850900D02*
D03*
X568630Y454260D02*
D03*
X686130D02*
D03*
X897890Y454660D02*
D03*
X1015390D02*
D03*
D99*
X792150Y595160D02*
D03*
X627380Y594760D02*
D03*
X956640Y595160D02*
D03*
D100*
X386080Y1408430D02*
D03*
D101*
Y1383030D02*
D03*
Y1357630D02*
D03*
D102*
X493014Y612902D02*
D03*
X492760Y388620D02*
D03*
D103*
X627380Y1422400D02*
D03*
Y1397000D02*
D03*
X601980Y1422400D02*
D03*
X576580D02*
D03*
X551180D02*
D03*
X525780D02*
D03*
X500380D02*
D03*
X601980Y1397000D02*
D03*
X576580D02*
D03*
X551180D02*
D03*
X525780D02*
D03*
X500380D02*
D03*
D104*
X615950Y988060D02*
D03*
Y1004570D02*
D03*
D105*
X287020Y1269548D02*
D03*
X308610D02*
D03*
X215900Y689610D02*
D03*
Y704215D02*
D03*
Y718820D02*
D03*
X779780Y995680D02*
D03*
X161290Y1316990D02*
D03*
X453360Y1252456D02*
D03*
X551180Y1051560D02*
D03*
X598170Y878675D02*
D03*
Y898829D02*
D03*
Y858520D02*
D03*
X307340Y1071880D02*
D03*
X360472Y1152169D02*
D03*
X330200Y1269548D02*
D03*
X571500Y1243330D02*
D03*
X692784Y1020180D02*
D03*
X671676Y1021145D02*
D03*
X645160Y1062990D02*
D03*
X626110Y1074420D02*
D03*
X936589Y933450D02*
D03*
Y957007D02*
D03*
M02*
