G04*
G04 #@! TF.GenerationSoftware,Altium Limited,Altium Designer,24.2.2 (26)*
G04*
G04 Layer_Color=128*
%FSLAX44Y44*%
%MOMM*%
G71*
G04*
G04 #@! TF.SameCoordinates,0F8B1A73-7D9A-4E60-A1EB-41BE9D7EE600*
G04*
G04*
G04 #@! TF.FilePolarity,Positive*
G04*
G01*
G75*
%ADD15C,0.1270*%
D15*
X573660Y329560D02*
X589660D01*
X581660Y321560D02*
Y337560D01*
X522860Y329560D02*
X538860D01*
X530860Y321560D02*
Y337560D01*
X998300Y889000D02*
X1008300D01*
X1003300Y884000D02*
Y894000D01*
X972900Y889000D02*
X982900D01*
X977900Y884000D02*
Y894000D01*
X998300Y914400D02*
X1008300D01*
X1003300Y909400D02*
Y919400D01*
X972900Y914400D02*
X982900D01*
X977900Y909400D02*
Y919400D01*
X998300Y939800D02*
X1008300D01*
X1003300Y934800D02*
Y944800D01*
X972900Y939800D02*
X982900D01*
X977900Y934800D02*
Y944800D01*
X726060Y329560D02*
X742060D01*
X734060Y321560D02*
Y337560D01*
X675260Y329560D02*
X691260D01*
X683260Y321560D02*
Y337560D01*
X839090Y329560D02*
X855090D01*
X847090Y321560D02*
Y337560D01*
X889890Y329560D02*
X905890D01*
X897890Y321560D02*
Y337560D01*
X940690Y329560D02*
X956690D01*
X948690Y321560D02*
Y337560D01*
X572580Y1501140D02*
X580580D01*
X576580Y1497140D02*
Y1505140D01*
X597980Y1501140D02*
X605980D01*
X601980Y1497140D02*
Y1505140D01*
X623380Y1501140D02*
X631380D01*
X627380Y1497140D02*
Y1505140D01*
X850980Y1496568D02*
X860980D01*
X855980Y1491568D02*
Y1501568D01*
X825580Y1496568D02*
X835580D01*
X830580Y1491568D02*
Y1501568D01*
X800180Y1496568D02*
X810180D01*
X805180Y1491568D02*
Y1501568D01*
X774780Y1496568D02*
X784780D01*
X779780Y1491568D02*
Y1501568D01*
X295150Y313690D02*
X327150D01*
X311150Y297690D02*
Y329690D01*
X992380Y1489710D02*
X1024380D01*
X1008380Y1473710D02*
Y1505710D01*
X94490Y1488440D02*
X126490D01*
X110490Y1472440D02*
Y1504440D01*
X972900Y1407590D02*
X982900D01*
X977900Y1402590D02*
Y1412590D01*
X972900Y1432990D02*
X982900D01*
X977900Y1427990D02*
Y1437990D01*
X972900Y1240790D02*
X982900D01*
X977900Y1235790D02*
Y1245790D01*
X972900Y1215390D02*
X982900D01*
X977900Y1210390D02*
Y1220390D01*
X972900Y1189990D02*
X982900D01*
X977900Y1184990D02*
Y1194990D01*
X972900Y1164590D02*
X982900D01*
X977900Y1159590D02*
Y1169590D01*
X726900Y574660D02*
X739900D01*
X733400Y568160D02*
Y581160D01*
X726900Y454660D02*
X739900D01*
X733400Y448160D02*
Y461160D01*
X844400Y574660D02*
X857400D01*
X850900Y568160D02*
Y581160D01*
X844400Y454660D02*
X857400D01*
X850900Y448160D02*
Y461160D01*
X785650Y595160D02*
X798650D01*
X792150Y588660D02*
Y601660D01*
X562130Y574260D02*
X575130D01*
X568630Y567760D02*
Y580760D01*
X562130Y454260D02*
X575130D01*
X568630Y447760D02*
Y460760D01*
X679630Y574260D02*
X692630D01*
X686130Y567760D02*
Y580760D01*
X679630Y454260D02*
X692630D01*
X686130Y447760D02*
Y460760D01*
X620880Y594760D02*
X633880D01*
X627380Y588260D02*
Y601260D01*
X891390Y574660D02*
X904390D01*
X897890Y568160D02*
Y581160D01*
X891390Y454660D02*
X904390D01*
X897890Y448160D02*
Y461160D01*
X1008890Y574660D02*
X1021890D01*
X1015390Y568160D02*
Y581160D01*
X1008890Y454660D02*
X1021890D01*
X1015390Y448160D02*
Y461160D01*
X950140Y595160D02*
X963140D01*
X956640Y588660D02*
Y601660D01*
X380580Y1408430D02*
X391580D01*
X386080Y1402930D02*
Y1413930D01*
X380580Y1383030D02*
X391580D01*
X386080Y1377530D02*
Y1388530D01*
X380580Y1357630D02*
X391580D01*
X386080Y1352130D02*
Y1363130D01*
X247740Y334440D02*
X257740D01*
X252740Y329440D02*
Y339440D01*
X200740Y303440D02*
X210740D01*
X205740Y298440D02*
Y308440D01*
X200740Y363440D02*
X210740D01*
X205740Y358440D02*
Y368440D01*
X488014Y612902D02*
X498014D01*
X493014Y607902D02*
Y617902D01*
X487760Y388620D02*
X497760D01*
X492760Y383620D02*
Y393620D01*
X622380Y1422400D02*
X632380D01*
X627380Y1417400D02*
Y1427400D01*
X622380Y1397000D02*
X632380D01*
X627380Y1392000D02*
Y1402000D01*
X596980Y1422400D02*
X606980D01*
X601980Y1417400D02*
Y1427400D01*
X571580Y1422400D02*
X581580D01*
X576580Y1417400D02*
Y1427400D01*
X546180Y1422400D02*
X556180D01*
X551180Y1417400D02*
Y1427400D01*
X520780Y1422400D02*
X530780D01*
X525780Y1417400D02*
Y1427400D01*
X495380Y1422400D02*
X505380D01*
X500380Y1417400D02*
Y1427400D01*
X596980Y1397000D02*
X606980D01*
X601980Y1392000D02*
Y1402000D01*
X571580Y1397000D02*
X581580D01*
X576580Y1392000D02*
Y1402000D01*
X546180Y1397000D02*
X556180D01*
X551180Y1392000D02*
Y1402000D01*
X520780Y1397000D02*
X530780D01*
X525780Y1392000D02*
Y1402000D01*
X495380Y1397000D02*
X505380D01*
X500380Y1392000D02*
Y1402000D01*
X612950Y988060D02*
X618950D01*
X615950Y985060D02*
Y991060D01*
X612950Y1004570D02*
X618950D01*
X615950Y1001570D02*
Y1007570D01*
X300800Y849630D02*
X308800D01*
X304800Y845630D02*
Y853630D01*
X284020Y1269548D02*
X290020D01*
X287020Y1266548D02*
Y1272549D01*
X305610Y1269548D02*
X311610D01*
X308610Y1266548D02*
Y1272549D01*
X196000Y1150000D02*
X204000D01*
X200000Y1146000D02*
Y1154000D01*
X546000Y850000D02*
X554000D01*
X550000Y846000D02*
Y854000D01*
X149670Y1499870D02*
X157670D01*
X153670Y1495870D02*
Y1503870D01*
X96330Y1445260D02*
X104330D01*
X100330Y1441260D02*
Y1449260D01*
X149670Y1450340D02*
X157670D01*
X153670Y1446340D02*
Y1454340D01*
X350330Y299720D02*
X358330D01*
X354330Y295720D02*
Y303720D01*
X295720Y356870D02*
X303720D01*
X299720Y352870D02*
Y360870D01*
X350330Y350520D02*
X358330D01*
X354330Y346520D02*
Y354520D01*
X996000Y1200000D02*
X1004000D01*
X1000000Y1196000D02*
Y1204000D01*
X996000Y1150000D02*
X1004000D01*
X1000000Y1146000D02*
Y1154000D01*
X996000Y1100000D02*
X1004000D01*
X1000000Y1096000D02*
Y1104000D01*
X996000Y850000D02*
X1004000D01*
X1000000Y846000D02*
Y854000D01*
X946000Y1500000D02*
X954000D01*
X950000Y1496000D02*
Y1504000D01*
X946000Y1450000D02*
X954000D01*
X950000Y1446000D02*
Y1454000D01*
X946000Y1400000D02*
X954000D01*
X950000Y1396000D02*
Y1404000D01*
X946000Y1350000D02*
X954000D01*
X950000Y1346000D02*
Y1354000D01*
X946000Y1300000D02*
X954000D01*
X950000Y1296000D02*
Y1304000D01*
X946000Y1250000D02*
X954000D01*
X950000Y1246000D02*
Y1254000D01*
X946000Y1100000D02*
X954000D01*
X950000Y1096000D02*
Y1104000D01*
X946000Y900000D02*
X954000D01*
X950000Y896000D02*
Y904000D01*
X946000Y850000D02*
X954000D01*
X950000Y846000D02*
Y854000D01*
X896000Y1500000D02*
X904000D01*
X900000Y1496000D02*
Y1504000D01*
X896000Y1450000D02*
X904000D01*
X900000Y1446000D02*
Y1454000D01*
X896000Y1400000D02*
X904000D01*
X900000Y1396000D02*
Y1404000D01*
X896000Y1350000D02*
X904000D01*
X900000Y1346000D02*
Y1354000D01*
X896000Y1300000D02*
X904000D01*
X900000Y1296000D02*
Y1304000D01*
X896000Y1250000D02*
X904000D01*
X900000Y1246000D02*
Y1254000D01*
X896000Y1200000D02*
X904000D01*
X900000Y1196000D02*
Y1204000D01*
X896000Y1150000D02*
X904000D01*
X900000Y1146000D02*
Y1154000D01*
X896000Y1100000D02*
X904000D01*
X900000Y1096000D02*
Y1104000D01*
X896000Y1050000D02*
X904000D01*
X900000Y1046000D02*
Y1054000D01*
X896000Y1000000D02*
X904000D01*
X900000Y996000D02*
Y1004000D01*
X896000Y900000D02*
X904000D01*
X900000Y896000D02*
Y904000D01*
X846000Y1200000D02*
X854000D01*
X850000Y1196000D02*
Y1204000D01*
X846000Y1150000D02*
X854000D01*
X850000Y1146000D02*
Y1154000D01*
X846000Y1100000D02*
X854000D01*
X850000Y1096000D02*
Y1104000D01*
X846000Y1050000D02*
X854000D01*
X850000Y1046000D02*
Y1054000D01*
X846000Y1000000D02*
X854000D01*
X850000Y996000D02*
Y1004000D01*
X846000Y900000D02*
X854000D01*
X850000Y896000D02*
Y904000D01*
X796000Y1400000D02*
X804000D01*
X800000Y1396000D02*
Y1404000D01*
X796000Y1350000D02*
X804000D01*
X800000Y1346000D02*
Y1354000D01*
X796000Y1300000D02*
X804000D01*
X800000Y1296000D02*
Y1304000D01*
X796000Y1200000D02*
X804000D01*
X800000Y1196000D02*
Y1204000D01*
X796000Y1150000D02*
X804000D01*
X800000Y1146000D02*
Y1154000D01*
X796000Y1100000D02*
X804000D01*
X800000Y1096000D02*
Y1104000D01*
X796000Y1050000D02*
X804000D01*
X800000Y1046000D02*
Y1054000D01*
X796000Y1000000D02*
X804000D01*
X800000Y996000D02*
Y1004000D01*
X796000Y900000D02*
X804000D01*
X800000Y896000D02*
Y904000D01*
X746000Y1500000D02*
X754000D01*
X750000Y1496000D02*
Y1504000D01*
X746000Y1450000D02*
X754000D01*
X750000Y1446000D02*
Y1454000D01*
X746000Y1400000D02*
X754000D01*
X750000Y1396000D02*
Y1404000D01*
X746000Y1350000D02*
X754000D01*
X750000Y1346000D02*
Y1354000D01*
X746000Y1300000D02*
X754000D01*
X750000Y1296000D02*
Y1304000D01*
X746000Y1200000D02*
X754000D01*
X750000Y1196000D02*
Y1204000D01*
X746000Y1150000D02*
X754000D01*
X750000Y1146000D02*
Y1154000D01*
X746000Y1100000D02*
X754000D01*
X750000Y1096000D02*
Y1104000D01*
X746000Y1050000D02*
X754000D01*
X750000Y1046000D02*
Y1054000D01*
X746000Y900000D02*
X754000D01*
X750000Y896000D02*
Y904000D01*
X696000Y1500000D02*
X704000D01*
X700000Y1496000D02*
Y1504000D01*
X696000Y1450000D02*
X704000D01*
X700000Y1446000D02*
Y1454000D01*
X696000Y1400000D02*
X704000D01*
X700000Y1396000D02*
Y1404000D01*
X696000Y1350000D02*
X704000D01*
X700000Y1346000D02*
Y1354000D01*
X696000Y1300000D02*
X704000D01*
X700000Y1296000D02*
Y1304000D01*
X696000Y900000D02*
X704000D01*
X700000Y896000D02*
Y904000D01*
X646000Y1500000D02*
X654000D01*
X650000Y1496000D02*
Y1504000D01*
X646000Y1350000D02*
X654000D01*
X650000Y1346000D02*
Y1354000D01*
X646000Y950000D02*
X654000D01*
X650000Y946000D02*
Y954000D01*
X596000Y1250000D02*
X604000D01*
X600000Y1246000D02*
Y1254000D01*
X546000Y1500000D02*
X554000D01*
X550000Y1496000D02*
Y1504000D01*
X546000Y1200000D02*
X554000D01*
X550000Y1196000D02*
Y1204000D01*
X546000Y1150000D02*
X554000D01*
X550000Y1146000D02*
Y1154000D01*
X546000Y1100000D02*
X554000D01*
X550000Y1096000D02*
Y1104000D01*
X496000Y1500000D02*
X504000D01*
X500000Y1496000D02*
Y1504000D01*
X496000Y1250000D02*
X504000D01*
X500000Y1246000D02*
Y1254000D01*
X496000Y1200000D02*
X504000D01*
X500000Y1196000D02*
Y1204000D01*
X496000Y1150000D02*
X504000D01*
X500000Y1146000D02*
Y1154000D01*
X496000Y900000D02*
X504000D01*
X500000Y896000D02*
Y904000D01*
X496000Y850000D02*
X504000D01*
X500000Y846000D02*
Y854000D01*
X446000Y1500000D02*
X454000D01*
X450000Y1496000D02*
Y1504000D01*
X446000Y1200000D02*
X454000D01*
X450000Y1196000D02*
Y1204000D01*
X446000Y1150000D02*
X454000D01*
X450000Y1146000D02*
Y1154000D01*
X446000Y900000D02*
X454000D01*
X450000Y896000D02*
Y904000D01*
X446000Y850000D02*
X454000D01*
X450000Y846000D02*
Y854000D01*
X396000Y1500000D02*
X404000D01*
X400000Y1496000D02*
Y1504000D01*
X396000Y1450000D02*
X404000D01*
X400000Y1446000D02*
Y1454000D01*
X396000Y1200000D02*
X404000D01*
X400000Y1196000D02*
Y1204000D01*
X396000Y1150000D02*
X404000D01*
X400000Y1146000D02*
Y1154000D01*
X396000Y1100000D02*
X404000D01*
X400000Y1096000D02*
Y1104000D01*
X396000Y950000D02*
X404000D01*
X400000Y946000D02*
Y954000D01*
X396000Y900000D02*
X404000D01*
X400000Y896000D02*
Y904000D01*
X396000Y850000D02*
X404000D01*
X400000Y846000D02*
Y854000D01*
X346000Y1500000D02*
X354000D01*
X350000Y1496000D02*
Y1504000D01*
X346000Y1450000D02*
X354000D01*
X350000Y1446000D02*
Y1454000D01*
X346000Y1050000D02*
X354000D01*
X350000Y1046000D02*
Y1054000D01*
X346000Y950000D02*
X354000D01*
X350000Y946000D02*
Y954000D01*
X346000Y900000D02*
X354000D01*
X350000Y896000D02*
Y904000D01*
X346000Y850000D02*
X354000D01*
X350000Y846000D02*
Y854000D01*
X346000Y800000D02*
X354000D01*
X350000Y796000D02*
Y804000D01*
X296000Y1500000D02*
X304000D01*
X300000Y1496000D02*
Y1504000D01*
X296000Y1400000D02*
X304000D01*
X300000Y1396000D02*
Y1404000D01*
X296000Y1350000D02*
X304000D01*
X300000Y1346000D02*
Y1354000D01*
X296000Y1050000D02*
X304000D01*
X300000Y1046000D02*
Y1054000D01*
X296000Y800000D02*
X304000D01*
X300000Y796000D02*
Y804000D01*
X296000Y600000D02*
X304000D01*
X300000Y596000D02*
Y604000D01*
X296000Y500000D02*
X304000D01*
X300000Y496000D02*
Y504000D01*
X296000Y450000D02*
X304000D01*
X300000Y446000D02*
Y454000D01*
X246000Y1500000D02*
X254000D01*
X250000Y1496000D02*
Y1504000D01*
X246000Y1400000D02*
X254000D01*
X250000Y1396000D02*
Y1404000D01*
X246000Y1350000D02*
X254000D01*
X250000Y1346000D02*
Y1354000D01*
X246000Y1050000D02*
X254000D01*
X250000Y1046000D02*
Y1054000D01*
X246000Y1000000D02*
X254000D01*
X250000Y996000D02*
Y1004000D01*
X246000Y300000D02*
X254000D01*
X250000Y296000D02*
Y304000D01*
X196000Y1400000D02*
X204000D01*
X200000Y1396000D02*
Y1404000D01*
X196000Y1350000D02*
X204000D01*
X200000Y1346000D02*
Y1354000D01*
X196000Y1250000D02*
X204000D01*
X200000Y1246000D02*
Y1254000D01*
X196000Y1200000D02*
X204000D01*
X200000Y1196000D02*
Y1204000D01*
X196000Y1050000D02*
X204000D01*
X200000Y1046000D02*
Y1054000D01*
X196000Y550000D02*
X204000D01*
X200000Y546000D02*
Y554000D01*
X196000Y500000D02*
X204000D01*
X200000Y496000D02*
Y504000D01*
X96000Y1400000D02*
X104000D01*
X100000Y1396000D02*
Y1404000D01*
X96000Y1350000D02*
X104000D01*
X100000Y1346000D02*
Y1354000D01*
X96000Y1250000D02*
X104000D01*
X100000Y1246000D02*
Y1254000D01*
X96000Y1200000D02*
X104000D01*
X100000Y1196000D02*
Y1204000D01*
X96000Y1150000D02*
X104000D01*
X100000Y1146000D02*
Y1154000D01*
X96000Y1100000D02*
X104000D01*
X100000Y1096000D02*
Y1104000D01*
X96000Y1050000D02*
X104000D01*
X100000Y1046000D02*
Y1054000D01*
X96000Y1000000D02*
X104000D01*
X100000Y996000D02*
Y1004000D01*
X96000Y950000D02*
X104000D01*
X100000Y946000D02*
Y954000D01*
X96000Y900000D02*
X104000D01*
X100000Y896000D02*
Y904000D01*
X96000Y850000D02*
X104000D01*
X100000Y846000D02*
Y854000D01*
X96000Y800000D02*
X104000D01*
X100000Y796000D02*
Y804000D01*
X96000Y550000D02*
X104000D01*
X100000Y546000D02*
Y554000D01*
X96000Y400000D02*
X104000D01*
X100000Y396000D02*
Y404000D01*
X96000Y350000D02*
X104000D01*
X100000Y346000D02*
Y354000D01*
X96000Y300000D02*
X104000D01*
X100000Y296000D02*
Y304000D01*
X212900Y689610D02*
X218900D01*
X215900Y686610D02*
Y692610D01*
X212900Y704215D02*
X218900D01*
X215900Y701215D02*
Y707215D01*
X212900Y718820D02*
X218900D01*
X215900Y715820D02*
Y721820D01*
X776780Y995680D02*
X782780D01*
X779780Y992680D02*
Y998680D01*
X158290Y1316990D02*
X164290D01*
X161290Y1313990D02*
Y1319990D01*
X450360Y1252456D02*
X456360D01*
X453360Y1249455D02*
Y1255455D01*
X548180Y1051560D02*
X554180D01*
X551180Y1048560D02*
Y1054560D01*
X595170Y878675D02*
X601170D01*
X598170Y875675D02*
Y881675D01*
X595170Y898829D02*
X601170D01*
X598170Y895829D02*
Y901829D01*
X595170Y858520D02*
X601170D01*
X598170Y855520D02*
Y861520D01*
X304340Y1071880D02*
X310340D01*
X307340Y1068880D02*
Y1074880D01*
X357472Y1152169D02*
X363472D01*
X360472Y1149169D02*
Y1155169D01*
X327200Y1269548D02*
X333200D01*
X330200Y1266548D02*
Y1272549D01*
X568500Y1243330D02*
X574500D01*
X571500Y1240330D02*
Y1246330D01*
X689784Y1020180D02*
X695784D01*
X692784Y1017180D02*
Y1023180D01*
X668676Y1021145D02*
X674676D01*
X671676Y1018145D02*
Y1024145D01*
X642160Y1062990D02*
X648160D01*
X645160Y1059990D02*
Y1065990D01*
X623110Y1074420D02*
X629110D01*
X626110Y1071420D02*
Y1077420D01*
X933589Y933450D02*
X939589D01*
X936589Y930450D02*
Y936450D01*
X933589Y957007D02*
X939589D01*
X936589Y954007D02*
Y960007D01*
M02*
