M48
;Layer_Color=9474304
;FILE_FORMAT=4:4
METRIC,LZ
;TYPE=PLATED
T01F00S00C0.6000
T02F00S00C0.8000
T03F00S00C1.0000
T05F00S00C1.1000
T06F00S00C1.3000
T07F00S00C1.6000
%
T01
X002159Y0068961
Y00704215
Y0071882
X0030734Y0107188
X00360472Y01152169
X0055118Y0105156
X0062611Y0107442
X0064516Y0106299
X00671676Y01021145
X00692784Y0102018
X0061595Y0100457
Y0098806
X0059817Y00898829
Y00878675
Y0085852
X0077978Y0099568
X00936589Y00957007
Y0093345
X005715Y0124333
X0045336Y01252456
X003302Y01269548
X0030861
X0028702
X0016129Y0131699
T02
X001Y003
Y0035
X0025Y003
X0035433Y0029972
Y0035052
X0029972Y0035687
X003Y0045
Y005
Y006
X002Y0055
Y005
X001Y0055
Y004
Y008
Y0085
Y009
Y0095
Y01
Y0105
Y011
Y0115
X002
Y0105
X0025
X003
X0035
Y0095
Y009
Y0085
X003048Y0084963
X003Y008
X0035
X0025Y01
X004Y0095
Y009
X0045
X005
Y0085
X0055
X0045
X004
Y011
Y0115
X0045
X005
X0055
Y011
X0075
Y0115
Y0105
Y009
X007
X0065Y0095
X008Y01
X0085
X009
Y0105
Y011
X0095
X01
Y0115
X009
X0085
Y011
Y0105
X008
Y011
Y0115
Y009
X0085
X009
X0095
Y0085
X01
Y012
X0095Y0125
Y013
Y0135
Y014
Y0145
Y015
X009
Y0145
Y014
Y0135
Y013
Y0125
Y012
X0085
X008
Y013
Y0135
Y014
X0075
Y0145
Y015
X007
Y0145
Y014
Y0135
X0075
Y013
X007
X0065Y0135
Y015
X0062738Y0150114
X0060198
X0057658
X0055Y015
X005
X0045
X004
Y0145
Y012
X0045
X005
X0055
X006Y0125
X005
X0075Y012
X002
Y0125
Y0135
X0025
X003
Y014
X0025
X002
X0015367Y0145034
Y0149987
X0025Y015
X003
X0035
Y0145
X0010033Y0144526
X001Y014
Y0135
Y0125
Y012
T03
X009779Y00889
X010033
Y009144
X009779
Y009398
X010033
X009779Y0116459
Y0118999
Y0121539
Y0124079
Y0140759
Y0143299
X0085598Y01496568
X0083058
X0080518
X0077978
X0062738Y014224
Y01397
X0060198
Y014224
X0057658
X0055118
X0052578
X0050038
Y01397
X0052578
X0055118
X0057658
T05
X0038608Y0135763
Y0138303
Y0140843
T06
X008509Y0045466
X0089789
X0101539
Y0057466
X0095664Y0059516
X0089789Y0057466
X008509
X0079215Y0059516
X007334Y0057466
X0068613Y0057426
X0062738Y0059476
X0056863Y0057426
Y0045426
X0068613
X007334Y0045466
T07
X0053086Y0032956
X0058166
X0068326
X0073406
X0084709
X0089789
X0094869
M30
